<?xml version="1.0" encoding="UTF-8"?>
<svg width="1200pt" height="1200pt" version="1.1" viewBox="0 0 1200 1200" xmlns="http://www.w3.org/2000/svg">
 <g fill-rule="evenodd">
  <path d="m807.8 1118.6c-22.535-0.26172-77.836 8.4805-114.36 10.039l-187.16 2.3867c-12-1.5117-16.773-1.4414-26.387-1.582-40.133-0.56641-124.35-0.68359-153.88-4.9844l-13.891-4.9844 4.7227-121.02c35.242-6.707 33.684-2.8828 69.164-19.676 12.684-6.0234 19.277-9.3789 30.141-15.73 4.7227-2.7383 7.4648-4.7227 12.781-8.4805l40.441-26.457c19.629-16.203 47.668-52.062 57.164-80.48 13.301-1.3711 34.227 3.543 47.242 5.0781 8.7148 1.0391 40.844 7.5586 52.18 0.14062 2.5742-3.7305 2.4102-4.7734 4.8906-8.1719l10.441 0.70703c5.3164 68.195 59.195 98.387 66.117 107.03 9.5195 11.859 15.117 21.047 30.852 27.094 7.1562 2.7656 14.242 3.8281 22.18 6.5195l41.551 15.992c11.668 3.6836 12.234 1.2539 13.652 15.188l-4.6992 81.309c-4.3242 15.355-7.1328-1.0391-3.1641 20.078zm-285.12-285.14-7.1328-1.9609c8.3164-19.18-3.2109-20.504 15.473-61.086 3.3086-7.2031 21.473-51.211 21.59-52.395 1.8906 18.355-5.2422 46.891-9.4727 62.125-3.4961 12.66-14.48 45.969-20.457 53.316zm-15.379-5.1016c-6.8047-1.4648-48.188-20.691-53.434-25.348 5.0078-8.2695 1.5352-1.7227 4.3945-11.574 9.9219-33.922 61.488-95.41 73.699-128.39 3.5195-9.4727 20.34-43.629 27.332-48.023-0.68359 74.836 3.7305 59.738-18.898 114.36-8.8594 21.379-34.418 73.82-33.094 98.977zm91.891-8.5273c-7.8203 6.5898-11.27 4.4883-22.82 6-5.5039 5.3867-6.8281 13.039-15.781 14.93-7.2773 1.5117-20.953-1.3945-27.426-4.1094 0.1875-9.3789 2.5742-13.797 7.2266-20.977 5.8828-9.0234 8.3164-26.242 9.8516-23.363 0.046875 0.09375 7.9844 1.3711 9.4258-20.504l7.6289-93.922c0.66016-13.203 25.582-87.707 31.465-97.723 2.9297 19.699 4.6523 38.031 2.125 58.512-2.7383 22.203 0 41.906-1.1797 63.449-1.0391 19.133-7.8438 86.41-2.7383 104.12 3.5898 12.426 4.4883-2.2695 2.2188 13.582zm48.758-235.25c10.418 24.047 42.234 134.27 50.504 165.05 8.5508 31.746 6.4961 43.488 22.227 50.977 1.7461 13.156 2.7148 11.293 5.8594 19.984-7.0391-1.2031-52.395 13.324-77.078 12.07-1.6055-11.242-0.70703-20.977-1.1562-32.031-0.99219-24.496-8.1719-44.078-6.0469-93.781 1.9844-46.418 6.9688-17.363 8.0078-57.66 0.63672-24.52-2.2422-41.859-2.3164-64.605zm-329.64 101.88c-11.242-11.316-21.566-31.676-28.441-46.891 3.7812-2.0312 4.3242-1.4883 8.1953-3.1641 7.6289-3.3086-0.023437 0.51953 7.5117-4.6523 7.3945-5.0547 13.512-4.8203 18.496-7.9375 12.309-7.6758-8.0312-3.4961 33.449-24.07 24.543-12.164 16.746-8.9297 30.969-6.0703 3.5898 0.70703 3.332 0.23438 6.6133 0.78125l21.473 5.2188c7.1562 1.1328 15.805 1.0859 22.348 3.3086 1.3945 6.2852-19.746 18.402-25.039 21.496-32.031 18.922-66.473 46.582-95.574 61.984zm455.12-89.691c15.332 0.66016 16.699 3.7305 47.48 4.6758 18.52 0.56641 11.34-0.09375 37.203 17.766 12.969 8.9531 50.977 42.426 65.621 41.574-1.0625-9.9453-4.0859-7.5586-7.1328-18.211-13.938 1.3242-11.906 0.96875-38.34-17.125-4.582-3.1406-29.859-21.309-32.078-25.156 28.156-3.7578 5.457 1.6992 31.086-7.4883 27.262-9.7578 12.613-27.332 77.668 8.8828l5.7148 4.2266c-18.59 36.355-38.812 77.195-67.203 107.53-8.1016-15.566-6.1641-7.5352-29.598-27.945-10.629-9.2852-21.52-18.262-31.465-28.676-15.141-15.898-49.512-46.605-58.961-60.047zm-386.62 152.53c17.102-1.6055 3.0234 5.0547 23.883-19.773 21.566-25.676 57.309-73.441 78.164-94.938l30.543-34.133c4.6289-4.8438 5.8125-7.2266 10.676-11.172 13.961-11.34 18.379-15.094 29.504-10.699 4.3945 13.512-0.75781 21.141-7.2031 30.566-7.1562 10.441-8.3398 15.73-14.031 26.977-5.0312 9.9219-9.6133 17.41-14.293 26.434-28.699 55.133-53.953 81.969-77.859 133.75-12.285-2.8828-28.062-11.195-37.441-18.805-6.1172-4.9844-8.1719-7.6523-14.457-12.047-14.645-10.18-34.086-24.898-45.262-38.836l-25.086-31.277c16.18-8.8125 9.6836-9.4023 35.387-26.766l74.715-50.34c13.891-9.707 19.465-18.188 44.766-16.914-8.3867 15.922-3.2617 9.8516-1.8203 12.094 5.5508-4.6055 6.3555-7.6992 9.5664-14.645 20.195-1.4883 14.598-1.7227 30.73-6.6133-7.8906 12.805-20.316 23.242-31.441 37.062-3.2344 3.9922-5.1484 4.9609-8.3867 8.3633-3.8516 4.0156-4.3008 5.457-8.8359 10.512l-48.922 59.148c-9.7305 10.418-29.715 28.867-32.906 42.047zm336.02-162.07c54.543 7.2773 36.898 11.953 89.27 58.652l55.559 55.062c8.293 9.0234 12.684 10.535 20.48 17.953-7.7734 11.172-34.512 37.559-48.07 42.402l-2.5508-3.3555c-1.6289-2.7891-1.6055-3.7305-3.5195-6.4492-2.9297-4.1328-6.707-6.8516-9.4727-9.9219-6.7812-7.5586-8.5508-13.18-13.984-21.945-19.512-31.418-45.828-62.41-60.234-86.41l-27.473-45.992zm-68.668-20.316c4.9141 6.2852 17.883 2.1484 23.836 13.371 10.746 20.34 19.844 37.844 26.883 60.117 14.031 44.574 24.73 58.797 38.242 91.18 4.582 10.961 8.7656 16.559 13.961 29.219 4.6523 11.34 4.4648 25.629 15.66 27.262l2.1016-13.844c-17.195-20.242-58.488-121.35-67.156-146.57-8.1719-23.812-20.715-47.125-21.52-50.031 19.938 5.9297 22.062-1.7461 45.73 37.844 5.4336 9.0938 10.254 19.844 14.789 26.293 15.355 21.898 80.766 111.95 83.668 127.61-15.852 13.324-68.906 43.062-96.332 46.039l-10.465-37.914c-2.0547-2.8828-0.61328-1.6289-2.457-1.2773-2.1484 0.37891-0.1875 0.21094-2.1484 1.418l-34.441-105.38c-1.3711-4.3477-31.395-97.559-30.355-105.33zm199.87-9.1875c-0.96875 8.7891 3.0234 5.5273-5.8594 6.5195zm-507.66 3.5898c7.3477-5.6914 3.9453-1.3711 4.4414-1.0625zm82.891 18.402c-13.559 0.30859-16.535 1.6289-24.355-5.0781l18.496-2.6914c4.2266-12.234 2.6445-12.426 17.27-14.668l-11.41 22.441zm75.117-9.8516c10.582-9.332 13.867-16.559 33.426-17.102-3.8047 6.1406-0.14062 2.5273-6.5898 6.3555-7.4414 4.418-21.188 13.133-26.836 10.746zm333.92-5.7891c0.85156-11.363-0.23438-10.535 7.8438-10.203-3.5195 5.5742-4.8672 5.457-7.8438 10.203zm-21.684-15.852c2.1719-3.1172 1.4883-1.8672 3.0938-6l15.402 6.2852-6.3789 21.52-17.859 3.332c11.055-21.613 8.7148-15.309 6.7305-21.379-0.16406-0.51953-0.23438-3.4727-0.99219-3.7578zm-137.64-4.2031 12.613 15.59c-8.5977-0.70703-9.0703 1.0156-13.984-7.582-2.2695-3.9453-2.4805-3.5664 1.3711-8.0078zm-321.14 24.684 0.14062-14.242 26.242-11.527c-3.3789 9.3789-5.3633 10.699-9.5195 18.332-5.8828 10.746-3.3086 10.914-16.867 7.4414zm235.89-12.379c-0.11719 12.402 0.046875 10.156-4.2773 20.34l-17.387 59.27c-0.92188-16.156 3.5898-46.465 8.7148-58.844 5.7891-13.938 17.316-34.676 33.285-35.789 1.3477 1.6289 2.1719 2.9531 3.0703 3.9922 6.1172 6.9688 8.7148 7.0391 15.922 12.543-3.0938 46.254-0.1875 30.117 0.35547 69.758l-4.9375 71.977c2.2422 43.512 4.4414 11.598 2.5039 67.418-2.0781 59.527 8.457 51.66 8.5039 66.449l-10.984 0.35547c-1.7227-3.1875-2.9766-5.5977-4.6523-9.3086l-11.812-0.28516c-10.227-41.859-1.6523-93.922-3.3789-138.97-1.8672-49.465 7.0391-81.285 1.8672-120.83-0.44922-3.4727 0.09375-6.6133-0.1875-8.5039-1.3711-8.9766 4.0391 2.0547-3.4727-8.9297-6.7578 3.3555-4.0625 5.4336-13.133 9.3555zm-138.36 23.293c-21.992 0.75781-16.938-6.4023-9.3555-19.203 6.1406-10.395 12.852-16.559 27-19.629-3.4023 11.195-10.867 30.684-17.645 38.836zm341.43-17.41c-8.2188-4.8203-13.324-7.0156-18.781-13.984 3.3086-8.8359 7.3477-13.676 13.961-18.543l18.73 7.1797c-1.5586 6.4023-3.4961 8.5977-5.5273 12.211l-8.3867 13.133zm-52.914-4.9375c4.0156-3.8047 5.3398-9.1172 7.0156-16.699 9.332 3.3086 10.723 5.5977 16.891 9.4727-2.6211 13.465-4.9609 6.5195-4.9375 15.566 0 4.5586 0.875 3.543 1.8906 5.4805 8.2695 1.9844 8.2188-2.6445 15.211-8.1953 6.8984 2.2422 14.102 4.3477 12.781 12.496-32.172 3.3086-53.219 3.0469-68.738-24.758l9.3086-19.723 13.559 6.9922c-5.7656 18.828-12.758 15.047-2.9766 19.371zm-160.75-16.254c0.1875-3.4492 3.543-3.2617 2.7148-0.35547-0.70703 2.4805-2.9531 5.1484-2.7148 0.35547zm60.234-2.4102 13.254-5.9062 0.94531 11.527c-10.652-0.96875-8.6211 0.33203-14.195-5.6211zm42.922-9.4492c11.598 7.9141 27.52 20.434 27.473 35.27 9.4023-0.85156 12.496-0.94531 16.773 6.4727-26.977-2.8359-43.746-24.309-44.242-41.738zm-143.81 13.324c16.418-8.9062 9.9453-15.188 22.629-8.668-4.1562 6.3555-11.812 8.2422-22.629 8.668zm-157.23 35.387-10.582-1.9375c-0.89844-6.8281 9.8984-35.953 34.961-42.332-3.5898 7.3711-8.8359 14.691-12.094 21.758zm577.44 18.426c-16.746-5.6445-31.867-14.93-48.188-21.758 14.527-15.262 37.914-29.434 45.52-58.203l26.219 4.418c-0.96875 11.504-14.668 64.559-23.551 75.543zm-245.24-50.551-6.0703-5.3867c3.9219-9.332 3.0703-12.73 10.867-18.117l6.4258 4.1328c-1.1797 7.0391-5.7891 14.598-11.219 19.371zm-54.262-19.133 7.3945-3.7812c1.7227 10.254 6.2617 12.496-0.42578 21.234l-6.9688-17.457zm109.42 16.699c-5.9062-2.6914-8.8359-5.0547-14.504-9.4961 1.1328-6.6836 4.4648-10.227 6.543-15.234l14.48 3.7305c-3.0703 7.4883-2.8594 12.852-6.5195 21zm125.79 7.0391 9.7578-18.922c6.5664 2.293 0.66016 1.4648 7.418 1.2266 4.1094-6.0469 8.668-10.109 12.566-16.699-1.3945 10.512-5.4336 10.488-11.008 18.094l-18.73 16.301zm-146.36-20.363-12.73-5.9062c2.1953-6.8281 3.5195-8.1016 6.8984-14.148l12.781 6.3086-6.9453 13.746zm-46.559 1.7227-12.805-9.1641 7.1562-15.332 13.203 9.0234-7.5586 15.473zm-194.57-2.457c24.875-5.7891 3.9688-10.844 23.812-17.363 5.9531 2.9062 11.598 8.7656 14.008 14.434-11.387 4.7461-27.309 15.379-34.324 25.629-3.9688-0.875-2.9297-0.68359-5.7148-3.4258-1.7227 14.195-24.379 30.922-44.715 29.551 14.031-43.559 22.773-46.629 54.543-58.82l-7.6055 9.9922zm-106.65 36.309c-2.0547-11.527 0.89844-19.488 11.574-32.48 5.6914-6.9219 5.668-5.7891 15.285-8.8359 7.6758-2.4336 7.7734-3.7812 16.109-6.0938-8.9531 19.109-22.086 43.582-42.969 47.41zm-76.301-48.684c-3.5898 10.773 0.66016 5.6445-7.0391 10.203 2.9062-8.6914 1.2266-5.9766 7.0391-10.203zm-27.141 49.844c-24.945 12.613-27.59 10.324-26.977 22.676 11.125-0.30859 26.316-16.301 34.867-16.746 5.7656 1.7734 6.5195 3.1172 11.691 4.9375l41.078 11.504c-3.543 3.8047 1.0156 0.23437-3.707 3.4492l-34.723 18.07c-12.613 5.0078-25.773 14.906-38.34 22.086-11.527-30.426-35.668-74.977-36.188-115.28l29.789-7.3945c3.6602 25.535-1.8906 3.9219 5.9531 38.219-12.426-9.4727-9.5664-12.117-12.566-28.582-10.559 18.07 2.8828 29.434 15.047 36.262l14.078 10.797zm134.62-17.551c2.6211-11.387 7.0156-14.031 12.898-22.535 6.7305-9.707 4.6758-11.812 18.922-14.812-4.8438 15.707-15.379 33.262-31.82 37.348zm-117.02-29.715-6.1172 9.6602c-3.0938-10.156-2.8828-12.262-0.09375-20.27-0.94531 5.9531-1.2773 3.6367-2.5273 12.188l8.7383-1.582zm574.13 16.488c-0.61328 12.047 1.7461 20.859-10.867 20.621-0.070313-11.457 0.046875-6.4727 3.6602-13.746l16.605-26.645c4.5586-7.6289 1.7461-7.8438 12.309-8.1719-2.125 9.8984-13.156 24.047-21.707 27.945zm-164.88-35.055 3.2344 6.5898 9.9922-1.6523-6.0469 13.18-11.621-7.4414c2.3398-4.7461 3.1875-4.0625 4.4414-10.676zm-409.25 18.566c2.6445-9.0938 4.9844-12.707 14.766-9.6836-2.0078 7.6289 0.875 3.3555-5.2188 7.1094 0.30859-10.844 0.61328-2.3633-2.4102-5.0781l-7.1328 7.6523zm550.51 29.316 20.293-38.125c4.8672-6.5898 4.9844-5.7891 13.488-4.1094l-22.062 36.898c-6.4258 8.457-2.0547 7.0391-11.715 5.3398zm-490.89-34.488c-6.1172 3.8984-8.1016 9.4023-12.449 16.488-3.8984 6.332-6.3789 12.449-12.211 16.156 5.5508-4.0156 8.0547-14.621 12.355-21.188l14.172-19.867c-2.6445 6.0469-1.2266-0.09375-1.8672 8.4102zm-59.125 35.859c2.9297-11.883 5.4102-4.5117 8.0547-21.188 5.3867 4.6523 0.80469 3.0703 5.293 0.046875-1.3711-5.2188-1.3711-7.0391 2.1016-12.828l6.6367-7.3477c9.3086-3.4492 1.0859-0.44922 4.6289 0.1875 1.5117 8.7891-10.395 20.125-12.379 25.797-4.6992 13.418 0.99219 10.156 1.9141 11.219 11.34-6.875-1.8906 2.4336 10.488-21 4.0859-7.7227 8.2188-13.652 11.906-19.062l16.797-1.5117-21.922 34.652c-10.156 16.891-13.535 20.242-33.52 11.031zm531.59-4.2266c-4.6758-6.7305-3.5898-3.6367-0.26172-11.434 1.7969-4.2031 3.8516-8.0547 5.6445-11.316 4.5586-8.3867 6.9688-12.73 12.566-20.738l12.473 0.63672c-4.1094 10.676-7.1562 14.055-13.254 22.301-2.6211 3.5195-4.3945 7.4648-7.0391 12.07-3.875 6.8281-1.6055 6.8984-10.133 8.4805zm-389.81-9.5898c3.1406-5.6211 6.9219-11.953 10.441-18.141 5.2695-9.2852 4.4414-11.293 17.195-12.805-15.07 23.691-15.047 29.242-27.637 30.945zm380.08 4.9844-16.797-6.6133 19.254-35.906 16.301 2.5508zm-23.836-11.836c-4.4414-0.63672-4.6758-0.023438-9.3555-1.7734-4.418-1.6523-2.9766-1.6055-5.1953-3.4961l30.66-24.898c-2.6914 13.629-6.1172 9.0469-16.109 30.164zm-438.9-15.188c14.598-4.8438 1.1094-6.4961 13.371-10.512 4.3242-1.3945 14.527-1.3008 19.582-2.4336-0.54297 5.8828-11.125 23.812-14.457 26.93-2.9062 2.7148-24.684 10.984-29.977 12.07 3.7578-8.2695 5.9531-13.938 12.141-18.379zm49.418 1.8203c5.0078-20.621 16.938-17.859 33.023-19.441-5.293 13.797-5.2422 9.0234-33.023 19.441zm-22.961 9.1875c2.3633-6.543 3.875-11.102 8.3398-17.172 4.3945-5.9297 7.3945-7.4648 17.621-7.2773-8.7383 12.426-7.5586 21-25.961 24.449zm391.94-5.9297c1.5586-8.2695 9.4492-20.457 14.789-26.008l12.164 3.4727c-8.8359 10.062-15.805 17.766-26.953 22.535zm-72.262-21.309-5.8125 9.543c-3.7812-3.332-11.363-8.5039-9.4258-13.652 1.6992-4.5117 10.371 1.6523 15.234 4.1094zm-258.83 4.7734c2.457-8.4805 0.875-6.9219 10.676-6.6367zm319.98 11.668c-8.0547-0.23438-8.9062-0.92188-14.172-4.7227l10.797-19.488 14.953-0.09375-11.574 24.309zm-19.535-7.0625-12.875-4.0859c2.1953-8.6445 3.1875-10.109 7.8203-15.543l14.34 0.37891c-2.1016 8.3398-5.7383 12.898-9.2852 19.254zm-18.781-7.5117c-6.8047-3.1875-5.0781-2.5977-10.676-3.3789 0.47266-0.56641 1.2539-2.0781 1.5117-1.6055l4.9141-5.5039c6.2852-5.6914-0.11719-3.6133 12.188-4.0391zm-29.195-20.738 14.48 1.6992-3.5898 8.9531c-4.0859-3.2109-9.1641-3.7578-10.891-10.652zm-225.61 3.3555 10.652-16.961 18.047 2.9062c1.8672 20.766 6.5664 24.164 8.457 34.086-17.219 6-3.7578-2.7148-18.969 9.3789-6.4023 5.1016-15.402 5.8125-17.434 10.605l14.293-23.316c11.789-0.40234 11.172-0.78125 16.348-3.875 0.023437-2.8125 2.5508-2.0547-2.2695-10.371l-29.125-2.457zm369.05 0.80469c6.0469 3.5195 6.5664 0.54297 8.293-0.54297-5.4336 3.2617-3.8984 2.9297-7.8203 7.4648l-10.723-0.44922c1.6992-1.7461 18.211-20.738 18.828-21.828-5.1719 7.0859-5.4336 5.2188-8.5742 15.355zm-288.05-95.242c28.301-11.316 37.324-10.652 63.473-3.7305 13.227 3.4961 21.379 2.457 31.156 9.4258 18.141 12.898 8.1484 3.8047 20.148 20.41 29.977 41.387 6.4727 78.637-31.418 104.34-26.504 17.977-96.828 18.355-114.99-20.434-10.797-23.078-15.047-59.293 3.1641-76.984 9.8047-9.4961 3.4961-3.2617 9.0469-12.613 9.0469-15.262 12.922 0.96875 19.418-20.41zm-258.73 101.71c-0.63672-14.574 3.4023-20.41 11.977-24zm562.77-16.797 6.3789-16.227c15.473 4.8672 27.188 21.473 36.309 28.605 6.9219 5.4102 5.5977 2.5273 11.93 10.109-6.4961 3-7.7734 5.9297-15.117 2.668l-1.9375-9.7578c-4.1797 6.3555-3.2344 8.6914-13.844 8.0078 3.6602-10.109 6.1172-4.2539 7.5117-18.566-16.254 2.0078-9.1406 7.2266-22.699 16.938l-9.5898-1.9844c5.8125-10.652 11.316-10.891 12.66-24.828-5.9297 0.70703-9.9688 0.68359-11.598 5.0312zm-401.08 12.875c2.6445-11.055 2.8594-7.9844 7.8906-14.883 6.4492-8.8359-0.23438-8.0312 11.48-8.1484-2.6914 11.008-7.9609 21.355-19.371 23.031zm-126.59 4.5117c-7.8906 3.0234-3.9453 3.4258-8.3633 6.2617 0.96875-4.3711 17.387-29.738 20.148-32.242-4.3477 12.023-11.172 13.891-11.789 25.984zm367.44-22.18c0-7.2773-1.9609-4.3477 4.6992-6.5195zm27.805 7.4883c3.5664-8.4102 6.9219-16.203 15.828-18.473-2.4102 5.0312-3.6367 5.7656-6.707 9.8516-4.9844 6.6133-2.2695 6.1875-9.1172 8.6211zm-7.4883-2.2422-13.086-3.6367c4.6289-10.938 8.6211-11.008 21.543-12.094zm21.164 2.7383c-1.3242-3.2852-4.6758 4.1797 0.33203-4.2773 2.3633-4.0156 10.535-10.301 12.875-16.109-3.6602 6.8984-9.543 20.504-13.203 20.387zm-290.53-7.4883c10.062-6.543-1.3711-12.309 15.141-8.1484-0.73047 7.6523-9.6367 18.945-15.707 26.172l-23.645 1.9844c2.7891-9.0234 14.078-26.789 18.828-33.332l10.324 2.3398c-3.7578 5.4102-3.4492 4.0391-4.9375 10.984zm-30.637 20.574-13.324 1.4883c4.3242-6.9219 8.3867-11.621 14.34-19.605 6.0703-8.1484 6.9453-18.852 14.883-17.219 0.14063 0.42578 0.42578 0.68359 0.42578 1.3008-0.16406 7.9375-13.156 28.371-16.324 34.039zm-18.211 4.5352-22.277-0.37891c4.4648-10.699 24.164-37.629 32.078-44.125l13.203 1.3711c0.046875 5.7656-19.535 37.203-23.008 43.133zm413.77-6.4258-16.324-1.5117 24.73-39.805c14.316-1.7461 16.652-3.7812 28.629 2.2422-4.3711 13.984-4.0859 8.4805-17.102 21.449-6.875 6.8516-13.535 11.691-19.938 17.621zm-52.773-6.7578-13.488-1.0156c2.668-8.5273 11.504-19.961 16.629-26.363l12.637-1.0859c-6.3789 10.418-11.27 16.277-15.781 28.465zm-268.8-28.559 10.016-13.109 0.94531 20.102c-4.8203-1.3945-2.668 0.070313-6.5898-2.5273-5.7383-3.8047-2.7383-2.3867-4.3711-4.4648zm290.29 30.543-12.402-1.6055c9.6836-25.984 21.945-30.898 40.465-33.309zm-418.35 13.559c-10.488-2.1016-12.047-0.33203-20.668 0.40234l37.488-51.852 12.117 0.68359c-1.9141 8.6211-14.715 27-20.668 36.426l-3.7812 5.668c-2.1484 3.4961-2.9531 5.6211-4.4883 8.668zm-33.684-5.7891c6.7578-3.0234 2.7383-1.3711 9.875-11.789l17.621-28.016c4.2539-6.707 3.2344-9.8281 12.828-9.5898l-34.512 50.434c-3.9219 3.1875-3.543 3.543-6.875 4.9609zm568.56-51.234 71.715-3.3086c1.6289 18.285 10.18 18.566 8.125 35.055-1.4414 11.434-6.1406 24.758-7.9609 37.371-41.504-5.0078-9.2344-1.0625-25.773-0.09375-2.9531-19.133-5.9297-38.102-24.047-50.363-14.457-9.7812 10.488 6.6836-3.1641-1.7969-1.0156-0.63672-2.5977-1.3242-4.418-2.7891l-14.48-14.078zm-193.84 10.254c2.2695-7.1562 3.332-7.7734 11.125-8.0781-8.0312 6.2109 0.44922 5.2695-11.125 8.0781zm-228.78 3.5195c4.9141-2.125 4.8203-13.582 15.285-19.582 2.7383 5.457 2.3398 6.6367-3.0469 13.488-3.4492 4.3711-4.8203 6.8047-12.234 6.0938zm-165.19 44.789c2.7656-8.1719 7.0391-11.316 8.2695-18.07 1.582-8.9531-2.0547-6.332 3.7305-18.047 6-12.164 11.691-29.691 25.746-23.293-7.2031 22.582-26.48 41.172-27.684 43.277-5.5977 9.8047 1.9609 12.047-10.062 16.133zm488.86-57.898 6.4258-8.9297c9.6367-0.14063 11.504 2.9531 18.188 5.7891zm-52.797 6.543c7.0859-12-0.33203-7.7461-2.0781-9.5898-14.242 14.34-7.7734 11.457-26.363 12.094 1.6289-3.3789 1.8438-3.8047 3.5664-7.6758l43.203-10.156c-3.8047 6.9453-11.102 14.195-18.332 15.332zm-276.54-9.1172c8.2695-3.1172 2.457-4.7734 12.969-6.8281-5.0781 9.2344-7.3008 13.348-13.773 21.59-8.7656-0.21094-12.543-2.6211-20.766-5.3164 3.4727-10.652 10.227-23.812 24.117-21.852 0.89844 5.0078 0.14062 8.3867-2.5508 12.402zm315.61 4.1797-13.156 0.82812 11.621-17.715 13.348-0.16406-11.812 17.055zm-96.285-2.4805c-0.96875-9.0469 0.40234-11.172 1.8906-17.219 10.441 3.875 6.5195 2.8828 15.781-0.73047-3.0469 11.527-8.0312 15.684-17.668 17.953zm44.738-10.559c3.4727-6.543 9.6836-13.723 14.031-18.262 8.8359 2.7891-2.2422-0.16406 8.3633 4.8672 3.7305 1.7734 9.0938 2.5273 12.875 3.9453zm-298.35 16.254c1.0625-6.1172 10.676-24.898 21.188-26.242-3.0938 5.6914-5.1484 8.293-8.6445 15.188-4.2773 8.4336-4.0391 10.277-12.543 11.055zm-212.98-29.789 82.844 11.125c-4.9375 8.5742-27.262 23.125-34.016 52.395-2.125 9.1875-6.0469 15.262-9.3555 21.426l-39.047 5.1484c-12.875-55.18-0.1875-43.961 2.9297-50.457l2.8359-28.797c-5.125-6.6836-4.9141-3.4023-6.1875-10.844zm282.52 12.828-9.1875-2.7891c5.4805-21.969 15.969-14.387 18.781-13.418-1.4883 7.0859-5.4102 12.66-9.5898 16.203zm207.52 2.2695c3.1875-8.668 6.6133-17.219 18.094-18.117-3.2852 10.156-5.6445 17.645-18.094 18.117zm-284.15 12.332-12.59-1.5586c3.4492-9.8516 14.738-24.852 21.898-31.039l9.4961 3.8516zm-59.527-10.348c4.0625-10.961 14.504-22.652 29.859-25.348-3.9922 5.7891-7.3945 8.9531-12.805 15.355-7.2539 8.5742-4.4414 11.551-17.055 9.9922zm104.93-18.309c1.5117-3.543 14.93-26.906 16.277-9.875 0.1875 2.2422-4.6992 8.5273-6.4961 10.324-4.8438 4.8672-4.3242 4.0625-9.7812-0.44922zm-49.867-4.1328c-12.781 4.8672-17.977 16.039-24.707 26.977l-11.102-0.73047c3.6367-9.6836 11.953-16.039 17.48-23.078 6.0234-7.6758 3.707-10.156 15.262-9.7305l3.0703 6.5664zm87.211-10.301c6.0234-4.4883 5.8594-2.8125 10.629 0-3.4023 6.2617-3.9922 5.2695-10.629 0zm-47.008 11.219c-6.5664-1.4414-16.961-6.4727-20.457-11.219 6.332-5.8125 21.707-7.5352 33.922-5.9766-0.33203 7.4648-9.7578 13.605-13.465 17.195zm-146.36 7.6992c-20.668 0.61328-73.961-8.3164-91.441-14.41 0.49609-10.582 5.5742-24.309 8.9766-33.992 4.3242-12.262 8.125-22.156 12.379-33.426l29.27 14.598c16.156 7.4648 86.008 34.203 96.637 34.652-18.141 5.5273-46.699 21.426-55.82 32.574zm286.09-47.766c7.1328-13.535 8.9297-7.8906 16.465-16.605l1.9609 11.812c8.2695 7.3242 6.1172 0.28516 6.8516 11.125l-18.59 0.28516c-2.7148-4.582-1.4414-4.6992-6.6836-6.6133zm-59.504-13.395c3.2344 4.8203 7.8672 13.746 7.2031 21.332-7.0859 0.35547-1.9141 1.0859-9.9453-6.1406-2.4102-2.1484-2.4805-1.9141-3.9453-2.9297l6.6836-12.262zm141.95 31.699c6.1641-8.293 12.285-16.062 19.348-24.379-6.1641 16.984-5.7891 16.203-19.348 24.379zm-152.34-54.426c5.9062 4.3008 7.1562 11.316 8.6445 16.891l-9.9219 10.156c-2.3633-11.668 0.61328-17.668 1.2773-27.047zm37.227 24.117 8.2422 3.4961c0.37891 0.16406 1.1797 0.51953 1.4883 0.66016 0.28516 0.11719 0.92187 0.37891 1.3477 0.63672l-0.046875 9.9688-19.488 0.21094-9.8516-24.262c6.4492-6.3555 13.676-15.898 22.82-20.738 3.4023 30.379 0.046874 18.262-4.5117 30.023zm42.898-6.0938 10.277-11.859c0.16406 9.4258-0.63672 8.2188-10.277 11.859zm-22.395-39.211c0.54297 8.5742 2.125 18.52-2.5273 25.582-3.3555-2.9062-5.4805-5.9297-5.125-13.938 0.37891-8.6211 2.7656-8.1016 7.6523-11.645zm112.91 14.078c6.9688-1.6523 9.543-4.3711 14.102-7.2031-2.5273 31.18-23.316 39.164-43.559 57.117-5.1484 4.5586 0.75781 1.1094-3.6602 3.3789l-4.6992 0.85156c-0.37891 0.023437-1.2539-0.23438-1.8672-0.33203-0.61328-8.1016 6.7812-12.047 17.977-27.402 7.3008-9.9688 17.48-11.668 21.707-26.41zm-451.72-2.4336 21.309-47.859c18.117 5.9766 149.22 84.898 158.01 91.133-1.6523 0.82812-45.117 11.293-47.125 11.148-22.395-1.3711-117.64-40.465-132.19-54.426zm298.42 17.621-7.6289-12.59c5.9297-9.7578 17.812-19.652 26.27-26.48l4.4648 16.582-23.102 22.488zm-17.34-8.0781-5.125-1.4883-0.78125-16.203c2.8594 7.0391 5.1953 5.7656 5.9062 17.691zm99.613 22.938c-1.6289-8.6445-0.28516-22.062 3.1875-28.227 2.7891-4.9609 12.332-10.348 16.797-15.402-5.668 17.551-13.086 28.348-19.984 43.629zm91.938 27.59c2.0312-12 3.9219-9.7578 21.496-19.844l131.95-72.66c13.773-8.8828 29.574-16.535 42.211-27.094 6.4727-5.4102-0.28516-1.7969 6.7812-5.1484 5.2422 10.82 12.332 19.867 16.984 30.875l16.559 57.805c5.457 18.543 12.684 27.141 17.316 60.117-6.9453 8.4336-4.9609 9.1172-9.7305 18.402-24.402 2.4102-48 1.7734-71.883 3.8281-18.945 1.6289-12.992 1.3945-26.645-5.3398-6.7305-3.332-7.1797-2.5039-12.52-6.5664-4.2266-3.2109-5.3633-4.0156-10.629-7.1328l107.34-26.387c7.8672-1.9375 9.543-1.5586 11.812-10.652-9.1406-4.2773-29.242 5.3633-43.156 9.8281-12.945 4.1562-86.766 21.66-97.629 18.402l-46.582-13.605c4.1328-5.8828 31.746-16.203 38.906-18.992 35.219-13.797 48.73-14.102 86.363-31.18 5.3867-2.4336 15.047-6.4258 20.93-7.9844 13.746-3.6133 15.023 2.5977 19.699-11.527-9.4961-6.3086-35.836 8.5273-52.062 15.141-20.668 8.4336-33.758 12.543-55.699 19.086-17.859 5.293-34.488 14.031-51.188 20.836-35.457 14.48-20.504 9.1406-60.613 9.8047zm-121.96-35.715-1.9375-14.691c8.4805-8.5977 17.457-17.031 26.031-25.324 6.6836 16.016-11.055 34.699-24.094 40.016zm101.05-21.922c-6.9688 4.7461-21.285 16.844-25.676 23.102 8.2422-14.527 27.285-36.898 40.086-50.789 5.5742 14.242-9.2109 19.984-14.41 27.684zm-122.48-14.574c-1.9844-8.668-3.4492-8.8828-2.125-19.109l12.473-12.047c0.61328 19.984 2.7148 23.195-10.348 31.156zm59.691 63.332 1.7734-11.598c11.031-6.9688 11.387-4.6758 19.746-15.543-2.4805-1.6289 0.26172-0.85156-3.8047-1.3711-1.8438-0.21094 1.5352 1.5352-4.418-0.070313l41.527-40.203c2.7383-2.668 10.914-10.938 14.078-12.852l-48.898 62.27c-19.062 21.613-7.5586 16.227-20.008 19.371zm11.078-35.242c20.836-51.992 14.883-38.738 39.52-61.773 5.4102-5.0547 13.938-12.402 19.395-15.566l6.1406 15.355zm-50.812-16.418c0.11719-20.078-3.0703-21.402 15.637-38.316 5.6445-5.1016 14.031-11.031 18.426-15.707-0.99219 15.922-0.28516 25.18-10.016 33.707-6.8984 6.0703-17.242 17.102-24.047 20.316zm-24.945-38.504c-5.2422-13.512 3.3555-24.402 15.262-28.961l0.33203 17.457c-0.875 0.49609-1.5352 0.56641-1.7461 1.4414-0.21094 0.85156-1.0156 1.1094-1.3008 1.418-0.40234 0.42578-3.5898 3.7578-3.6367 3.8047-6.5664 6.1875-1.4883 3.5195-8.9062 4.8438zm-30.828 14.293c4.7734-2.9297 14.434-13.395 20.738-18.262l3.1406 14.363c-9.9688 8.4336-16.844 16.395-27.164 25.488-9.9219-14.527-14.906-23.102-11.363-44.766 2.3633-14.363 4.2773-13.039 7.5352-16.652l11.078-10.488c6.1406-5.5977 1.7734-4.418 10.773-6.4023-1.5352 21.094 7.9609 22.984 5.3164 30.922-6.0234 7.2539-18.969 15.473-20.055 25.797zm89.668 21.117c0.046875-24.945 17.691-40.629 36.969-52.016-1.2539 4.8438-10.348 26.527-14.34 31.324-7.0156 8.4102-17.668 14.766-22.629 20.691zm-332.74-97.109c5.5273 7.7461 14.504 12.969 22.039 18.379 8.9766 6.4258 14.715 11.836 24.473 18.875l93.898 74.41c15.379 13.324 34.227 23.789 48.73 36.613-48.992-1.9375-68.27-17.34-112.58-45.047-8.3398-5.2188-16.301-8.1016-24.805-13.699l-75.707-46.227c5.457-15.969 15.805-32.125 23.953-43.301zm298.84 69.023c-1.3242-23.789 1.6992-20.715 13.652-33.07 6.5664-6.8047 19.465-17.859 26.242-22.203-0.1875 24.285-3.0234 21.59-15.355 33.023-4.8672 4.4883-19.18 19.582-24.543 22.254zm129.61 69.285c0.89844-14.789 4.7969-16.277 13.773-23.172 13.441-10.348 25.535-23.691 52.961-43.18 4.2031-2.9766 7.5117-4.0391 11.766-7.5117 8.7891-7.1328 9.5664-10.441 20.93-17.363l52.891-43.371c5.5039-9.0703-0.73047-5.3164 8.125-11.574 9.9219 5.0312 23.316 25.016 30.496 34.418-20.172 21.543-112.35 70.961-141.57 85.535l-49.371 26.219zm-158.24-96.426c-4.1797-19.301 6.875-24.758 19.016-30.637l-0.68359 16.203c-6.9453 2.8828-10.488 8.668-18.332 14.434zm121.46-25.348 4.2539-11.738c1.582 1.1562 2.2188 1.0391 3.7812 3.6602l5.9766 20.102c-20.242 18.332-9.0703 16.773-27.969 26.527 0.92188-4.7969 4.2266-14.41 6.3789-19.914 3.1172-7.9609 7.2539-9.5898 11.574-14.527-1.9141-4.4648 0.75781-2.125-3.9922-4.1094zm-153.57 9.707 10.867-24.023c2.1953 1.7734 2.1484 0.66016 3.7305 3.9922 0.92187 1.8672 1.8906 5.4102 2.7656 7.9844-8.4102 4.7461-8.4336 8.7656-17.363 12.047zm29.715-4.6523c-8.0547-12.805-1.0391-14.363 6.5664-21.402 5.9766-5.5742 10.961-11.172 17.219-13.629l0.82812 10.746c-6.4727 6.0703-15.637 18.164-24.613 24.285zm-264.19-25.465c13.867-16.18 53.621-54.684 70.676-55.844 0.44922-0.023437 1.3711 0.21094 1.7227 0.21094 3.9922 0.046876 7.8203 13.465 19.961 27.992l75.449 107.15c3.6367 5.6445 4.6055 6.8984 9.0234 12.684l29.48 40.156c11.715 14.789 5.9297 15.449 10.512 25.109l5.0078 6.6836c-6.8516-1.8672-50.668-34.086-57.094-38.293-21.992-14.504-38.078-29.504-56.668-41.859-20.148-13.418-24.969-19.301-40.676-31.441-5.1953-4.0156-7.4883-7.8672-12-11.977-6.5195-5.9531-45.637-38.715-55.395-40.582zm336.54 67.109c-1.5352-17.078 2.6211-27.332 12.07-35.621 17.766-15.613 23.906-13.324 27.875-26.055-11.457 1.1797-24.969 14.621-33.117 23.316 0.023437-28.203 2.5273-20.645 30.285-43.227 3.4961 1.9844 9.2852 6.1641 13.465 8.9297-0.92188 5.6914-15.262 40.156-17.668 43.18-5.3633 6.7305-11.102 8.5508-16.961 14.551-3.6836 3.7812-13.629 11.387-15.945 14.93zm-40.984-23.621c-3.4258-25.512 12.758-34.324 43.652-56.148-0.47266 18.262-4.6523 24.285-16.109 33.047-5.3867 4.1094-23.34 21.781-27.543 23.102zm209.98-78.637c5.2695-7.0859 6.1406-8.9297 11.953-14.574 6.1641-5.9531 5.3633-6.707 10.062-13.441 10.535 3.6836 20.504 16.559 27.07 22.938 9.4023 9.0703 18.211 16.203 23.859 27.707l-32.48 34.582c-9.875 12.379-84.613 59.504-111.21 88.418l1.2266-61.203zm-156.78 27.07c-0.68359-14.883 4.5352-16.559 14.906-21.613 3.8047 10.559 5.2422 6.6133-4.8906 15.969-1.6523 1.5586-1.0391 3.5664-10.016 5.6445zm-89.906 15.898c-5.293-18.852 8.8594-21.117 28.18-44.906l-0.21094 20.27c-1.3008 0.70703-1.0625 0.23438-3.543 2.2422-6.1172 4.9609-15.379 17.527-24.426 22.395zm35.953 9.5898c-0.1875-21.309 29.836-48.66 47.504-57.59l-0.94531 17.34c-5.7656 6.5898-38.93 35.598-46.559 40.254zm56.434-56.621 9.1406 5.293c-6.7578 2.8359-5.7383 2.7656-10.559 6zm-55.797 32.102c-1.3008-15.969 9.6836-22.18 18.637-29.457 3.875-3.1406 8.2695-6.4492 13.746-10.535 5.7891-4.3477 7.1797-7.4883 13.891-4.2266-2.3867 6.0469-42.66 42.426-46.277 44.219zm-0.09375-21.262c-1.2266-27.211 11.48-26.078 25.559-39.309l9 6.3789c-4.2773 9.7578-32.125 31.676-34.559 32.93zm-179.53-52.652c12.59-7.3477 10.535-12.543 28.465-15.309 5.8125 7.9844 10.723 26.27 22.699 46.984l34.746 100.91c0.37891 10.773-1.0625 22.984-1.2031 33.805-0.16406 12.707 2.6445 17.551 3.4961 27.543l-46.699-63.613c-18.262-27.73-65.883-87.613-73.277-114.16l31.773-16.156zm292.16 53.387c8.8594-27.781 33.402-70.961 32.316-83.812 15.234 3.8047 69.566 24.707 78.211 42.945l-83.906 105.23c-4.2266-12.355-4.2031-23.363-10.441-35.387-5.668-10.938-11.738-18.945-16.18-28.984zm-253.75-74.668c19.18-4.7969 38.504-18.164 60.59-21.023 4.6992 10.039 10.016 29.055 11.789 40.629 2.0547 13.348 8.1016 26.457 11.195 42.047 2.2188 11.078-11.055 25.156-16.203 34.133-6.543 11.457-9.5898 26.883-15.566 38.219-20.195-36.379-16.277-56.953-38.031-98.836-4.5117-8.668-3.4492-8.3164-5.9297-18-1.4883-5.7891-4.9609-11.125-7.8438-17.172zm203.22 23.859c-0.80469-8.6211-0.23438-21.613 0.92187-30.262l8.0781-22.652c16.984 0.96875 50.715 10.465 64.891 17.195 0.35547 11.766-10.699 27.449-14.738 38.293-4.9609 13.254-9.9688 25.18-14.195 38.621-16.844-26.008-31.254-30.141-44.953-41.195zm-129.38-46.582c63.379-10.039 20.738-2.0781 56.195-1.4648l-0.1875 38.766c-9.6367 7.3945-12.543 10.203-20.715 19.723-5.5742 6.4727-10.773 16.227-17.457 21.211-7.6758-23.125-11.859-54.141-17.836-78.234zm66.285 32.691c-0.47266-6.1172-1.3477-28.844-0.21094-33.898 1.9844-8.5977 2.1016-4.5117 7.8438-9.5195 2.457-2.1484 3.9219-3.875 6.7578-6.8984 11.27-1.0859 36.898 4.0156 45.496 7.2539-8.5508 14.977-2.5508 28.418-6.8281 46.301-8.6914 2.7656-15.426-4.418-24.07-6.1172-10.844-2.1484-21.164-0.70703-28.984 2.8828zm30.496 715.42c35.766-5.9062 71.219-9.2344 103.18-24.211 5.5508-2.5977 11.93-5.0781 16.867-7.0625 28.891-11.527 71.691-35.812 91.512-55.109 9.4727-9.2109 18.684-16.797 26.172-24.402 9.4492-9.6602 13.18-14.836 21.898-26.172 15.73-20.457 58.652-87.188 64.203-109.63l15.852-58.82c10.488-32.078 3.9453-14.008 9.8281-38.031 13.133-53.766-0.56641-22.652 17.387-52.086 3.6133-5.9297 5.5039-15.473 1.6758-21.852-3.0234-5.0078-6.8984-5.4102-10.559-15.852l-16.062-55.914c-14.621-45.898-20.172-72.945-48-113.01l-58.465-64.277c-37.156-39.094-75.922-64.156-128.74-81.211-37.605-12.117-108.54-24.852-120.12-28.629-19.441-6.3555-2.8125-9.0938-39.473-5.0078l-9.543 14.34c-21.473-1.5117-53.293 10.086-74.008 15.449l-47.668 16.984c-6.0469 2.7656-7.3008 4.2266-14.293 7.0391-51.922 21.023-120.52 73.559-147.21 117.45-11.078 18.211-19.109 38.008-28.961 57.59-21.309 42.379-26.195 74.055-35.645 96.566-8.7148 20.715 0.046876 12.969-17.836 24.402-3.6367 12.07-6.1875 30.07-0.37891 41.504 6.1406 12.094 15.613 101.88 51.66 176.6 19.062 39.473 42.781 78.117 75.07 110.1 17.031 16.914 58.914 49.82 78.402 58.512 25.371 11.316 12.141 6.8516 28.961 16.914 15.922 9.543 54.094 22.133 62.574 28.488-3.4492 25.418-23.691 39.969-34.746 56.34-6.5195 9.6602-16.441 17.812-22.348 23.195-6.875 6.2852-17.031 12.543-25.203 18.285-73.914 51.828-84.566 35.574-115.28 46.156-14.242 4.8906-18.805 2.4336-18.992 33.852l-0.1875 96.73-6.8516 4.3008c9.6133 1.7461 5.6211-0.046875 7.8438 9.1172 37.086 6.4727 149.98 8.5273 196.72 8.1016 23.906-0.23438 39.449-2.9297 64.914-2.0781l228.5-8.4805c11.527-1.3945 19.324-7.0391 23.766-6.707 2.1953-16.605 3.8281-53.551 3.4492-69.758-0.49609-21.922 8.3867-35.598 1.4414-60.285-35.008-3.2344-62.031-14.715-85.629-36.613-13.488-12.496-13.676-6.6602-26.387-14.195l-21.52-19.629c-16.512-19.133-37.891-50.598-37.773-78.992z"/>
  <path d="m586.2 419.05c3.6133-1.6992 4.418-0.94531 8.4805-2.6914l-9.1172-1.3477c24.07-18.992 110.22 3.2617 80.055 59.738-22.324 41.789-80.836 44.953-100.68 9.7812-9.7305-17.219 3.2617-56.93 21.262-65.48zm93.355 47.434c5.9062-19.676-1.2266-38.148-12.188-48.473-12.402-11.691-63.07-33.211-92.172-7.1562-2.5742 2.293-13.254 15.543-14.219 17.102-3.332 5.4336-5.9531 16.156-7.6758 23.836-9.9453 44.27 15.332 62.93 55.395 68.363 33.234 4.5352 61.133-21.094 70.867-53.668z"/>
  <path d="m472.23 980.57c15.945-3.0938 35.457 2.5977 32.387 21.141-1.8203 11.008-17.953 27.234-26.055 30.969-7.3477 3.3789-17.125 3.4961-21.543-2.8359-9.8047-13.938-14.055-26.574-4.2031-39.543 1.3477-1.7734 6.332-6.8516 7.1328-7.3477 6.5195-3.9219 4.2773-0.82812 12.285-2.3867zm45.023 38.766c20.34-44.48-59.316-73.418-80.812-23.645-22.371 51.898 59.93 69.309 80.812 23.645z"/>
  <path d="m553.84 1019.3-0.1875-11.977 19.254-3.4258c0.92188 16.18-2.4336 15.094-19.062 15.402zm31.277 4.9844c2.0312-7.418-1.1328-21.023-4.0391-32.031l-41.242 3.6133c-2.3398 10.156-0.54297 23.93 0.73047 34.488 9.6602 1.9844 34.891-3.2109 44.551-6.0703z"/>
  <path d="m618.36 1002.6 20.434-0.70703 4.1094 15.047c-8.1016 3.4258-12.66 4.9844-23.836 3.4023l-0.70703-17.738zm-11.574 21.758c15.758 5.8594 24.852 5.8594 43.156 1.418 12.945-3.1406 5.5742-3.7812-0.21094-29.953-2.125-9.707-40.535-6.2617-41.906-1.9844z"/>
  <path d="m553.91 288.76c10.156-0.82812 3 1.7461 8.8359-3.3086 6.2852-5.457 11.715-16.418 16.039-24.023-9.0938 4.8906-22.441 17.527-24.875 27.332z"/>
 </g>
</svg>
