<?xml version="1.0" encoding="UTF-8"?>
<svg width="1200pt" height="1200pt" version="1.1" viewBox="0 0 1200 1200" xmlns="http://www.w3.org/2000/svg">
 <g>
  <path d="m829.73 532.11c-0.43359-2.2305-0.86328-4.4648-1.3438-6.6719-0.50391-2.207-0.96094-4.4414-1.5352-6.625-8.7344-35.207-25.871-67.895-49.055-95.258-5.8086-6.8398-11.977-13.391-18.551-19.465l-4.9922-4.4883-2.4961-2.2578-2.6172-2.1367-5.207-4.2461c-0.83984-0.71875-1.7773-1.3672-2.6641-2.0391l-5.4219-3.9844c-0.91016-0.67188-1.8008-1.3438-2.7344-1.9453l-5.5938-3.7422-2.7852-1.8711-2.8789-1.7539-5.7344-3.4805c-0.9375-0.60156-1.9453-1.1055-2.9297-1.6562l-5.9062-3.2188c-0.98438-0.52734-1.9453-1.1055-2.9766-1.5586l-6.0469-2.9531-3.0234-1.4883-3.0703-1.3438-6.168-2.6875c-1.0078-0.48047-2.0625-0.86328-3.1211-1.2734l-6.2891-2.3984c-1.0547-0.38281-2.0898-0.83984-3.1445-1.1758l-6.3828-2.1367-3.1914-1.0781c-1.0781-0.33594-2.1602-0.625-3.2383-0.9375l-6.4805-1.8711c-0.55078-0.14453-1.0781-0.3125-1.6328-0.45703l-1.6328-0.38281-3.2891-0.79297c-2.1836-0.50391-4.3672-1.0781-6.5742-1.5352l-9.9375-1.9453c-1.1055-0.19141-2.2305-0.33594-3.3359-0.50391l-6.6719-1.0078-1.6797-0.23828-5.0391-0.50391c-2.2305-0.21484-4.4883-0.48047-6.7422-0.67188l-6.7695-0.38281-3.3828-0.19141c-1.1289-0.070312-2.207-0.097656-3.3359-0.12109l-6.625-0.23828c-8.8555-0.33594-17.734-0.71875-26.664-0.88672-8.9297-0.19141-17.93-0.14453-26.977 0.28906-9.0234 0.43359-18.07 1.2734-27.07 2.6406-9 1.3672-17.902 3.1914-26.688 5.4492-8.7852 2.2305-17.473 4.8477-26.039 7.8477s-17.016 6.3828-25.297 10.199c-8.2812 3.8164-16.414 8.0898-24.289 12.938-1.9922 1.1758-3.9102 2.4961-5.8555 3.7695l-1.4648 0.96094c-0.48047 0.3125-0.96094 0.69531-1.4414 1.0312l-2.8789 2.0898c-3.7422 2.8789-7.4414 5.8789-10.848 9.1445-6.9375 6.4336-13.031 13.703-18.457 21.383-2.6641 3.8633-5.2305 7.8242-7.5117 11.902-2.3516 4.0547-4.4414 8.2578-6.4062 12.504-3.8633 8.5195-7.0781 17.305-9.5273 26.281l-0.91016 3.3594-0.81641 3.3828c-0.57422 2.2578-1.0078 4.5352-1.4883 6.8164-0.86328 4.5586-1.6562 9.1445-2.207 13.754-1.1758 9.2148-1.6797 18.504-1.5352 27.77l0.023438 1.7539 0.070312 1.7266 0.12109 3.4805 0.21484 3.4805c0.070312 1.1523 0.14453 2.3281 0.26562 3.457 0.48047 4.5859 0.83984 9.1914 1.5586 13.727l0.48047 3.4062c0.16797 1.1289 0.28906 2.2812 0.52734 3.4062l1.2734 6.7695c0.21484 1.1289 0.38281 2.2578 0.67188 3.3828l0.76953 3.3594c0.50391 2.2305 0.98438 4.4648 1.5352 6.6953l1.7539 6.625c0.3125 1.1055 0.57422 2.207 0.88672 3.3125l0.98438 3.2656 1.9922 6.5508 2.1836 6.457 1.1055 3.2383 3.5273 9.5742 2.5195 6.3125 1.2461 3.1445c0.43359 1.0547 0.88672 2.0898 1.3203 3.1211l2.6641 6.2383c0.88672 2.0625 1.8477 4.1055 2.7617 6.168 1.8242 4.1289 3.793 8.1602 5.7109 12.238 3.9102 8.0898 7.9688 16.078 12.121 23.977 2.0625 3.9609 4.1758 7.8945 6.3125 11.809 1.0312 1.9688 2.1602 3.9375 3.2656 5.9023 1.1055 1.9688 2.1836 3.9609 3.3125 5.9023 9 15.602 18.719 30.574 28.152 45.48l3.5273 5.5938 3.4805 5.5938c2.3516 3.7188 4.5859 7.4883 6.8398 11.23 4.4414 7.5352 8.7852 15.098 12.695 22.848 4.0547 7.6797 7.5117 15.602 10.801 23.566l2.2578 6.0469c0.35938 1.0078 0.79297 2.0156 1.1055 3.0234l0.98438 3.0703c0.64844 2.0391 1.3203 4.1055 1.9453 6.1445 0.52734 2.0625 1.1523 4.0781 1.6094 6.168 0.23828 1.0312 0.50391 2.0625 0.71875 3.1211l0.625 3.1445c0.097657 0.52734 0.21484 1.0547 0.3125 1.5859l0.26562 1.5859 0.52734 3.168c0.60156 4.2461 1.1523 8.5195 1.4883 12.84 0.74219 8.6172 0.86328 17.328 0.74219 26.09-0.3125 17.496-1.9688 35.113-3.6016 52.754-1.5586 17.16-3.1914 34.414-3.4062 51.719-0.097656 0.097657-0.19141 0.19141-0.26562 0.28906-0.79297 0.9375-1.4648 1.9922-1.8945 3.1445-0.45703 1.1289-0.625 2.3516-0.625 3.5039l1.5352 0.16797-1.5859-0.046875c-1.5352 9.2148-2.543 18.504-3.168 27.84-0.625 9.3359-0.79297 18.742-0.43359 28.176 0.12109 2.3516 0.19141 4.7266 0.35938 7.0781 0.21484 2.3516 0.35938 4.7266 0.625 7.1055 0.28906 2.3516 0.50391 4.7266 0.86328 7.1055l0.55078 3.5508c0.19141 1.1758 0.33594 2.375 0.60156 3.5508 0.48047 2.3516 0.86328 4.7266 1.4414 7.0781l0.86328 3.5273 0.43359 1.7773c0.14453 0.57422 0.33594 1.1758 0.50391 1.7539l1.0312 3.5039c0.19141 0.57422 0.33594 1.1758 0.55078 1.7539l0.625 1.7266c0.83984 2.3047 1.6328 4.6328 2.5938 6.9102 1.8711 4.5586 4.1055 8.9766 6.5273 13.246 2.4492 4.2969 5.1602 8.4258 8.1836 12.336 3.0234 3.9102 6.2891 7.6328 9.8633 11.09 3.5273 3.4805 7.3906 6.6484 11.449 9.5273 4.0547 2.8555 8.375 5.3984 12.84 7.5586 4.4883 2.1367 9.168 3.9102 13.945 5.2305 4.7773 1.3203 9.6719 2.1836 14.566 2.5938 4.8945 0.43359 9.7695 0.35938 14.566 0.023438 9.6016-0.69531 18.863-2.6172 27.961-4.7031 4.5586-1.0547 9.1211-2.207 13.656-3.6719 4.5117-1.4648 9-3.2148 13.273-5.4961l1.6094-0.86328c0.52734-0.28906 1.0312-0.625 1.5586-0.9375 1.0312-0.64844 2.0625-1.2734 3.0977-1.9453 1.9453-1.4648 3.9609-2.8086 5.7617-4.4648 1.8945-1.5352 3.5742-3.2891 5.3281-4.9688 1.6094-1.8008 3.3125-3.5742 4.7773-5.4961 1.5586-1.8711 2.9023-3.8633 4.3438-5.832 0.67188-1.0078 1.3203-2.0156 1.9688-3.0469 0.3125-0.50391 0.67188-1.0078 0.98438-1.5352l0.91016-1.5586c2.4727-4.1523 4.6094-8.4961 6.5508-12.887 3.8867-8.7852 6.8633-17.953 9.2891-27.098 2.3984-9.168 4.2969-18.48 5.6641-27.887 1.3438-9.4062 2.2578-18.863 2.7617-28.391 0.21484-4.7539 0.38281-9.5039 0.35938-14.281 0.023438-4.7773-0.097656-9.5273-0.33594-14.305l-0.28906-6.1445-6.0234-1.8711-4.7266-1.4648c-0.55078-5.5195-0.96094-11.016-1.1992-16.535-0.33594-8.7852-0.16797-17.566 0.33594-26.328 1.1055-17.496 3.8164-34.848 8.0156-51.793 8.3516-33.938 22.129-66.359 39.648-96.457 2.1602-3.793 4.4883-7.4648 6.7695-11.184 2.3516-3.6719 4.6562-7.3438 7.1289-10.945 1.2227-1.8008 2.4258-3.625 3.6953-5.3984l3.7695-5.3281 3.8633-5.2578c0.64844-0.88672 1.2969-1.7539 1.9688-2.6172l3.9844-5.1875 2.0391-2.543c1.3672-1.6797 2.7109-3.4062 4.1055-5.0898 2.7617-3.3594 5.5938-6.6719 8.4727-9.9844l17.52-19.945c5.8789-6.7188 11.711-13.586 17.281-20.762 5.5938-7.1523 10.824-14.734 15.574-22.609 4.7539-7.8711 8.9297-16.078 12.527-24.527 0.96094-2.0898 1.7773-4.2227 2.6172-6.3594l1.2734-3.1914 1.1523-3.2383c0.74219-2.1602 1.5352-4.3203 2.1836-6.5273l1.0078-3.2891c0.33594-1.1055 0.69531-2.1836 0.98438-3.2891 5.0156-17.641 7.6328-35.902 7.9453-54.145 0.16797-9.1211-0.35937-18.266-1.4141-27.289-0.41797-4.625-1.1367-9.1094-1.9297-13.598zm-365.28 468.17c0.45703-1.9219 1.5117-3.5273 2.9766-4.6094 1.4648-1.1055 3.2383-1.8242 5.1133-2.2812 1.8711-0.45703 3.8633-0.67187 5.8555-0.71875 1.9922-0.070312 4.0078 0.023438 5.9766 0.23828l6.3359 0.69531 6.3828 0.67188c4.2461 0.45703 8.5195 0.86328 12.77 1.2969 17.016 1.6328 34.105 3 51.098 4.2227 16.969 1.2461 33.816 2.5195 50.352 4.6797 8.2812 1.0781 16.465 2.3516 24.551 3.9102 4.0547 0.74219 8.0625 1.6328 12.07 2.5938l2.9766 0.74219c0.98438 0.23828 1.9922 0.45703 2.9766 0.74219l0.070313 0.023438c0.43359 6.8398 0.67188 13.68 0.67188 20.543 0 2.1367-0.046875 4.2461-0.097656 6.3828-2.8555-2.8086-6.0469-5.3516-9.4336-7.5352-8.0391-5.2305-16.992-8.9023-26.062-11.496-2.2812-0.67188-4.5586-1.2227-6.8398-1.8008l-3.457-0.74219-3.3359-0.69531c-4.4414-0.88672-8.9023-1.7539-13.391-2.4961-9-1.5352-18.098-2.8086-27.359-3.5039-2.3281-0.16797-4.6328-0.3125-6.9844-0.40625-2.3281-0.097657-4.6797-0.16797-7.0312-0.16797l-3.2656-0.023438c-1.0078 0-2.0625-0.070312-3.0977-0.070312-1.0547-0.046875-2.1133-0.097656-3.168-0.16797l-3.2383-0.21484c-4.3672-0.33594-8.8789-0.74219-13.586-0.96094-4.7031-0.21484-9.5742-0.26562-14.52 0.23828-1.2461 0.14453-2.4727 0.28906-3.7188 0.48047l-1.8477 0.33594-0.9375 0.16797-0.91016 0.21484-1.8242 0.43359c-0.60156 0.14453-1.1992 0.33594-1.8008 0.50391s-1.1992 0.33594-1.7773 0.55078l-1.7266 0.625c-2.3047 0.83984-4.5586 1.7773-6.7422 2.832-1.0781 0.52734-2.1602 1.1289-3.2148 1.6797-1.0547 0.60156-2.0898 1.1992-3.1211 1.8242-4.0547 2.5938-7.8477 5.5938-11.113 9.0703-1.3438 1.4141-2.5938 2.9297-3.7188 4.4883-0.16797-1.5586-0.3125-3.1211-0.48047-4.6562-0.88672-9.168-1.5859-18.383-2.4492-27.672zm185.42 86.59c-0.40625 2.2305-0.74219 4.4883-1.1758 6.6719-0.21484 1.0781-0.38281 2.1836-0.625 3.2656-4.0312-3.8164-8.3516-7.3203-12.887-10.559-7.0547-4.9688-14.617-9.2891-22.535-12.84-7.9219-3.5742-16.246-6.4062-24.742-8.4492-8.4727-2.0625-17.09-3.4062-25.68-4.1523-8.5938-0.76953-17.184-0.96094-25.703-0.74219-8.5195 0.21484-16.992 0.86328-25.367 1.8008-2.0898 0.23828-4.1992 0.50391-6.2891 0.74219l-3.1211 0.43359-1.5586 0.21484-0.9375 0.14453c-0.33594 0.046875-0.67188 0.097657-0.98438 0.16797-2.5664 0.50391-4.8242 1.2734-6.9844 2.1836-2.1602 0.9375-4.1992 1.9922-6.1445 3.1914-3.8633 2.3984-7.4414 5.2305-10.367 8.7344-0.097656 0.12109-0.19141 0.23828-0.28906 0.33594l-0.64844-2.8086c-0.48047-2.1836-0.91016-4.3906-1.3906-6.6016-0.83984-4.4414-1.6094-8.9023-2.3047-13.391-0.96094-6.3359-1.7266-12.719-2.4258-19.152 5.5938-4.2461 11.809-7.1758 18.168-9.3594l3.0469-0.96094c1.0312-0.26562 2.0391-0.57422 3.0703-0.81641 2.0625-0.48047 4.1055-0.96094 6.168-1.2461l1.5352-0.23828 1.5352-0.16797c0.50391-0.046875 1.0078-0.12109 1.5352-0.16797l1.5117-0.097656 0.74219-0.046875 0.74219-0.023437 1.5117-0.023438c1.0078 0 2.0156 0.023438 3.0234 0.046875 4.0781 0.19141 8.2305 0.69531 12.504 1.3438 4.2969 0.64844 8.7109 1.4414 13.32 2.0898 2.3047 0.33594 4.6562 0.60156 7.0547 0.83984 1.2227 0.097657 2.3984 0.21484 3.6484 0.23828l3.5039 0.14453c2.1602 0.070313 4.3203 0.16797 6.5039 0.3125 2.1602 0.12109 4.3438 0.26562 6.5273 0.43359 8.7344 0.64844 17.543 1.5859 26.449 2.4961l13.391 1.3438 6.5742 0.625c2.1367 0.23828 4.2969 0.48047 6.4336 0.79297 4.2734 0.60156 8.5195 1.3203 12.719 2.2305 4.1758 0.96094 8.3281 2.0898 12.383 3.5273 4.4883 1.5586 8.8555 3.5508 13.008 6.0469-0.21484 4.8477-0.55078 9.6953-1.0078 14.543-0.80078 9-1.9531 17.977-3.4414 26.902zm-25.152 60.625c-1.5352 1.5859-3.2656 2.9531-4.9688 4.3438-0.88672 0.64844-1.8008 1.2461-2.7109 1.8945-0.88672 0.64844-1.8242 1.2227-2.7852 1.7773-3.8398 2.1836-7.9688 3.9609-12.238 5.3516-4.2734 1.4414-8.6875 2.4961-13.176 3.4336-8.9766 1.8242-18.047 3-27 2.7344-4.4648-0.14453-8.8555-0.625-13.129-1.5586-4.2461-0.9375-8.3984-2.2812-12.359-3.9609-3.9844-1.6797-7.7773-3.7422-11.375-6.0977-3.625-2.3281-7.0547-4.9219-10.32-7.7031-6.5273-5.5664-12.336-12-17.496-18.887-0.96094-1.2969-1.8945-2.5938-2.8086-3.9375 0.28906-0.12109 0.57422-0.23828 0.86328-0.35938 1.4414-0.52734 2.9023-1.0312 4.3672-1.4414 1.4648-0.40625 2.9297-0.79297 4.3672-1.0078 0.69531-0.12109 1.3906-0.21484 2.0391-0.26562 0.625-0.046876 1.2461-0.023438 1.4648 0.070312 1.5859 0.16797 3.168 0.3125 4.7539 0.45703 3.168 0.23828 6.3359 0.60156 9.4805 0.86328 12.574 1.1523 24.984 2.5938 37.344 4.2969 12.359 1.7031 24.695 3.7188 37.129 6.0234 3.0977 0.60156 6.2383 1.1055 9.3594 1.7539 1.5586 0.3125 3.1445 0.57422 4.7031 0.86328 1.5586 0.3125 3.1445 0.625 4.7266 0.91016 1.5859 0.28906 3.1914 0.57422 4.7773 0.88672 1.5859 0.28906 3.1914 0.625 4.8008 0.88672 1.6094 0.26562 3.2148 0.60156 4.8477 0.88672 0.60156 0.097656 1.1992 0.19141 1.8008 0.28906-0.64844 0.88672-1.3438 1.7539-1.9922 2.6406-1.4648 1.6641-2.832 3.3906-4.4648 4.8555zm21.914-44.062c-0.26562 1.0781-0.50391 2.1836-0.81641 3.2656l-0.86328 3.2383-0.96094 3.2148c-0.16797 0.52734-0.3125 1.0781-0.48047 1.6094l-0.52734 1.5859c-0.35938 1.0547-0.69531 2.1133-1.1055 3.1445l-1.1992 3.1211c-0.38281 1.0547-0.88672 2.0391-1.3203 3.0469l-0.67188 1.5352c-0.21484 0.50391-0.48047 0.98438-0.71875 1.4883-0.50391 0.98438-0.98438 1.9922-1.4883 2.9766-1.0781 1.9219-2.1602 3.8633-3.4062 5.6875-0.28906 0.48047-0.60156 0.9375-0.91016 1.3906-4.4883-3.5742-9.2656-6.7188-14.23-9.5273-1.4414-0.81641-2.9023-1.6328-4.3672-2.4258-1.4648-0.76953-2.9766-1.4883-4.4648-2.207-1.5117-0.71875-3-1.4648-4.5117-2.0898-1.5352-0.64844-3.0469-1.2969-4.6094-1.9219-12.336-4.9688-25.344-8.2578-38.52-10.129-1.6562-0.21484-3.2891-0.45703-4.9453-0.64844l-4.9688-0.45703-2.4961-0.19141c-0.83984-0.046874-1.6562-0.097656-2.4961-0.12109-1.6562-0.070313-3.3359-0.14453-4.9922-0.19141-1.6562-0.070312-3.3359-0.023437-4.9922-0.023437-1.6562 0.023437-3.3359 0.046875-4.9922 0.097656-1.6562 0.097657-3.3125 0.19141-4.9922 0.3125-1.6562 0.12109-3.3125 0.21484-4.9688 0.43359-3.3125 0.38281-6.6016 0.74219-9.8633 1.3906-1.6328 0.28906-3.2656 0.60156-4.8945 0.91016-1.3906 0.23828-2.3516 0.60156-3.2891 0.98438-0.91016 0.38281-1.7539 0.81641-2.543 1.2734-3.168 1.8008-5.9297 3.9102-8.4258 6.4062-0.21484 0.21484-0.43359 0.45703-0.64844 0.67188-0.67188-1.0312-1.3203-2.0898-1.9688-3.1445-0.55078-0.9375-1.0781-1.8711-1.6328-2.8086l-1.5586-2.8555c-0.98438-1.9219-1.9453-3.8633-2.8555-5.832-3.4062-7.5352-6.0977-15.527-8.2578-23.785 0.74219-0.55078 1.4883-1.0547 2.2812-1.5352 3.3594-2.0156 7.0078-3.5273 10.727-4.6328 1.8477-0.55078 3.7188-1.0312 5.543-1.3203 0.91016-0.16797 1.8242-0.28906 2.7109-0.38281 0.86328-0.070313 1.7539-0.12109 2.5195-0.097657 0.21484 0 0.38281 0.023438 0.57422 0.023438l0.64844 0.046875 1.5586 0.097656 3.1211 0.16797 6.2383 0.28906c16.633 0.69531 33 1.1289 49.078 2.543 8.0391 0.69531 16.008 1.6562 23.879 2.9766 7.8711 1.3203 15.672 3.0469 23.449 5.1602 3.8867 1.0547 7.7539 2.2578 11.617 3.4805l2.9023 0.96094 2.8789 1.0078 1.4648 0.50391 1.4414 0.52734 2.8789 1.0781c3.8633 1.4414 7.6797 3.0234 11.543 4.6094 1.5352 0.64844 3.0703 1.3203 4.6094 1.9922-0.20703 0.98828-0.49609 2.0195-0.71094 3.0781zm174.29-531c-0.57422 8.5938-1.6328 17.113-3.2656 25.559-1.5586 8.4258-3.6719 16.777-6.2656 24.91-5.2305 16.297-12.266 32.016-21.191 46.559-8.832 14.566-19.777 27.961-31.223 41.328-5.7344 6.6953-11.617 13.32-17.375 20.184-2.8789 3.4336-5.7617 6.8867-8.5664 10.414-1.4141 1.7539-2.7852 3.5508-4.1758 5.3281l-2.0625 2.6875-2.0156 2.7109c-1.3438 1.8242-2.7109 3.6016-4.0078 5.4727l-3.8867 5.543c-1.2734 1.8477-2.5195 3.7422-3.793 5.6172-1.2734 1.8711-2.4727 3.7695-3.6953 5.6641-2.4727 3.7695-4.7773 7.6562-7.1289 11.496-2.2578 3.9102-4.5352 7.8008-6.6719 11.762-2.207 3.9375-4.2227 7.9688-6.3125 11.953-1.9688 4.0547-3.9844 8.0898-5.832 12.191-1.9219 4.0781-3.625 8.2578-5.3984 12.383-1.6797 4.1758-3.3828 8.3516-4.8945 12.602-0.79297 2.1133-1.5586 4.2227-2.2812 6.3594-0.71875 2.1367-1.4648 4.2461-2.1602 6.4062l-2.0156 6.457-0.50391 1.6094-0.45703 1.6328-0.91016 3.2383c-2.4258 8.6641-4.5586 17.426-6.1914 26.281-1.6562 8.8555-3.0469 17.734-3.8164 26.688-0.81641 8.9531-1.3203 17.93-1.1992 26.902v1.6797l0.046875 1.6797 0.24219 6.7188c0.046876 1.1289 0.14453 2.2305 0.21484 3.3594l0.21484 3.3594c0.070312 1.1289 0.12109 2.2305 0.26562 3.3359l0.69531 6.6719c0.625 5.1602 1.4414 10.273 2.3984 15.359-1.7266-0.50391-3.457-0.96094-5.1836-1.4141-1.0781-0.28906-2.1367-0.55078-3.2148-0.81641l-3.2383-0.76953c-2.1602-0.52734-4.3203-0.96094-6.4805-1.3906-8.6641-1.7266-17.375-2.9531-26.09-3.8398-8.7109-0.88672-17.398-1.3906-26.039-1.6797-4.3203-0.12109-8.6406-0.23828-12.938-0.28906-2.0391-0.023437-4.0781-0.023437-6.1211-0.046875 1.6094-12.383 2.8789-24.742 4.1523-37.078 1.4883-14.496 2.8086-28.992 4.1055-43.465 0.69531-7.2461 1.2461-14.496 1.9219-21.719l1.8242-21.719 0.91016-10.848 0.8125-10.852c0.26562-3.625 0.50391-7.2461 0.69531-10.871l0.33594-5.4492 0.28906-5.4492c0.55078-9.793 0.88672-19.586 1.2734-29.398 0.43359-0.046875 0.83984-0.097656 1.2734-0.14453 0.48047-0.046874 0.96094-0.19141 1.4141-0.33594 0.45703-0.14453 0.9375-0.28906 1.3672-0.45703 0.35937-0.16797 0.74219-0.33594 1.1055-0.52734 0.45703-0.097656 0.9375-0.21484 1.3906-0.33594 2.2812-0.625 4.5352-1.5117 6.6719-2.6641 2.1367-1.1523 4.1758-2.5938 5.9766-4.1992 3.625-3.2148 6.3125-7.1758 8.3047-11.207 1.9453-4.0547 3.2383-8.207 4.0781-12.336 0.83984-4.1523 1.2734-8.1602 1.4141-12.266 0.26562-8.1602-0.69531-16.391-2.9531-24.289l-0.43359-1.4883-0.21484-0.74219-0.26562-0.79297c-0.35938-1.0781-0.76953-2.1367-1.1992-3.168-0.86328-2.0898-1.8711-4.1055-3.0703-6.0469-1.1992-1.9688-2.5664-3.8633-4.1758-5.6875-1.6094-1.8242-3.4805-3.5742-5.6875-5.1367-1.1289-0.76953-2.3047-1.4883-3.6016-2.1133s-2.6875-1.1523-4.1523-1.5586c-1.4648-0.38281-3-0.64844-4.5586-0.74219-1.5586-0.070312-3.1211-0.023437-4.6328 0.21484-2.9023 0.40625-5.9531 1.4883-8.6172 3.1445-1.3438 0.81641-2.543 1.8008-3.6719 2.832-1.0547 1.0547-2.0625 2.1836-2.8555 3.3359-0.33594 0.48047-0.64844 0.96094-0.96094 1.4414-0.23828-0.070312-0.48047-0.16797-0.71875-0.23828-1.9219-0.57422-3.9375-0.9375-5.9766-1.1055-2.0391-0.14453-4.1289-0.046874-6.2148 0.38281-2.0898 0.43359-4.1523 1.2227-6.0469 2.3984-1.8945 1.1758-3.5742 2.7617-4.8242 4.6328-1.2734 1.8477-2.1602 3.9102-2.7344 5.9297-0.57422 2.0391-0.88672 4.0547-1.1055 6-0.21484 1.9453-0.3125 3.793-0.43359 5.6875l-0.12109 2.832c-0.023437 0.9375-0.023437 1.8945-0.046875 2.8555 0 3.8164 0.21484 7.6328 0.71875 11.496 0.50391 3.8398 1.2734 7.7031 2.4492 11.543 1.1758 3.8164 2.7852 7.5859 4.8711 11.16l0.38281 0.67188 0.43359 0.64844 0.83984 1.2969c0.55078 0.88672 1.1992 1.7031 1.8242 2.543 0.3125 0.40625 0.625 0.83984 0.96094 1.2461l1.0781 1.2461 1.1289 1.1992c0.38281 0.38281 0.76953 0.76953 1.1758 1.1289 3.1914 2.9531 6.8164 5.375 10.754 7.2227 2.7109 1.2734 5.5664 2.2578 8.5195 2.9297l-1.2969 7.9688c-1.1523 7.2227-2.2305 14.473-3.1445 21.719-1.8945 14.496-3.1914 29.062-4.0312 43.656-0.9375 14.594-1.5117 29.207-1.8477 43.824-0.3125 14.617-0.28906 29.23 0.070313 43.871 0.35938 12.48 0.91016 24.961 1.9453 37.414h-3.6016c-17.137 0.070312-34.199 0.40625-51.312 0.9375-4.2734 0.14453-8.543 0.28906-12.84 0.48047l-6.4062 0.26562-6.457 0.3125c-4.5586 0.28906-9.0977 1.0781-13.414 3-1.1992 0.55078-2.3984 1.2227-3.5039 2.0156 1.7266-16.465 4.3906-32.785 7.0312-49.176 2.7852-17.52 5.4961-35.137 6.8164-53.062 0.625-8.9531 0.9375-18 0.625-27.07l-0.12109-3.4062-0.21484-3.4062-0.12109-1.7031-0.14453-1.7031-0.3125-3.4062-0.40625-3.4062-0.21484-1.7031c-0.070312-0.57422-0.16797-1.1289-0.26562-1.7031l-0.52734-3.4062c-0.19141-1.1289-0.43359-2.2578-0.625-3.3828-0.38281-2.2812-0.96094-4.5117-1.4648-6.7695-0.57422-2.207-1.1992-4.4141-1.8008-6.625l-0.91016-3.3125c-0.3125-1.1055-0.69531-2.1602-1.0312-3.2656l-2.1367-6.5039c-3.0977-8.5664-6.4805-17.016-10.391-25.176-1.8711-4.1289-3.9375-8.1367-5.9531-12.168-0.50391-1.0078-1.0312-2.0156-1.5586-3l-1.5859-2.9766c-1.0781-1.9688-2.0898-3.9844-3.2148-5.9297-2.1836-3.9102-4.3672-7.8477-6.6016-11.688-2.2305-3.8867-4.4883-7.7266-6.7422-11.543-9.0977-15.312-18.266-30.359-26.664-45.648-1.0547-1.9219-2.0391-3.8398-3.0703-5.7617-1.0078-1.9219-2.0391-3.8164-3.0469-5.8086-2.0156-3.9102-4.0078-7.8477-5.9766-11.785-1.9922-3.9102-3.9102-7.8711-5.832-11.809-0.98438-1.9688-1.8711-3.9609-2.832-5.9297-0.9375-1.9688-1.8945-3.9375-2.7852-5.9297-1.8008-3.9844-3.6484-7.9453-5.3516-11.953-0.86328-1.9922-1.7539-3.9844-2.5938-6l-2.4961-6.0234c-0.40625-1.0078-0.83984-2.0156-1.2227-3.0234l-1.1758-3.0234-2.3516-6.0703-2.207-6.0977-1.1055-3.0469-1.0078-3.0703-2.0156-6.1445-1.8477-6.1914-0.91016-3.0977c-0.28906-1.0312-0.55078-2.0625-0.83984-3.1211l-1.6328-6.2383c-1.9688-8.3281-3.793-16.703-4.9453-25.152-0.71875-4.1992-1.0547-8.4492-1.5352-12.672-0.12109-1.0547-0.19141-2.1133-0.26562-3.168l-0.21484-3.168-0.14453-3.168-0.070313-1.5859-0.023437-1.5859-0.046875-3.168 0.023438-3.168c-0.023438-2.1133 0.097656-4.2227 0.16797-6.3359 0.21484-4.2227 0.50391-8.4258 1.0078-12.625 0.45703-4.1992 1.1055-8.375 1.8477-12.527 0.43359-2.0625 0.76953-4.1523 1.2734-6.1914l0.69531-3.0703 0.76953-3.0469c2.0898-8.1602 4.8711-16.105 8.1836-23.809 1.7031-3.8164 3.5039-7.6094 5.5195-11.258 1.9688-3.6953 4.1758-7.2227 6.4805-10.68 4.6797-6.8867 9.9375-13.344 15.887-19.105 2.9297-2.9297 6.0977-5.5938 9.3359-8.1602l2.4727-1.8477c0.40625-0.3125 0.81641-0.625 1.2461-0.9375l1.2969-0.88672c1.7539-1.1758 3.457-2.4258 5.2578-3.5273 7.1289-4.5859 14.664-8.7109 22.391-12.48 1.9453-0.91016 3.8633-1.8711 5.832-2.7617 1.9688-0.86328 3.9375-1.7773 5.9297-2.6172l5.9766-2.4961 6.0469-2.375c8.0898-3.0703 16.32-5.832 24.648-8.2305 16.656-4.8477 33.602-8.1836 50.93-9.6953 8.6641-0.79297 17.375-1.1992 26.16-1.4141s17.641-0.23828 26.496-0.3125l6.6484-0.046875c1.1055 0 2.2305-0.023437 3.3125 0l3.2656 0.046875 6.5273 0.097656c2.1836 0.070313 4.3438 0.23828 6.5273 0.35938 8.7109 0.43359 17.352 1.6562 25.969 3.0469 17.207 3.0469 34.055 8.0898 50.207 14.902 16.152 6.7422 31.488 15.504 45.602 25.895 14.113 10.367 27.023 22.414 38.062 36 22.199 27.098 37.465 59.711 44.016 93.77 0.45703 2.1133 0.76953 4.2734 1.1523 6.4062 0.35938 2.1367 0.64844 4.2734 0.9375 6.4336 0.52734 4.2969 0.98438 8.5938 1.2461 12.91 0.44531 8.5508 0.51562 17.168-0.082031 25.762zm-235.46 198.91c-0.046875 0-0.070312 0.023437-0.12109 0.023437 0.14453-3.0234 0.28906-6.0703 0.45703-9.0977 0.19141-3.6484 0.43359-7.2461 0.67188-10.922 0.23828-3.6719 0.45703-7.3906 0.45703-11.16 0.046875-3.7695-0.14453-7.5586-0.69531-11.375v-0.070313c0.070313 0.28906 0.16797 0.60156 0.23828 0.91016 0.40625 1.6797 0.79297 3.3828 1.1055 5.0898 0.625 3.4062 1.0547 6.8398 1.2461 10.246 0.19141 3.4336 0.21484 6.8398-0.023437 10.246-0.21484 3.3828-0.625 6.7695-1.2734 10.078l-0.23828 1.2461c-0.070312 0.38281-0.16797 0.67188-0.23828 0.98438-0.19141 0.64844-0.38281 1.2969-0.64844 1.8945-0.28906 0.68359-0.60156 1.332-0.9375 1.9062zm-5.6875-34.488-0.28906-2.7109-0.14453-1.3203c-0.023438-0.38281-0.070313-0.79297-0.097657-1.1758-0.12109-1.5859-0.19141-3.168-0.19141-4.7266 0-1.5859 0.070313-3.168 0.21484-4.7031 0.71875 2.3516 1.1992 4.8008 1.4414 7.2969 0.35938 3.4336 0.28906 6.9375 0.046875 10.441-0.097656 1.1055-0.19141 2.2305-0.33594 3.3594zm20.133 13.777c-0.23828-2.3281-0.52734-4.6328-0.96094-6.9102-0.69531-3.793-1.6328-7.5586-2.8086-11.207-0.60156-1.8242-1.2461-3.625-1.9688-5.3984-0.33594-0.88672-0.74219-1.7773-1.1055-2.6406-0.19141-0.43359-0.38281-0.88672-0.60156-1.3438-0.21484-0.45703-0.45703-0.88672-0.67188-1.3438-1.8477-3.5508-4.1289-6.793-6.8867-9.625-0.50391-0.52734-1.0312-1.0312-1.5586-1.5117 0.14453-0.12109 0.28906-0.23828 0.45703-0.3125 0.43359-0.23828 0.88672-0.43359 1.5859-0.52734 0.28906-0.046876 0.55078-0.046876 0.81641-0.046876 0.26562 0.023438 0.52734 0.070313 0.81641 0.14453 0.57422 0.16797 1.2734 0.48047 2.0625 0.98438 1.5859 1.0312 3.3359 2.9531 4.7539 5.2305 0.71875 1.1523 1.3906 2.375 1.9688 3.625 0.28906 0.625 0.55078 1.2734 0.79297 1.9219l0.16797 0.48047 0.19141 0.57422 0.38281 1.1289c1.8945 6.0469 2.9531 12.434 3 18.84 0.023437 2.6797-0.12109 5.3438-0.43359 7.9375zm-36.094-43.656 0.14453 0.40625c-0.046875 0.097656-0.070313 0.21484-0.12109 0.3125-0.86328 2.3047-1.4141 4.5859-1.8242 6.793-0.79297 4.4141-0.96094 8.6641-0.81641 12.816 0.070313 2.0625 0.23828 4.1289 0.50391 6.168 0.046876 0.50391 0.14453 1.0312 0.21484 1.5352l0.21484 1.3906 0.40625 2.7109 1.6797 10.801c0.57422 3.6016 1.1289 7.1992 1.7031 10.801l0.88672 5.3984 0.43359 2.6875c-1.6328-0.81641-3.168-1.7773-4.6094-2.8789l-0.86328-0.67188-0.83984-0.71875-0.79297-0.74219c-0.26562-0.26562-0.52734-0.55078-0.79297-0.83984-0.52734-0.57422-1.0781-1.1289-1.5586-1.7539l-0.74219-0.91016-0.38281-0.45703-0.33594-0.48047c-1.8711-2.543-3.4805-5.375-4.8008-8.3984s-2.3516-6.2383-3.168-9.5508c-0.79297-3.3125-1.3438-6.7422-1.7031-10.223-0.070312-0.86328-0.16797-1.7266-0.23828-2.6172l-0.16797-2.6172c-0.046875-1.7539-0.12109-3.5508-0.070312-5.2305 0.046875-3.3828 0.52734-6.4805 1.9688-8.9023 0.69531-1.2227 1.6562-2.2305 2.8086-3.0469 1.1523-0.83984 2.4961-1.4648 3.9609-1.8242 2.8047-0.77344 5.9258-0.67969 8.9023 0.042969z"/>
  <path d="m1057.2 356.47c-4.4414 1.3438-8.375 2.7852-12.48 3.8164-4.0078 1.1523-8.0156 2.0391-11.953 2.9766-1.0078 0.19141-2.0156 0.40625-3 0.625l-1.4883 0.33594-1.5117 0.28906c-1.0078 0.19141-1.9922 0.40625-2.9766 0.625l-3.0234 0.60156c-4.0078 0.83984-8.0898 1.6328-12.168 2.5938-4.1055 0.96094-8.1836 2.1133-12.336 3.457-2.0625 0.67188-4.1289 1.4141-6.1914 2.1367-2.0625 0.74219-4.1523 1.5586-6.2383 2.3281l-3.1211 1.2461c-1.0312 0.40625-2.0898 0.83984-3.1211 1.2734-2.0625 0.88672-4.1055 1.8711-6.0703 2.9531-3.9609 2.1133-7.7031 4.6562-11.398 7.1523-3.6953 2.4961-7.3438 4.9688-11.137 7.0547-3.793 2.0898-7.6797 3.9609-11.734 5.3984-4.0547 1.4414-8.3516 2.3984-12.719 3.168-4.3438 0.81641-8.7617 1.4883-12.938 2.6875-4.1992 1.1523-8.1602 2.8086-12 4.7539-3.8398 1.9219-7.6328 4.0078-11.328 6.2891s-7.2969 4.7539-10.777 7.5117c-3.4805 2.7852-6.8633 5.6875-9.9844 9.2656l0.81641 1.8242c4.7539 0.070312 9.1914-0.52734 13.559-1.2734 4.3672-0.76953 8.6172-1.8242 12.77-3.0469 4.1523-1.2227 8.2305-2.6641 12.238-4.2461 4.0078-1.5586 7.8945-3.4062 11.543-5.7852 3.6719-2.3281 7.1055-5.1602 10.609-7.8711 3.4805-2.7344 7.0547-5.3047 10.824-7.3906 3.793-2.0898 7.7539-3.7422 11.832-5.1133 4.0781-1.3672 8.3281-2.3047 12.602-3.0469s8.543-1.3438 12.672-2.1133c4.1523-0.71875 8.1367-1.6797 12.215-2.4727l12.457-2.3281c4.1758-0.83984 8.4258-1.8242 12.625-3.1211 4.2227-1.3203 8.3984-2.8555 12.574-4.7266 1.0312-0.48047 2.0625-0.9375 3.0977-1.4141 1.0312-0.50391 2.0625-1.0312 3.0703-1.5586l1.5117-0.81641c0.50391-0.28906 1.0078-0.57422 1.5117-0.86328 1.0078-0.57422 1.9922-1.1992 2.9766-1.8008 0.98437-0.625 1.9453-1.2969 2.9023-1.9688 0.96094-0.69531 1.9219-1.3203 2.832-2.0898 0.91016-0.74219 1.8242-1.4883 2.7109-2.2305l0.67188-0.57422 0.64844-0.60156c0.43359-0.40625 0.86328-0.81641 1.2734-1.2227 3.3828-3.2383 6.2891-7.0547 8.4961-11.16z"/>
  <path d="m871.27 217.66 5.4258-4.6094c0.88672-0.76953 1.7773-1.5586 2.6406-2.3516 0.88672-0.79297 1.7773-1.5586 2.6406-2.375l2.5938-2.4258 2.6406-2.3984c1.7539-1.6094 3.5273-3.1914 5.3047-4.7773 1.7773-1.6094 3.5508-3.1914 5.3281-4.8242 3.5273-3.2656 7.0078-6.6484 10.273-10.273 3.2891-3.6016 6.4336-7.4414 9.4062-11.398 0.74219-1.0078 1.4883-2.0156 2.207-3.0234 0.71875-1.0078 1.4648-2.0156 2.1602-3.0703 0.69531-1.0547 1.3906-2.1133 2.0625-3.168 0.67188-1.0547 1.3672-2.0898 1.9922-3.2148 1.2734-2.207 2.5195-4.3906 3.6719-6.6484 1.1055-2.3047 2.207-4.5859 3.1914-6.9375 0.91016-2.3984 1.8242-4.7773 2.5938-7.1992 0.69531-2.4961 1.3203-4.9688 1.7773-7.4883l-1.7539-0.98438c-2.0156 1.6094-3.8633 3.2891-5.6406 4.9453-1.8711 1.6094-3.6719 3.2148-5.4492 4.8477-0.88672 0.79297-1.8008 1.5859-2.7109 2.375l-2.6406 2.375c-1.7773 1.5859-3.6016 3.0977-5.3281 4.7031-1.7773 1.5586-3.5742 3.0977-5.3047 4.6797-1.7539 1.5586-3.5508 3.1211-5.2812 4.7031-3.5039 3.168-7.0078 6.3359-10.414 9.6719-3.4062 3.3359-6.7188 6.8164-9.9102 10.488-1.6094 1.8008-3.168 3.6953-4.7266 5.5664-1.5586 1.8711-3.1211 3.793-4.6562 5.7109l-2.3281 2.8789-2.2812 2.9531c-0.74219 0.98438-1.4883 1.9922-2.2305 3-0.71875 1.0312-1.3906 2.0898-2.0898 3.1445-0.69531 1.0312-1.3438 2.1133-2.0156 3.168-0.64844 1.0781-1.2461 2.1836-1.8711 3.3125l-1.8008 3.3359c-0.60156 1.1055-1.1289 2.2812-1.7031 3.3828l-3.3828 6.7188c-1.1055 2.2305-2.207 4.4414-3.3828 6.6016-1.1523 2.1602-2.3516 4.2734-3.625 6.3594-1.2461 2.0898-2.5664 4.1055-3.9844 6.0703-2.8086 3.9375-6.0703 7.6094-9.5273 11.039-3.4336 3.457-7.0312 6.7188-10.223 10.223-1.6328 1.7266-3.1445 3.5273-4.6094 5.375-0.35938 0.45703-0.71875 0.9375-1.0781 1.3906-0.35938 0.45703-0.71875 0.9375-1.0547 1.4141l-2.0391 2.8555c-2.7109 3.8398-5.375 7.7266-7.9453 11.711-2.5938 3.9844-5.0898 8.0625-7.5117 12.289-2.375 4.2461-4.7539 8.5664-6.7422 13.391l1.4141 1.4141c4.8242-2.0156 9.1211-4.6797 13.246-7.5586 4.1055-2.8789 7.9453-6.0977 11.566-9.5039 3.625-3.4062 7.0078-7.0547 10.152-10.895 3.168-3.8164 6.0234-7.8711 8.3047-12.312 2.3281-4.4141 4.0781-9.1914 5.832-13.871 1.7266-4.7031 3.457-9.3125 5.6875-13.609 2.207-4.2969 4.8008-8.3281 7.7266-12.121 1.4648-1.8945 3.0469-3.6953 4.6797-5.4258 1.6328-1.7266 3.4336-3.3359 5.1836-4.9453 0.88672-0.79297 1.7539-1.6094 2.6875-2.375z"/>
  <path d="m596.64 82.824c0.26562 4.6797 0.76953 9.3359 1.4414 13.992 0.625 4.6562 1.3672 9.3125 2.1133 13.969l1.0312 6.9844c0.35938 2.3281 0.79297 4.6562 1.2969 6.9844 0.91016 4.6562 2.1602 9.2891 3.3125 13.969 1.1055 4.6562 2.1133 9.3359 2.6875 14.039 0.52734 4.7031 0.76953 9.4336 0.55078 14.137-0.26562 4.7266-1.0781 9.457-2.0625 14.184-1.0078 4.7266-2.1602 9.4336-2.7617 14.137-0.69531 4.7031-0.83984 9.3828-0.67188 14.09 0.097656 4.7031 0.35938 9.4062 0.83984 14.113 0.43359 4.7031 1.0781 9.4336 2.0156 14.184 0.91016 4.7539 1.9688 9.5039 3.7695 14.328l2.0156 0.097656c2.1836-4.6328 3.6719-9.3359 4.9922-14.039 1.2227-4.7031 2.1602-9.457 2.8789-14.184 0.67188-4.7539 1.1055-9.5039 1.3906-14.281 0.23828-4.7773 0.16797-9.5273-0.48047-14.305s-1.8477-9.5273-2.9023-14.258c-1.1523-4.7539-2.1367-9.4805-2.543-14.207-0.48047-4.7266-0.52734-9.4805-0.26563-14.23 0.19141-4.7539 0.81641-9.5273 1.5352-14.328 0.67188-4.8008 1.4141-9.6016 1.8242-14.398 0.19141-2.3984 0.3125-4.8008 0.38281-7.1758l0.12109-7.1758c0.023437-4.7773 0.046875-9.5742-0.046875-14.352-0.16797-4.7773-0.48047-9.5508-1.0547-14.281-0.625-4.7266-1.4414-9.457-2.375-14.16-1.0078-4.6797-2.1367-9.3594-3.4336-14.016-1.3438-4.6328-2.832-9.2383-4.5117-13.824-1.7773-4.5586-3.6484-9.0977-6.0469-13.535l-1.9922 0.28906c-1.1055 4.9453-1.7031 9.7695-2.1836 14.594-0.52734 4.8242-0.83984 9.6016-1.0078 14.352-0.23828 4.7539-0.28906 9.5039-0.23828 14.207-0.078125 4.7188 0.042969 9.4219 0.37891 14.102z"/>
  <path d="m269.62 109.44c2.0391 5.1836 4.1992 10.297 6.5039 15.359 2.3984 4.9922 4.9219 9.9375 7.6328 14.785 2.7852 4.7773 5.8086 9.4336 8.9297 14.016 3.2383 4.4883 6.6016 8.9297 9.9375 13.344l5.1602 6.5273c0.86328 1.0781 1.7539 2.1602 2.6406 3.2148s1.8008 2.1133 2.7109 3.1445c3.7695 4.1055 7.7773 8.0156 11.711 11.93 4.0312 3.8633 7.9922 7.7539 11.594 11.902 3.6953 4.0781 7.1523 8.3281 10.273 12.863 3.2148 4.4414 6 9.2656 8.6641 14.207 2.7852 4.8477 5.4961 9.793 8.6172 14.398 3.1914 4.5586 6.793 8.7344 10.656 12.719 3.9102 3.9102 7.9688 7.6797 12.145 11.305 4.2969 3.5273 8.7109 6.9375 13.32 10.078 4.7266 3.0469 9.5273 5.9766 14.832 8.3516l1.3906-1.4648c-2.5195-5.2578-5.5195-9.9375-8.6172-14.52-3.0234-4.6328-6.2656-9.0469-9.625-13.297-3.2891-4.3438-6.7188-8.5195-10.273-12.574-3.457-4.1523-7.1289-8.0898-11.23-11.664-3.9844-3.6719-8.3984-7.0078-12.719-10.465-4.2734-3.5039-8.3984-7.1289-12.121-11.113-3.625-4.0547-6.9102-8.3984-9.9609-12.91-2.9531-4.5859-5.5664-9.4336-8.0625-14.305-2.3984-4.9453-4.7539-9.9375-7.3438-14.688-0.625-1.1992-1.2461-2.4258-1.8945-3.6016-0.64844-1.1992-1.2969-2.375-1.9688-3.5508l-4.0781-7.0078c-2.6172-4.7266-5.2305-9.457-7.9453-14.113-2.6172-4.7031-5.375-9.3359-8.3516-13.824-2.8555-4.5586-5.9023-9.0234-9.0469-13.414-3.0469-4.4648-6.2148-8.8555-9.5273-13.199-3.1914-4.4141-6.5273-8.7617-10.078-13.031-3.457-4.3203-7.0078-8.5938-11.062-12.695l-1.8008 0.88672c0.86328 5.6641 2.2305 11.137 3.6953 16.559 1.5703 5.3359 3.3711 10.613 5.293 15.848z"/>
  <path d="m338.93 384.34 0.71875-1.8711c-3.625-3.5273-7.4648-6.3828-11.352-9.1211-3.9102-2.6875-7.8711-5.1602-11.93-7.4414-4.0547-2.2812-8.1602-4.3906-12.336-6.3594-2.0898-0.96094-4.1758-1.9453-6.3359-2.7617-2.1602-0.81641-4.3438-1.5586-6.5742-2.1836-4.4648-1.2969-9.168-2.0898-13.801-3.0469-4.6562-0.91016-9.2383-2.0625-13.559-3.7188-4.3438-1.6562-8.4961-3.7188-12.48-6.0977-3.9844-2.375-7.7539-5.1602-11.426-8.0625-3.6484-2.9297-7.1992-5.9531-10.824-8.7344-1.8008-1.4141-3.625-2.7852-5.4492-4.1055-1.8477-1.3203-3.6484-2.6406-5.4727-4.0078l-2.7109-2.0391-2.6875-2.0898c-1.8008-1.3438-3.6016-2.8086-5.4258-4.1758-3.6484-2.7852-7.3906-5.4492-11.352-7.9688-7.8711-4.9922-16.344-9.5273-25.391-13.105-1.1289-0.45703-2.2578-0.88672-3.4062-1.2969-1.1523-0.40625-2.2812-0.81641-3.457-1.1992-2.3516-0.69531-4.6797-1.4414-7.1055-1.9688-1.1992-0.26562-2.3984-0.55078-3.6016-0.76953-1.2227-0.21484-2.4492-0.40625-3.6719-0.57422-0.60156-0.097657-1.2227-0.16797-1.8242-0.23828-0.625-0.046876-1.2461-0.097657-1.8711-0.14453-1.2461-0.097656-2.4727-0.14453-3.7188-0.14453l-0.69531 1.8711c3.6719 3.3359 7.3203 6.1914 10.824 9.2656l10.488 8.8555c0.86328 0.74219 1.7266 1.4883 2.6172 2.1836l2.6172 2.1836 5.2812 4.3438c3.5508 2.8789 7.1289 5.7109 10.871 8.4492 3.7188 2.7344 7.6562 5.2812 11.688 7.7031 4.0781 2.3984 8.2305 4.7031 12.527 6.9102 4.2734 2.2305 8.543 4.4141 13.055 6.0977 4.4648 1.7539 9.1211 3.0977 13.703 4.4414 4.5859 1.3438 9.1445 2.6875 13.512 4.3672 2.1836 0.83984 4.3438 1.7266 6.457 2.7109 2.1133 0.96094 4.1992 2.0156 6.2148 3.168 2.0391 1.1523 4.0078 2.3984 5.9766 3.7422 0.98437 0.67188 1.9453 1.3672 2.9023 2.0625 0.96094 0.69531 1.9219 1.4141 2.8555 2.1367 3.8164 2.8789 7.6094 5.8555 11.641 8.3047 4.0078 2.4961 8.2812 4.4648 12.648 6.0703 4.3672 1.6562 8.832 3.1211 13.367 4.3672 4.5586 1.2227 9.168 2.2578 13.895 2.9766 4.7305 0.70313 9.5547 1.207 14.598 1.0156z"/>
 </g>
</svg>
