<?xml version="1.0" encoding="UTF-8"?>
<svg width="1200pt" height="1200pt" version="1.1" viewBox="0 0 1200 1200" xmlns="http://www.w3.org/2000/svg">
 <g>
  <path d="m964.92 606c5.6406-2.8789 11.879-5.3984 17.641-7.8008 8.7617-3.6016 17.879-7.1992 25.922-12.602 35.641-24 53.52-54.48 54.602-92.879v-0.60156l-0.23828-1.0781c-1.3203-3.7188-2.5195-7.3203-3.7188-11.039l-0.35938-1.1992-1.4414 0.48047 1.3203-0.83984c-3-9.2383-6.1211-18.719-10.078-27.84-6.6016-15.238-18.719-22.922-38.281-23.879-30.84-1.6797-57.602 9.7188-84.48 22.559-14.16 6.7188-20.762 19.078-18 33.602 1.0781 5.7617 2.3984 11.52 3.6016 17.16 2.0391 9.2383 4.0781 18.719 5.3984 28.078 0.71875 5.0391 2.0391 10.078 3.3594 15 3.3594 12.48 6.4805 24.238-1.5586 36.238-3.7188 5.3984 3.1211 15.84 6.9609 18.84 7.0781 5.5195 15.602 11.52 25.68 11.52 4.5586 0 9.1211-1.1992 13.801-3.6016zm-11.52-115.32c-0.35938-1.9219 2.1602-6.4805 3-6.9609 19.199-6.6016 35.039-10.922 49.441-13.559 1.3203 0.23828 6.8398 5.0391 7.8008 8.2812 8.1602 27.719-6.2383 57.961-33.48 70.32-4.0781 1.8008-8.1602 3.6016-12.719 5.5195l-1.0781 0.48047-2.7617-12.84c-3.8398-17.641-7.4414-34.441-10.32-51.238z"/>
  <path d="m1137.5 454.8c-3.2383-35.879-21.84-64.922-52.32-81.961-33.359-18.602-73.801-21.359-116.88-8.1602-22.32 6.8398-42.961 17.398-64.922 28.441l-0.83984 0.35938c-8.1602 4.0781-16.559 8.3984-24.961 12.359-1.5586-2.0391-3.3594-4.6797-4.9219-7.4414-4.1992-7.1992-8.2812-14.398-12.359-21.719-5.0391-8.8789-10.68-18.961-16.441-28.801-8.5195-14.52-19.922-20.52-34.801-18.48-12.121 1.6797-24.238 3.1211-36 4.4414-23.281 2.6406-47.281 5.3984-70.68 10.441-21.961 4.6797-43.801 11.641-64.801 18.238l-0.71875 0.23828c-12.961 4.0781-26.281 8.2812-39.602 12-14.398 3.9609-21.121 13.32-19.922 27.84l0.83984 10.32c2.0391 26.52 4.1992 54.121 7.8008 81.238 2.2812 17.281 5.7617 35.039 9.1211 52.199 1.3203 6.7188 2.6406 13.559 3.9609 20.762l-26.879-1.4414c-25.441-1.3203-49.559-2.6406-73.441-4.3203-9.6016-0.71875-13.078-4.9219-14.281-17.762-1.4414-16.801-6.8398-34.68-15.48-51.719-11.641-23.039-44.52-34.32-70.32-24.238-30.84 12.121-43.922 40.559-55.441 65.641-21.84 47.762-28.078 100.08-18.359 155.76 6.3594 36.48 23.16 66.121 49.801 88.078 19.078 15.602 37.078 20.398 55.199 14.398 40.68-13.32 64.801-39.359 71.641-77.641 0.83984-4.6797 1.0781-9.7188 1.3203-14.879 0.48047-8.8789 0.96094-18.121 4.9219-22.199 4.3203-4.4414 14.039-5.1602 23.52-6 4.3203-0.35938 9.1211-0.71875 14.16-1.6797 2.8789-0.48047 5.6406-0.96094 8.0391-0.83984 6.1211 0.35938 10.922 0.35938 14.879 0.35938 6.8008 0 10.559 5.4805 11.281 16.441l0.48047 6.8398c0.35938 5.3984 0.23828 11.281 0.23828 16.078v0.83984c0 4.9219-0.12109 9.9609 0.12109 15 2.2812 37.801 4.5586 76.801 20.039 114.12 6.9609 16.801 16.559 25.559 32.16 29.281 14.039 3.3594 29.039 4.9219 46.199 4.9219 18.602 0 37.199-1.9219 55.199-3.7188l2.2812-0.23828c5.7617-0.60156 11.398-1.1992 17.16-1.6797 55.68-5.0391 113.4-19.32 181.56-45 23.16-8.7617 30.602-19.441 30.719-44.039v-69.238-26.762c1.5586 0 2.8789 0 4.0781 0.12109 78 12 131.88-52.32 147.48-95.762 17.16-47.52 23.641-90.48 19.922-131.28zm-220.44 212.64c1.5586 20.879 2.0391 42 2.3984 62.52 0.23828 12.719 0.60156 28.441 1.1992 43.441 0.35938 7.8008-3.4805 10.801-10.801 13.441-56.762 20.879-105 35.762-155.76 40.441-25.199 2.2812-51 2.7617-76.078 3.1211-6.1211 0-12.238 0.23828-18.359 0.35938-19.32 0.35938-25.078-3.9609-27.121-21.602-5.0391-43.801-10.801-93.359-11.879-142.2v-5.2812c-0.35938-16.922-0.60156-25.441-6.3594-30.84-4.4414-4.1992-11.398-5.0391-20.398-5.0391-3.9609 0-8.5195 0.12109-14.52 0.48047-26.762 1.1992-53.52 3.2383-79.559 5.2812l-14.039 1.0781c-11.039 0.83984-23.762 6.8398-22.199 30.719 2.6406 39.359-13.32 73.32-40.68 86.398-11.641 5.5195-19.441 4.0781-29.039-5.5195-19.441-19.441-24.719-45.121-29.879-69.84-7.4414-35.641-3.7188-71.641 10.922-106.92 9.7188-23.398 26.281-44.281 41.281-61.559 3.9609-4.5586 9.7188-6.1211 15.719-4.3203 7.3203 2.1602 12.719 8.6406 13.801 16.32 2.0391 15.961 1.4414 32.398 0.60156 44.879-0.71875 11.762 1.9219 21 7.9219 27.719s15.121 10.32 27 10.801c46.441 1.6797 87.84 3.8398 126.6 6.7188 12.961 0.96094 21.719-1.3203 27-7.1992 5.2812-5.7617 6.8398-14.641 4.8008-27.121-2.7617-17.039-5.7617-33.961-8.8789-51.121l-0.23828-1.5586c-2.8789-16.078-5.8789-32.641-8.5195-48.961-1.3203-7.9219-2.0391-16.078-2.7617-24.121-0.71875-8.3984-1.5586-17.039-3-25.559-1.6797-10.32 2.0391-15.719 13.441-18.961 7.4414-2.1602 14.762-4.4414 22.441-6.8398 18.602-5.7617 37.801-11.762 57.121-15.121 29.879-5.1602 60.961-6.8398 91.078-8.5195h2.5195c4.4414-0.12109 11.641 4.0781 13.922 8.0391 12.121 21.238 23.398 43.441 33.48 66 4.0781 9.2383 10.559 15.121 18.238 16.801 5.5195 1.0781 14.281 0.48047 24.48-8.7617 31.922-29.281 65.281-46.801 102.24-53.762 26.281-4.9219 50.762-2.6406 72.719 6.6016 20.762 8.7617 34.922 43.078 30.359 73.32-3.2383 21.84-7.5586 47.52-13.801 73.078-12.84 51.719-57.719 85.199-114.36 85.199h-4.6797-7.4414-16.078c-10.559-0.12109-17.281 0.60156-21.359 5.0391-4.5586 4.8008-4.3203 12-3.4805 23.281z"/>
  <path d="m212.52 660.6c5.5195 0 13.32-3.3594 15.719-4.3203 5.5195-2.6406 11.16-5.6406 15.961-8.2812 6.8398-3.7188 13.801-7.5586 21-10.441 5.8789-2.3984 12.719-3.6016 19.199-4.6797 3.1211-0.48047 6.1211-1.0781 9.1211-1.6797l2.8789-0.60156 0.23828-3c1.4414-15.719-3.7188-24.359-15.48-25.68-21.602-2.5195-42.121 1.6797-61.078 12.48-7.0781 3.9609-15.84 11.398-19.441 20.281-3.2383 8.0391 3.2383 19.32 6.1211 23.762 0.96094 1.5586 2.8789 2.2812 5.3984 2.2812z"/>
  <path d="m282.36 667.68s-0.83984-0.48047-0.96094-0.71875l-1.1992-1.0781h-1.5586c-17.762 0-53.16 19.559-59.52 30.602-3.2383 5.7617-4.3203 11.879-2.8789 16.922 1.1992 4.0781 3.8398 7.3203 7.8008 9.4805 2.8789 1.5586 6.7188 2.3984 10.801 2.3984 4.5586 0 9.1211-0.96094 12.602-2.7617 11.762-6.1211 23.52-14.039 35.039-23.52 5.6406-4.6797 9.7188-13.441 9.2383-19.922-0.35938-5.1602-5.5195-8.6406-8.8789-10.922l-0.48047-0.35938z"/>
  <path d="m294.36 718.92c-4.4414-0.23828-8.7617 1.4414-12.121 4.9219-12.602 13.199-22.078 25.559-28.922 37.801-2.7617 4.9219-2.5195 10.801 0.48047 16.078 3.9609 6.8398 12 11.281 20.281 11.281h0.71875l1.9219-0.83984c1.5586-0.71875 4.0781-1.9219 6.1211-4.1992 3.8398-4.1992 7.6797-8.5195 11.398-12.84 4.6797-5.3984 9.6016-11.039 14.641-16.32 4.5586-4.8008 10.68-14.762 0.23828-27.719-3.9609-4.9219-9.3594-7.8008-14.879-8.0391z"/>
  <path d="m130.08 741.6 2.6406-1.4414c1.8008-1.0781 3.4805-1.9219 5.0391-2.7617 3-1.5586 5.6406-3 8.0391-4.9219l0.48047-0.35937c3.3594-2.7617 6.4805-5.7617 10.078-9 5.0391-4.6797 10.32-9.6016 15.961-13.441 6.6016-4.4414 10.441-10.199 11.039-15.961 0.48047-4.8008-1.3203-9.3594-5.1602-13.199-5.7617-5.8789-20.52-6.1211-27-2.0391-12.84 8.0391-23.762 19.078-33 28.922-4.0781 4.3203-4.6797 13.441-2.6406 19.199 1.4414 4.0781 4.8008 6.7188 8.3984 9.4805l0.60156 0.48047c1.1992 0.96094 2.3984 1.9219 3.4805 2.8789l2.1602 2.0391z"/>
  <path d="m259.56 814.56c-2.3984-5.5195-5.1602-11.641-9.4805-16.801-1.8008-2.1602-4.5586-2.0391-6.8398-1.6797-3.2383 0.48047-12.961 2.8789-15.359 8.0391-6.9609 15.48-12.121 30.961-15.359 45.961-1.4414 6.8398 11.281 15 16.559 17.16 1.1992 0.48047 2.7617 0.71875 4.5586 0.71875 5.6406 0 12.719-2.5195 14.762-6.7188 4.1992-8.5195 7.0781-17.52 10.199-26.879l0.71875-2.2812c0.96094-2.8789 1.9219-5.7617 3-8.7617l0.60156-1.5586-0.71875-1.5586c-0.83984-1.8008-1.6797-3.6016-2.5195-5.5195z"/>
  <path d="m92.281 752.88h-0.60156-1.1992l-1.0781 0.71875c-0.23828 0.23828-0.71875 0.35938-1.0781 0.60156l-0.35938 0.23828c-2.5195 1.4414-6.4805 3.4805-8.8789 7.0781-5.6406 8.2812-10.078 17.16-14.52 25.922-6 12-2.0391 24.121 9.8398 30.359 2.8789 1.5586 5.8789 2.2812 8.7617 2.2812 1.6797 0 3.3594-0.23828 5.0391-0.83984 5.5195-1.8008 10.441-6.6016 14.039-13.68 1.0781-2.1602 2.1602-4.3203 3.3594-6.4805 3.1211-6 6.2383-12.238 9-18.602 2.5195-5.8789 1.9219-12.359-1.6797-17.641-4.0781-6.2383-11.879-9.9609-20.398-9.9609z"/>
  <path d="m209.64 736.2c-3.2383-4.1992-13.199-6.9609-17.398-3.8398l-1.8008 1.3203c-10.559 7.6797-21.48 15.719-29.641 25.922-3.3594 4.1992-3.6016 9.8398-0.71875 15.48 3.2383 6.4805 11.16 13.078 19.922 13.078h0.71875s1.4414-0.35938 1.4414-0.35938c1.0781-0.23828 3.1211-0.60156 4.5586-2.1602 2.1602-2.1602 4.1992-4.3203 6.3594-6.4805 7.3203-7.3203 14.762-14.879 21.121-23.281 4.0781-5.3984-1.9219-16.32-4.5586-19.68z"/>
  <path d="m158.28 801.96c-6.3594-2.8789-18.238 1.6797-22.559 7.1992-6 7.8008-9.7188 17.879-9.8398 26.52 0 9.4805 9 18.961 11.879 21.602 1.4414 1.4414 3.8398 2.1602 6.9609 2.1602h1.8008c3.9609-0.35938 9-1.6797 11.281-4.6797 3.8398-5.1602 6.9609-10.922 9.7188-16.441 5.5195-10.801 4.0781-23.641-3.3594-31.801-1.9219-2.0391-3.8398-3.4805-5.8789-4.4414z"/>
  <path d="m436.32 557.4c-3-6.7188-15.719-11.52-23.039-10.441-4.8008 0.71875-8.6406 3.1211-11.039 6.8398-3 4.5586-3.6016 10.801-1.8008 17.641 9 33.84 6.7188 69.84-7.1992 113.28-2.2812 7.3203-1.8008 14.641 1.3203 20.16 2.5195 4.5586 6.7188 7.5586 12 8.7617 0.96094 0.23828 1.9219 0.35938 2.8789 0.35938 8.0391 0 17.039-6.8398 21.719-10.922 4.0781-3.6016 6.7188-9.8398 8.0391-19.199 3-20.52 5.6406-41.281 7.9219-59.641v-0.71875c1.9219-14.641 0.83984-29.398-3.1211-43.801-1.8008-6.7188-4.1992-14.641-7.6797-22.078z"/>
 </g>
</svg>
