<?xml version="1.0" encoding="UTF-8"?>
<svg width="1200pt" height="1200pt" version="1.1" viewBox="0 0 1200 1200" xmlns="http://www.w3.org/2000/svg">
 <g>
  <path d="m894.07 224.08 14.676 3.9492c24.27 6.7734 49.672 7.3359 74.508 0.5625l1.6914-0.5625c31.043-9.0312 64.91-7.9023 95.953 2.2578l-20.883 8.4648c-2.2578 1.1289-3.3867 3.3867-3.3867 5.0781 0 1.1289 0 1.1289 0.5625 2.2578 1.1289 2.8203 4.5156 3.9492 7.3359 3.3867l36.688-15.238c1.1289-0.5625 2.8203-1.6914 3.3867-3.3867 0.5625-1.1289 0.5625-3.3867-0.5625-4.5156l-20.316-34.426c-1.1289-2.8203-5.0781-3.3867-7.3359-1.6914-3.9492 2.8203-4.5156 5.6445-3.3867 8.4648l12.98 22.012c-34.43-11.852-70.555-12.98-104.42-3.3867l-1.6914 0.5625c-22.578 6.207-46.285 5.6445-68.297-0.5625l-14.676-3.3867c-3.3867-1.1289-6.207 1.1289-6.7734 3.9492v1.1289c-0.003906 2.2617 1.6914 4.5195 3.9492 5.082z"/>
  <path d="m812.79 226.34c18.062-6.207 37.254-9.0312 55.879-7.3359 2.2578 1.1289 5.0781-1.1289 5.0781-4.5156 0.5625-3.3867-1.6914-5.6445-5.0781-6.207-19.754-1.6914-40.641 1.1289-60.395 7.9023-2.2578 1.1289-3.3867 3.3867-3.3867 5.0781 0 0.5625 0 1.1289 0.5625 1.6914 1.1328 2.8242 4.5195 4.5156 7.3398 3.3867z"/>
  <path d="m1104.6 501.79-20.32-34.43c-1.6914-2.8203-5.0781-3.3867-7.3359-1.6914-4.5156 2.8203-5.0781 5.6445-3.9492 9.0312l12.418 19.754c-15.805-5.0781-31.609-7.9023-47.977-9.0312-3.3867 0-5.6445 2.2578-5.6445 5.0781v0.5625c0 3.3867 2.2578 5.0781 5.0781 5.0781 16.367 1.1289 31.609 3.9492 46.848 9.0312l-23.141 9.5938c-2.2578 1.1289-3.3867 3.3867-3.3867 5.0781 0 1.1289 0 1.1289 0.5625 2.2578 1.1289 2.8203 4.5156 3.9492 7.3359 3.3867l36.688-15.805c1.1289-0.5625 2.8203-1.6914 3.3867-3.3867 0.56641-1.1211 0.56641-3.3789-0.5625-4.5078z"/>
  <path d="m1007 486.55c-7.3359 1.1289-16.367 2.8203-25.398 5.0781l-1.6914 0.5625c-22.578 6.207-46.285 5.6445-68.297-0.5625l-14.109-3.3867c-28.785-8.4648-60.395-7.3359-88.617 2.8203-2.2578 1.1289-3.3867 3.3867-3.3867 5.0781 0 0.5625 0 1.1289 0.5625 1.6914 1.1289 2.8203 4.5156 4.5156 7.3359 3.3867 25.398-9.5938 54.188-10.16 81.281-2.8203l13.547 4.5156c24.27 6.7734 49.672 7.3359 74.508 0.5625l1.6914-0.5625c9.0312-2.2578 16.934-3.9492 23.707-5.0781 3.3867-0.5625 5.0781-3.3867 5.0781-6.207-0.56641-3.3828-3.3867-5.0781-6.2109-5.0781z"/>
  <path d="m808.28 365.76c27.656 10.16 59.832 11.852 88.617 2.8203l14.676-3.9492c22.012-6.207 45.719-6.207 68.297-0.5625l1.1289 0.5625c33.867 9.5938 69.992 9.0312 104.42-2.2578l-12.418 20.883c-1.6914 2.8203-1.1289 6.207 1.6914 7.3359 2.8203 1.6914 6.207 1.1289 7.3359-1.6914l20.883-34.43c1.1289-1.1289 1.1289-3.3867 0.5625-4.5156-0.5625-1.1289-1.6914-2.8203-3.3867-3.3867l-36.688-15.805c-1.6914 0.5625-5.0781 1.6914-6.207 4.5156-0.5625 1.1289-0.5625 1.1289-0.5625 2.2578 0 2.2578 1.1289 3.9492 3.3867 5.0781l22.012 9.5938c-31.609 11.289-66.039 11.852-97.082 2.2578l-1.6914-0.5625c-24.836-6.7734-50.234-6.207-74.508 0.5625l-14.676 3.9492c-26.527 7.3359-55.879 6.7734-81.281-2.8203-2.8203-1.1289-6.207 0.5625-7.3359 3.3867-0.5625 0.5625-0.5625 1.1289-0.5625 1.6914 0 2.2617 1.1289 4.5195 3.3867 5.0859z"/>
  <path d="m1083.7 748.45c-1.1289-2.8203-5.0781-3.3867-7.3359-1.6914-3.9492 2.8203-4.5156 5.6445-3.3867 8.4648l12.418 20.883c-34.43-11.852-70.555-12.418-103.86-2.2578l-1.6914 0.5625c-22.578 6.207-46.285 5.6445-68.297-0.5625l-14.676-3.9492c-28.785-8.4648-60.395-7.3359-88.617 2.8203-2.2578 1.1289-3.3867 3.3867-3.3867 5.0781 0 0.5625 0 1.1289 0.5625 1.6914 1.1289 2.8203 4.5156 4.5156 7.3359 3.3867 25.398-9.5938 54.188-10.16 81.281-2.8203l14.676 3.9492c24.27 6.7734 49.672 7.3359 74.508 0.5625l2.2578-0.5625c31.043-9.5938 66.039-8.4648 97.648 2.2578l-23.141 9.5938c-2.2578 1.1289-3.3867 3.3867-3.3867 5.0781 0 1.1289 0 1.1289 0.5625 2.2578 1.1289 2.8203 4.5156 3.9492 7.3359 3.3867l36.688-15.805c1.1289-0.5625 2.8203-1.6914 3.3867-3.3867 0.5625-1.1289 0.5625-3.3867-0.5625-4.5156z"/>
  <path d="m984.95 635.56-1.6914-0.5625c-24.836-6.7734-50.234-6.207-74.508 0.5625l-14.676 3.9492c-26.527 7.3359-55.879 6.7734-81.281-2.8203-2.8203-1.1289-6.207 0.5625-7.3359 3.3867-0.5625 0.5625-0.5625 1.1289-0.5625 1.6914 0 2.2578 1.1289 4.5156 3.3867 5.0781 27.656 10.16 59.832 11.852 88.617 2.8203l14.676-3.9492c22.012-6.207 45.719-6.7734 68.297-0.5625l1.1289 0.5625c33.867 9.5938 69.992 9.0312 104.42-2.2578l-12.418 20.883c-1.1289 2.8203-0.5625 6.207 1.6914 7.3359 2.8203 1.1289 6.207 0.5625 7.3359-1.6914l20.32-34.43c1.1289-1.1289 1.1289-3.3867 0.5625-4.5156-0.5625-1.1289-1.6914-2.8203-3.3867-3.3867l-36.688-15.238c-1.6914 0.5625-4.5156 1.6914-5.6445 4.5156-0.5625 1.1289-0.5625 1.1289-0.5625 2.2578 0 2.2578 1.1289 4.5156 3.3867 5.0781l22.578 9.0312c-31.609 11.293-66.039 12.422-97.648 2.2617z"/>
  <path d="m714.58 85.23-71.121-40.641c-2.2578-1.1289-4.5156-1.1289-6.7734 0l-233.68 124.18-348.26 182.32-1.125 1.125s-0.5625 0-0.5625 0.5625l-1.125 1.125v0.5625 0.5625l-0.007812 0.57812v0.5625 0.5625 758.04 1.1289c0 0.5625 0.5625 0.5625 0.5625 1.1289 0 0.5625 0.5625 0.5625 0.5625 1.1289 0 0.5625 0.5625 0.5625 1.1289 0.5625l0.5625 0.5625h0.5625l0.5625 0.5625 66.605 37.816c1.1289 0.5625 2.2578 1.1289 3.3867 1.1289 1.1289 0 2.2578 0 3.3867-0.5625l585.32-304.8c2.2578-1.1289 3.3867-3.3867 3.3867-6.207v-756.35c0.007812-2.25-1.1211-4.5078-3.3789-5.6367zm-593.23 1056.6-55.316-31.609v-742.8l55.316 31.043zm5.0781-752.96-52.492-30.48 566.13-300.28 56.445 32.172zm28.789 649.11v-38.383l528.88-276.01v38.383zm503.48-249.48v41.77l-503.48 263.03v-42.332zm-503.48 198.12v-59.266l503.48-262.46v59.266zm514.77-268.67v-59.266l14.109-7.3359v59.266zm-514.77 196.99v-38.383l528.88-276.57v38.945zm0-51.93v-64.91l503.48-262.46v64.91zm514.77-268.11v-65.477l14.109-7.3359v65.477zm-514.77 190.78v-38.383l528.88-276.57v38.945zm0-51.926v-63.219l503.48-262.46v62.652zm514.77-268.68v-63.215l14.109-7.3359v63.219zm-514.77 193.04v-38.945l528.88-276.57v39.508zm0-51.363v-64.91l503.48-263.03v64.91zm514.77-269.24v-65.477l14.109-7.3359v65.477zm-514.77 191.34v-38.383l528.88-276.57v38.383zm0-51.363v-51.363l503.48-262.46v50.234zm514.77-269.24v-50.234l14.109-7.3359v50.234zm-514.77 204.89v-25.965l528.88-277.14v27.094zm-11.855 721.92-11.289 5.6445v-742.24l11.289-5.6445zm540.73-281.66-528.88 275.45v-21.449l528.88-276.57zm0.56641-72.812-0.5625 13.547v22.578l-13.547 7.3359v-42.332l14.109-7.3359zm19.754 62.652-8.4648 4.5156-0.003906-743.93v-0.5625l8.4648-4.5156z"/>
 </g>
</svg>
