<?xml version="1.0" encoding="UTF-8"?>
<svg width="1200pt" height="1200pt" version="1.1" viewBox="0 0 1200 1200" xmlns="http://www.w3.org/2000/svg">
 <g>
  <path d="m138.84 306.36c-61.078 41.641-117.48 108.72-90.84 187.8 26.641 79.078 112.92 84 176.88 50.039 66.238-35.039 112.32-110.16 85.922-185.16-27-76.801-108-92.281-171.48-52.68-24.602 15.238-1.9219 54.238 22.68 38.879 48-30 101.52-13.199 110.28 47.039 7.3203 49.078-28.801 91.801-70.078 113.04-49.199 25.441-115.32 15.602-115.68-51.238 0-48 39.121-84 75.48-108.84 23.277-16.316 0.83594-55.316-23.164-38.879z"/>
  <path d="m135.48 448.44c7.6484-0.55859 14.488-4.9648 18.16-11.699 3.6719-6.7344 3.6719-14.871 0-21.605-3.6719-6.7305-10.512-11.137-18.16-11.695-7.6484 0.55859-14.492 4.9648-18.164 11.695-3.6719 6.7344-3.6719 14.871 0 21.605 3.6719 6.7344 10.516 11.141 18.164 11.699z"/>
  <path d="m178.32 405.6c7.6484-0.55859 14.488-4.9688 18.16-11.699 3.6719-6.7344 3.6719-14.871 0-21.605-3.6719-6.7305-10.512-11.137-18.16-11.695-7.6484 0.55859-14.488 4.9648-18.16 11.695-3.6758 6.7344-3.6758 14.871 0 21.605 3.6719 6.7305 10.512 11.141 18.16 11.699z"/>
  <path d="m232.68 423.48c7.6484-0.55859 14.488-4.9648 18.16-11.699 3.6758-6.7344 3.6758-14.871 0-21.602-3.6719-6.7344-10.512-11.141-18.16-11.699-7.6484 0.55859-14.488 4.9648-18.16 11.699-3.6719 6.7305-3.6719 14.867 0 21.602s10.512 11.141 18.16 11.699z"/>
  <path d="m197.28 466.2c7.6484-0.55859 14.488-4.9648 18.16-11.699 3.6719-6.7305 3.6719-14.867 0-21.602-3.6719-6.7344-10.512-11.141-18.16-11.699-7.6484 0.55859-14.492 4.9648-18.164 11.699-3.6719 6.7344-3.6719 14.871 0 21.602 3.6719 6.7344 10.516 11.141 18.164 11.699z"/>
  <path d="m147 504c7.6484-0.55859 14.488-4.9648 18.16-11.699 3.6719-6.7305 3.6719-14.871 0-21.602-3.6719-6.7344-10.512-11.141-18.16-11.699-7.6484 0.55859-14.488 4.9648-18.16 11.699-3.6719 6.7305-3.6719 14.871 0 21.602 3.6719 6.7344 10.512 11.141 18.16 11.699z"/>
  <path d="m514.68 399.6c-16.199-16.32 58.922-32.281 71.039-34.922 51.402-9.8867 103.66-14.668 156-14.281 58.922 0 127.56-1.5586 184.32 15.84 4.6797 1.3203 41.641 16.078 40.078 21.48-2.8789 9.9609-48 11.039-58.32 12-36 3.7188-70.922 7.3203-106.56 9.9609-67.281 5.582-134.91 5.582-202.2 0-26.145-1.1641-52.148-4.4531-77.758-9.8398-15-3.9609-27.961-13.441-44.16-9.8398-53.762 12-52.801 144-52.078 183.72l33.84-19.441c-20.16-14.641-68.641-36-81.48-55.801-10.199-16.199-9.1211-45.238-15.48-64.078-17.52-48.32-47.094-91.363-85.922-125.04-21.48-19.199-53.398 12-31.801 31.922 22.734 19.832 42.105 43.215 57.359 69.238 9.9766 16.305 17.535 33.969 22.441 52.441 3 13.078-1.4414 33.961 3 45.359 14.281 36 78.961 62.52 109.56 84 6.8555 3.9648 15.289 4.043 22.215 0.21094 6.9297-3.832 11.344-11.02 11.625-18.93 0.36719-34.934 4.1875-69.742 11.402-103.92 6.2383-36 6-30.961 41.879-24 79.801 15.961 165.72 15.359 246.48 10.801 42.48-2.2812 84.84-6.4805 127.2-10.801 28.559-3 80.398 0.83984 105.6-19.199 36-28.801 8.1602-63.359-20.641-83.281-51-35.281-128.28-34.68-187.92-37.199-67.133-3.2891-134.43 0.53125-200.76 11.398-47.16 8.0391-180 43.801-110.76 113.76 20.398 20.641 52.199-11.16 31.801-31.801z"/>
  <path d="m979.32 401.4c-9.7188 150.6-4.1992 302.76-22.199 453-5.7617 48-8.8789 80.762-60 94.199-37.441 9.9609-78.602 10.801-117.12 14.281-52.566 4.9219-105.48 4.9219-158.04 0-39.199-3.6016-78.16-9.1211-116.88-16.559h-0.003906c-14.715-1.2656-29.227-4.3281-43.199-9.1211-24.961-16.078-24-40.32-25.801-66.359-3-41.398 0-84 0-125.76 0-22.32 8.0391-68.16-2.0391-88.68-9-18.238-39.961-33.719-56.039-44.641-21.719-14.762-56.641-48.719-80.281-56.16-20.039-6.3594-41.641 1.5586-62.762 0.71875l0.003907 0.003906c-43.621-2.2188-85.562-17.523-120.36-43.922-23.281-17.281-45.84 21.719-22.801 38.762 30.059 22.363 64.75 37.699 101.52 44.879 26.398 5.2812 58.801-3.2383 82.922 3.2383 27.359 7.3203 76.32 43.32 96 62.398 33.719 33 19.441 96 19.441 140.52 0 52.32-18.719 141.6 38.641 171.24 61.676 31.926 157.68 32.645 226.44 37.086 69.262 2.7852 138.64-0.82812 207.24-10.801 48-5.7617 107.16-15.84 125.52-67.078 26.762-75 21.961-172.2 24.961-250.56 3.6016-93.602 4.1992-187.2 10.199-280.68 1.8008-28.922-43.199-28.801-45 0z"/>
  <path d="m1002.1 497.76c157.44-11.16 146.88 296.88 0.96094 269.4-28.32-5.2812-40.441 38.039-12 43.441 219.12 41.16 228-373.08 11.039-357.84-28.68 2.0391-28.922 47.039 0 45z"/>
  <path d="m1000.6 570c61.199 7.8008 65.039 132-3.1211 129.24-28.922-1.3203-28.922 43.68 0 45 127.56 5.8789 120.96-204 3.1211-219.24-28.559-3.7188-28.32 41.398 0 45z"/>
  <path d="m688.44 528c-43.559 72-103.68 162.84-92.762 252 7.9219 65.281 48 100.44 113.52 96.961 180-9.6016 86.398-269.64 24-353.88-17.039-23.039-56.16 0-38.879 22.68 40.199 54.238 133.68 246.24 33.121 281.52-91.32 31.801-94.078-72-75-129.96 17.398-52.32 46.441-99.719 74.879-146.64 15-24.84-24-48-38.879-22.68z"/>
 </g>
</svg>
