<?xml version="1.0" encoding="UTF-8"?>
<svg width="1200pt" height="1200pt" version="1.1" viewBox="0 0 1200 1200" xmlns="http://www.w3.org/2000/svg">
 <g>
  <path d="m387.3 244.92c-2.3516 0-4.332-1.8359-4.4883-4.2227-0.15625-2.4844 1.7266-4.6211 4.2109-4.7773 16.859-1.043 38.438-0.64844 57.492-0.30078 8.2422 0.15625 15.648-0.023438 22.176 0.28906 10.223 0 32.531-0.25391 53.449-0.50391 18.48-0.21484 35.844-0.40625 42.863-0.40625 2.4844 0 4.5 2.0156 4.5 4.5s-2.0156 4.5-4.5 4.5c-6.9961 0-24.324 0.20312-42.758 0.40625-20.953 0.23828-43.309 0.50391-53.555 0.50391h-0.17969c-6.3125 0-13.934-0.14453-22.152-0.28906-18.875-0.34766-40.262-0.74219-56.762 0.28906-0.09375 0.011719-0.20312 0.011719-0.29688 0.011719z"/>
  <path d="m736.2 247.56c-1.4766 0-2.9414-0.011719-4.4141-0.058594-6.625-0.19141-13.883-0.37109-21.527-0.55078-24.492-0.58984-52.246-1.2461-75.301-2.9531-2.4844-0.17969-4.3438-2.3398-4.1641-4.8125 0.19141-2.4844 2.4258-4.2227 4.8125-4.1641 22.836 1.6797 50.484 2.3398 74.867 2.9297 7.6562 0.17969 14.941 0.35938 21.574 0.55078 7.8242 0.21484 15.863-0.26562 23.629-0.73047 7.4414-0.45703 15.133-0.92578 22.789-0.76953 28.645 0.51562 33.926-2.0742 34.859-2.8789 1.8945-1.6211 4.7266-1.4141 6.3477 0.44531 1.6328 1.8594 1.4531 4.6797-0.40625 6.3125-4.5703 4.0195-16.836 5.5078-40.969 5.1133-7.3555-0.13281-14.82 0.3125-22.078 0.75781-6.5312 0.40234-13.25 0.80859-20.02 0.80859z"/>
  <path d="m335.41 1036.6c-58.777 0-92.676-4.2969-103.5-13.094-34.727-28.199-37.512-90.215-36.086-124.68 2.0273-48.949 2.0273-99.469 2.0391-148.32 0-17.184 0-34.309 0.097657-51.348 0.13281-25.453 0.97266-51.012 1.7773-75.742 1.2344-37.727 2.5195-76.738 1.2461-115.5-0.91016-27.984-0.9375-56.016-0.97266-83.137-0.035157-33.047-0.070313-67.223-1.7031-101.45-1.1875-24.707 0.23828-55.523 21.852-74.699 20.773-18.422 45.215-18.168 66.758-17.953 2.6172 0.023438 6.1328 0 9.7578-0.035156 5.0625-0.058594 10.391-0.12109 14.09 0 2.4844 0.070313 4.4414 2.1484 4.3672 4.6328-0.070312 2.4844-1.8945 4.2852-4.6328 4.3672-3.5898-0.10938-8.7852-0.046875-13.727 0-3.707 0.035156-7.2461 0.085938-9.9609 0.046875-24.91-0.25391-43.824 0.71875-60.684 15.684-18.758 16.633-19.922 44.832-18.84 67.523 1.6445 34.43 1.6797 68.711 1.7148 101.87 0.023438 27.035 0.058594 54.996 0.97266 82.848 1.2734 39.059-0.011718 78.227-1.2617 116.1-0.80469 24.672-1.6445 50.172-1.7773 75.504-0.085938 17.016-0.085938 34.141-0.097656 51.301-0.011719 48.949-0.011719 99.551-2.0508 148.69-1.0938 26.387-0.085937 90.637 32.773 117.31 5.4609 4.4297 26.953 11.867 109.38 11.016l4.1289-0.023438h0.53906c39.66 0 121.97-1.1758 182.15-2.0273 38.219-0.53906 69.266-0.625 78.18-0.98438l7.9062-0.046875c21.133-0.17969 44.41-0.25391 53.23 1.2734 10.117 1.7539 21.422 1.2227 33.383 0.66016 8.4375-0.39453 17.184-0.79297 25.715-0.37109 36.91 1.8477 92.699 2.3633 123.42-0.30078l32.879-0.011719c0.67188-0.10938 3.7422 0.035156 8.125 0.3125 18.203 1.0938 66.539 4.043 81.613-14.051 16.262-19.5 14.52-47.484 12.996-72.191l-0.37109-6.2773c-3.9961-71.219-3.7188-144.28-3.1562-207.17 0.64844-71.734 2.2812-137.69 5.0039-201.62 0.74219-17.41 0.53906-34.801 0.34766-51.613-0.17969-16.211-0.37109-32.977 0.23828-50.242 0.69531-19.586 0.44531-38.484 0.19141-56.762-0.19141-13.609-0.37109-27.277-0.20313-41.508 0.33594-27.516-6.7188-48.348-20.977-61.945-16.777-15.996-44.594-22.98-82.715-20.629-2.3984 0.12109-4.6211-1.7539-4.7656-4.2227-0.14453-2.4727 1.7383-4.6094 4.2227-4.7656 41.242-2.4727 70.523 5.0508 89.461 23.113 16.141 15.371 24.133 38.449 23.762 68.555-0.17969 14.148 0.011718 27.742 0.20312 41.281 0.25391 18.383 0.51562 37.402-0.19141 57.203-0.61328 17.062-0.42187 33.719-0.23828 49.824 0.19141 16.934 0.38281 34.441-0.35938 52.094-2.7109 63.84-4.3438 129.7-4.9922 201.32-0.5625 62.746-0.83984 135.64 3.1445 206.58l0.37109 6.2266c1.5469 25.066 3.4805 56.27-15.059 78.504-17.988 21.59-67.777 18.551-89.074 17.27-3.5898-0.21484-6.1094-0.40625-7.1172-0.3125l-32.965 0.023438c-30.73 2.6758-87.047 2.1602-124.25 0.30078-8.1367-0.42188-16.633-0.011719-24.852 0.37109-11.914 0.53906-24.238 1.1289-35.316-0.78125-8.7734-1.5-36.66-1.2734-51.625-1.1523l-7.9805 0.046875h-0.14453c-9.2656 0-39.949 0.44531-77.914 0.98438-60.492 0.86328-143.61 2.2695-182.82 2.0273l-4.043 0.023437c-3.9609 0.050782-7.8359 0.078126-11.617 0.078126z"/>
  <path d="m534.35 410.86c-12.742 0-25.379-0.49219-37.801-0.97266-6.5273-0.25391-13.078-0.50391-19.68-0.69531l-15.613-0.38281c-16.586-0.38281-33.73-0.78125-49.848-2.0273-26.09-2.0273-53.723-1.4141-80.438-0.82812-13.453 0.30078-26.664 0.61328-39.949 0.5625-8.4492 0.046875-19.055 0.48047-30.422 0.99609-18.742 0.86328-39.973 1.8359-56.398 0.73047-2.4844-0.16797-4.3555-2.3047-4.1875-4.7891s2.3164-4.3086 4.7891-4.1875c15.91 1.0547 36.887 0.10938 55.391-0.74219 11.531-0.52734 22.043-1.1172 30.863-0.99609 13.066-0.097657 26.352-0.26563 39.73-0.5625 26.941-0.58984 54.781-1.2109 81.336 0.85156 15.875 1.2344 32.891 1.6328 49.355 2.0039l15.672 0.38281c6.6367 0.19141 13.223 0.44531 19.777 0.70703 24.434 0.9375 47.508 1.8359 71.484-0.57422 18-1.8008 36.109-1.2969 53.605-0.79297 13.848 0.39453 28.164 0.80469 42.254 0.046876 46.68-2.5078 94.117-5.0742 140.07-1.8242 37.656 2.6406 73.32 1.7891 109.59 0.58984 20.23-0.66016 64.547-0.15625 82.848 0.71875 2.4844 0.12109 4.4023 2.2305 4.2852 4.7031-0.12109 2.4961-2.3633 4.5703-4.7031 4.2852-18.145-0.86328-62.039-1.3555-82.141-0.70703-36.504 1.1992-72.434 2.0508-110.51-0.61328-45.371-3.1797-92.531-0.66016-138.16 1.7891-15.277 0.81641-29.785 0.40625-43.801 0-17.207-0.50391-35.027-0.99609-52.453 0.74219-11.707 1.1914-23.371 1.5859-34.953 1.5859z"/>
  <path d="m350.61 332.14c-17.207 0-33.301-12.203-38.27-29.016-1.7148-5.7852-2.9766-12.574-3.8281-20.746-0.73047-6.9492-1.0938-14.004-1.4414-20.688l-0.25391-4.9062c-0.50391-9.2539-0.61328-18.551-0.66016-27.805-0.097656-19.32 1.9805-40.777 18.012-53.41 7.0195-5.5312 17.148-8.4609 29.27-8.4609 2.4375 0 4.8242 0.12109 7.1289 0.3125 7.7891 0.68359 14.316 5.5781 19.402 14.555 16.656 29.352 14.629 101.75 0.64844 130.57-6.0078 12.453-16.965 19.594-30.008 19.594zm2.8555-156.05c-7.0312 0-16.859 1.1289-23.711 6.5273-12.996 10.246-14.664 29.16-14.578 46.309 0.035156 9.1094 0.14453 18.266 0.64844 27.359l0.25391 4.9453c0.33594 6.5273 0.68359 13.43 1.4023 20.207 0.79297 7.6211 1.9453 13.871 3.5039 19.129 3.875 13.078 16.332 22.57 29.641 22.57 9.6016 0 17.398-5.1602 21.938-14.52 12.84-26.473 14.844-95.375-0.38281-122.22-3.5391-6.2539-7.7031-9.6133-12.359-10.02-2.0742-0.18359-4.1953-0.28906-6.3555-0.28906z"/>
  <path d="m601.63 318.83c-12.91 0-26.688-7.4297-33.504-18.059-2.3047-3.5898-4.0938-7.4766-5.4961-11.867-3.5508-11.219-3.6016-23.207-3.6367-34.801-0.011719-3.5898-0.023438-7.1406-0.14453-10.57-0.66016-17.93-0.67187-38.543 7.5234-56.41 4.0938-8.9141 11.844-15.961 20.242-18.383 16.078-4.6445 29.184-1.2617 38.316 9.8047 20.52 24.852 15.047 82.031 11.207 101.96-3.875 20.137-12.18 32.496-24.66 36.758-3.0703 1.0234-6.3789 1.5625-9.8477 1.5625zm-1.7539-143.12c-3.2891 0-6.9102 0.5625-10.766 1.6797-5.8672 1.6914-11.578 6.9844-14.555 13.488-7.3672 16.066-7.332 35.438-6.7188 52.332 0.13281 3.5273 0.14453 7.1758 0.15625 10.871 0.035156 10.922 0.085937 22.211 3.2148 32.113 1.1523 3.625 2.6172 6.8047 4.5 9.7305 6.4688 10.094 22.285 16.402 32.867 12.816 9.2031-3.1328 15.504-13.211 18.73-29.941 3.3711-17.508 8.9023-72.48-9.3125-94.535-4.7617-5.7578-10.688-8.5547-18.117-8.5547z"/>
  <path d="m851.69 321.6c-1.3086 0-2.6523-0.12109-4.0078-0.35937-13.906-2.4727-24.938-15.77-30.145-26.398-2.2188-4.5352-3.8281-9.5039-4.9062-15.18-2.293-12.047-1.7266-24.793-1.1758-37.129 0.23828-5.1836 0.46875-10.262 0.45703-15.059-0.085937-30.492 5.9531-49.68 18.457-58.668 4.1523-2.9883 9.3242-4.5 15.383-4.5 7.8125 0 15.266 2.4844 20.137 4.5703 10.754 4.6094 18.59 14.594 23.258 29.699 10.164 32.832 2.4844 84.227-10.645 104.88-4.3359 6.7656-13.539 18.145-26.812 18.145zm-5.9648-148.31c-4.1289 0-7.5352 0.94922-10.129 2.8086-9.8398 7.0664-14.785 24.348-14.711 51.336 0.011719 4.9453-0.21484 10.152-0.45703 15.492-0.52734 11.809-1.0781 24.012 1.0078 35.027 0.9375 4.8711 2.293 9.0977 4.1641 12.91 4.4766 9.1328 13.777 19.754 23.641 21.504 10.535 1.8711 18.73-9.2031 21.625-13.766 12.035-18.949 18.852-67.609 9.6484-97.391-3.8516-12.457-9.9844-20.555-18.203-24.086-5.7852-2.4688-11.676-3.8359-16.586-3.8359z"/>
  <path d="m612.8 950.43c-2.6523 0-4.2617-1.9453-4.8125-5.7734-0.19141-1.2969 0.20312-2.5312 0.96094-3.4805 0.66016-18.059-0.82812-95.809-2.4102-130.98-1.9688-43.633 0.53906-90.562 3.1914-140.24 2.7461-51.48 5.5781-104.71 2.9531-153.53-0.13281-2.4844 1.7656-4.5977 4.2461-4.7383 2.4492-0.22656 4.5977 1.7656 4.7383 4.2461 2.6641 49.309-0.19141 102.78-2.9531 154.49-2.6406 49.453-5.125 96.168-3.1914 139.37 0.80469 17.809 1.7148 51.324 2.2188 81.48 0.98438 58.621 0.875 58.621-4.3906 59.125-0.19141 0.035156-0.37109 0.035156-0.55078 0.035156z"/>
  <path d="m798.64 745.36c-12.145 0-24.445-1.0781-36.504-2.1367-12.254-1.0664-24.926-2.1836-37.344-2.1836-37.285-0.79297-72.059-0.60156-105.67-0.42188-75.203 0.40625-146.2 0.79297-229.68-9.8633-2.4727-0.3125-4.2109-2.5664-3.8984-5.0273 0.3125-2.4609 2.4961-4.2109 5.0273-3.8984 82.883 10.586 153.62 10.188 228.49 9.793 33.684-0.16797 68.531-0.37109 105.82 0.42187h0.011719c12.73 0 25.586 1.1289 38.016 2.2188 20.543 1.7891 39.949 3.5039 58.488 0.40625 2.4258-0.37109 4.7656 1.2461 5.1836 3.707 0.40625 2.4492-1.2461 4.7656-3.707 5.1836-7.9102 1.3086-16.035 1.8008-24.23 1.8008z"/>
 </g>
</svg>
