<?xml version="1.0" encoding="UTF-8"?>
<svg width="1200pt" height="1200pt" version="1.1" viewBox="0 0 1200 1200" xmlns="http://www.w3.org/2000/svg">
 <g stroke="#000">
  <path transform="scale(12)" d="m28.724 27.077s0.37988 0.094076 0.81803 0.17708c0.58789 0.055013 1.1611 0.12305 1.7321 0.12305z"/>
  <path transform="scale(12)" d="m27.524 38.027c0.90006 0 2.0999-0.15006 3.1501-0.15006 0.75 0 2.4001 0.15006 3.4499-0.15006 1.8001-0.59994 1.3499-3.3001 1.5-4.6501 0-0.59994 0.15007-1.1999 0-1.8001 0-0.59994-0.15006-1.0501-0.44987-1.5 0-0.15006-0.30013-0.44987-0.30013-0.44987-0.21484-0.32194-0.43392-0.56608-0.75911-0.79004-0.003906-0.007162-0.010091-0.011068-0.013998-0.017904l0.17285 0.057943c-0.067057-0.037109-0.13607-0.061849-0.20312-0.095052-0.76009-1.0931-2.1501-1.1051-3.5469-1.1051-0.26302 0-0.63997-0.057943-0.9821-0.12305-0.64616-0.060873-1.3109-0.10514-2.0179-0.027019-0.59994 0-1.5 0.30013-1.8001 0.30013 0 0.15006-0.30013 0.15006-0.30013 0.15006-2.5501 0.15006-1.5 5.4001-1.1999 6.5999 0 0.44987 0.30013 1.0501 0.59994 1.3499 0.10189 0.2041 0.40299 0.33301 0.59115 0.39811 0.22624 1.0553 0.80534 1.8783 2.1094 2.0023z"/>
  <path transform="scale(12)" d="m26.624 53.927c0.15007 0.15006 0.44987 0.30013 0.44987 0.30013 1.0501 1.8001 3.5999 1.0501 5.25 1.0501 0.75-0.15006 1.8001 0.30013 2.5501-0.15006 0.44987-0.15006 0.75-0.75 0.75-1.1999v-1.0501c0.30013-0.90006 0.30013-1.8001 0.30013-2.8499 0-0.90006-0.15006-1.9499-0.15006-3 0-0.15006-0.15007-0.30013-0.15007-0.44987 0-0.30013-0.30013-1.0501-0.44987-1.0501-0.44987-0.90006-1.5-1.0501-2.4001-1.0501h-1.0501-0.59994-1.0501-0.75-0.15006c-0.75-0.30013-0.75-0.30013-1.3499-0.15007-0.30013 0-0.59994 0.44987-0.75 0.44987-0.90006-0.15006-1.5 0.59994-1.6501 1.5 0 0.59994 0.15006 1.8001 0.15006 1.9499v1.9499 0.59994c0 0.59994 0.15006 1.0501 0.30013 1.6501 0 0.15006 0.30013 0.44987 0.30013 0.44987v0.30013c0.14974 0.30013 0.2998 0.60026 0.44987 0.75032zm3.3001-6.1501c0.90006 0 2.4001 0 2.4001 0.15006-0.15006 0.15006-0.30013 0.75-0.30013 0.75-0.30013 0-1.0501 0.15006-1.0501 0.15006-0.44987-0.15006-1.1999-0.30013-1.1999-0.30013z"/>
  <path transform="scale(12)" d="m36.674 63.077c-0.15006-0.59993-0.59994-1.1999-1.1999-1.3499-0.44987 0-1.1999 0.30013-1.1999 0.30013-0.15006-0.15006-0.375-0.26302-0.56315-0.33789l0.56315 0.18815c-0.20508-0.10286-0.41016-0.16211-0.61588-0.20606-0.15788-0.058919-0.28386-0.094075-0.28386-0.094075l0.27702 0.092122c-0.39193-0.083984-0.78516-0.092122-1.1771-0.092122-0.30013 0-0.75 0.15006-0.75 0.15006-0.59994 0-1.5 0.44987-1.5 0.44987-0.59994 0-1.6501 0.15006-1.6501 0-1.0501-0.15006-1.5 0.44987-1.9499 1.1999-0.15006 0.44987-0.15006 1.1999-0.15006 1.1999 0 1.5 0.44987 2.6999 0.59994 4.1999 0 0.90006 0.15006 1.8001 0.30013 2.6999v1.5c0.59994 1.8001 2.4001 1.1999 3.75 1.1999 0.90007 0 2.8499 0.15006 3.9001-0.30013 2.0999-0.90007 1.5-3.75 1.5-5.5501 0.14941-1.7995 0.59928-3.5996 0.14941-5.2493z"/>
  <path transform="scale(12)" d="m48.824 25.727s0.11784 0.027995 0.27311 0.057943c0.031901 9.76e-4 0.063151-0.00293 0.095052-9.77e-4z"/>
  <path transform="scale(12)" d="m44.774 36.677c0.15006 0.75 1.0501 1.3499 1.9499 1.1999 0.30013-0.15006 0.59994-0.59994 0.75-0.59994h0.30013c0.44987 0.75 1.9499 0.44987 2.6999 0.30013 0.30013 0 0.90006-0.30013 0.90006-0.30013 1.3499-0.30013 4.0501 0 4.8001-1.3499 0.44987-0.90006-0.15006-1.9499-0.30013-2.6999-0.30013-1.1999-0.30013-2.4001-0.15006-3.4499 0-0.90006 0.30013-1.8001 0-2.5501-0.30013-0.44987-0.59994-0.75-1.0501-0.90007-0.30013 0-0.90006 0.15007-0.90006 0-0.59994-0.15006-1.1999-0.30013-1.8001-0.30013h-1.1999c-0.21289-0.10612-0.42611-0.12988-0.639-0.139-0.31901-0.05599-0.63509-0.094076-0.94303-0.10384l0.55013 0.084961c-0.23014-0.012045-0.46387-0.046875-0.64486-0.083008-0.46191-0.009115-0.90885 0.023112-1.3229 0.092122-0.30013 0.15006-0.75 0.30013-1.0501 0.44987-0.15006 0.15006-0.44987 0.30013-0.44987 0.30013-1.5 0.30013-1.3499 1.8001-1.3499 3-0.15006 1.9489-0.75 4.9489-0.15006 7.0488zm3.1501-2.7002c0-0.30013 0.15006-1.0501 0.15006-1.0501 0.15006 0.30013 0.44987 0.59994 0.75 0.75s0.75 0.15006 0.75 0.15006c0.15006 0.15006 0.44987 0.15006 0.44987 0.30013 0 0 0.15006 0.15006 0 0.15006-0.59994 0.15006-2.0999 0-2.0999 0v-0.30013z"/>
  <path transform="scale(12)" d="m46.724 51.827c0 0.30013-0.15006 1.0501-0.15006 1.0501-0.75 0.75 0.59994 1.9499 1.1999 2.0999 1.5 0.30013 3.9001-0.44987 5.4001-0.75 0.75 0 1.5 0.15006 2.0999-0.30013 1.5-0.75 0.75-4.1999 0.75-5.25v-0.90006-1.5-0.90006-0.44987c-0.30013-1.0501-1.3499-1.5-2.4001-1.6501-0.44987 0-1.3499 0.15006-1.3499 0.15006-0.44987 0-1.3499 0.15006-1.3499 0 0-0.44987-0.44987-0.90006-0.90006-1.0501-0.30013-0.15006-0.75-0.15006-0.75-0.15006l0.15788 0.058919c-0.3151-9.76e-4 -0.62793 0.111-0.90788 0.39095-0.44987 0.30013-0.44987 0.75-0.44987 1.1999 0 0.15006-0.15006 0.44987-0.15006 0.44987-0.30013 0.15006-0.75 0.90006-0.75 0.90006-0.30013 0.15007-0.44987 0.75-0.44987 1.0501v0.59994c-0.15006 0.75 0.15006 2.4001 0.15006 2.5501v1.0501c0 0.4502 0 1.3503-0.15006 1.3503z"/>
  <path transform="scale(12)" d="m56.174 61.427c-0.20703-0.3099-0.62598-0.54102-1.015-0.65885l0.41504 0.058919c-1.6501-0.44987-3.5999-0.44987-5.25-0.30013-0.44987 0.15006-1.1999 0.15006-1.6501 0.44987-0.30013 0.15006-0.59994 0.75-0.59994 0.75-1.1999 0-1.8001-0.30013-2.6999 0.15006-0.30013 0.30013-0.59994 0.59994-0.75 0.90006 0 0.15006-0.15006 0.44987-0.15006 0.59994-0.15006 0.15006-0.15006 0.30013-0.15006 0.44987v1.1999c0 0.44987 0.15006 1.5 0.15006 1.6501-0.15006 0.90006-0.30013 1.8001 0 2.6999 0 0.30013 0 0.59993 0.15006 0.90006 0.15006 0.15006 0.44987 0.44987 0.44987 0.44987 0 0.75 0.30013 1.6501 1.0501 2.0999 0.44987 0.15006 0.90006-0.15006 1.3499-0.30013 0.15006 0 0.30013-0.30013 0.44987-0.30013 0.59994 0.44987 2.4001 0.30013 2.4001 0.30013 0.44987 0 1.0501 0.15006 1.5 0.15006 0.30013 0 0.90006-0.30013 0.90006-0.30013h0.15006c0.15006 0 0.30013-0.15006 0.30013-0.15006 1.0501 0 2.0999 0.15006 2.8499-0.75 0.15006-0.30013 0.30013-0.59994 0.30013-0.90006 0-0.15006 0-0.59994 0.15006-0.59994 0.15006-0.44987 0.15006-0.90006 0.15006-1.3499-0.15006-1.1999-0.30013-3.5999-0.30013-3.75 0.14941-1.0492 0.59961-2.5492-0.15039-3.4492z"/>
  <path transform="scale(12)" d="m72.663 25.964-0.28906-0.086914s0.13997 0.045899 0.28906 0.086914z"/>
  <path transform="scale(12)" d="m63.374 32.477c0 0.30013 0.44987 0.90006 0.44987 0.90006 0.15006 0.30013 0.30013 0.59994 0.44987 0.75 0 0.44987 0.15006 0.90006 0.44987 1.1999 0.15006 0.15006 0.75 0.30013 0.75 0.30013 0.44987 0.30013 0.90006 0.59994 1.5 0.75 0.30013 0.15006 0.59994 0.15006 1.0501 0.30013h0.44987c0.15006 0.15006 0.59994 0.15006 0.59994 0.15006 0.44987 0 1.3499-0.15006 1.3499-0.15006 1.5-0.30013 3.4499 0.75 4.3499-0.90006 0.75-1.5 0.15006-5.0999 0.15006-5.25 0-0.30013-0.30013-0.90006-0.44987-0.90006 0-0.44987 0-0.75-0.15006-1.0501v-0.59994c0.15006-0.44987 0-1.3499-0.44987-1.6501-0.15006-0.15006-0.59994-0.30013-0.90006-0.30013-0.079102-0.014974-0.15885-0.033854-0.23698-0.043946-0.025065-0.005859-0.049154-0.012044-0.073894-0.01888l0.060873 0.017904c-1.013-0.12305-1.9508 0.19499-3.0501 0.19499h-3.4499c-0.15006 0.15006-0.75 0.15006-0.75 0.15006-0.59994-0.30013-1.1999-0.15006-1.8001 0.15006-0.15006 0.30013-0.44987 0.90006-0.44987 0.90006-0.15006 0.44987-0.30013 0.75-0.15006 1.3499v0.59994c0.15039 1.0501 0.15039 1.9502 0.30046 3.1501zm3.4499-2.8499v-0.15006c0.15006 0 0.44987 0.15006 0.44987 0.15006-0.15006 0.30013-0.44987 0.90006-0.44987 0.90006v-0.90006z"/>
  <path transform="scale(12)" d="m66.074 41.627s0.05013 0.015951 0.11491 0.036133c0.036133 9.76e-4 0.072917-9.77e-4 0.10905 9.76e-4z"/>
  <path transform="scale(12)" d="m66.298 41.664 1.5758 0.26302c-0.53158-0.076172-1.0638-0.22819-1.5758-0.26302z"/>
  <path transform="scale(12)" d="m74.624 42.977h-0.15006c0-0.15006-0.30013-0.30013-0.30013-0.30013-0.75-0.30013-1.0501-0.30013-1.9499-0.44987-0.30013 0-1.0501 0-1.0501-0.15006-0.59994 0-1.0501 0-1.6501-0.15006h-1.0501c-0.15006 0-0.59994 0.15006-0.59994 0-0.30013 0-0.75-0.15006-1.1999-0.15006-0.10286 0-0.34212-0.069987-0.48503-0.11393-0.45996-0.014974-0.903 0.070964-1.3151 0.41406-0.44987 0.15006-0.59994 0.59994-0.90006 1.0501v0.59994c-0.15006 0.30013-0.15006 0.75-0.15006 1.0501v0.59994 0.44987 0.59994 0.15006c0 1.1999-0.44987 2.5501-0.30013 3.75 0 0.44987 0.30013 0.59994 0.59993 0.90006h0.44987c0.15006 0.15006 0.30013 0.30013 0.30013 0.44987v0.59994 0.15006c0 0.30013 0 0.75 0.30013 1.0501 0.15006 0.30013 0.59994 0.44987 0.59994 0.44987 0 0.44987 0.44987 0.75 0.75 1.0501 0.15006 0 0.59993 0.15006 0.59993 0.15006 0.44987 0.75 1.6501 1.0501 2.5501 1.1999 0.30013 0.15006 1.0501 0 1.0501 0 0.90006 0 1.8001 0.15006 2.4001-0.30013 0.44987-0.30013 0.90006-1.0501 0.90006-1.1999 0 0 0.15006 0 0.15006-0.15006 0.15006 0 0.44987 0 0.44987-0.15006 0.75-0.15006 1.5-0.44987 1.5-1.3499 0.15006-0.44987-0.44987-1.3499-0.44987-1.3499 0-0.15006 0.15006-0.30013 0.15006-0.44987 0.30013-0.30013 0.44987-1.3499 0.30013-1.6501 0-0.30013-0.15006-0.90006-0.15006-0.90006-0.15006-1.5 0-2.8499-0.30013-4.3499 0-0.30013-0.30013-0.75-0.59994-1.0501-0.14974-0.14974-0.44987-0.44987-0.44987-0.44987z"/>
  <path transform="scale(12)" d="m75.974 66.227c0-0.59994 0.15006-1.3499 0-2.0999-0.15006-0.44987-0.30013-1.1999-0.30013-1.1999 0-0.44987-0.44987-0.75-0.75-1.0501 0 0-0.30013-0.15006-0.44987-0.15006 0-0.1071-0.046875-0.23112-0.11003-0.34896l0.11003 0.049153c-0.046875-0.039062-0.093099-0.067057-0.13997-0.10189-0.11491-0.18913-0.28385-0.34798-0.45996-0.34798-0.22493-0.11296-0.53516-0.14095-0.67513-0.14811-0.51986-0.083008-1.0781-0.013998-1.7249 0.14811-0.44987 0-1.0501 0.15006-1.6501 0.30013h-0.44987c-0.44987 0-1.1999 0.30013-1.3499 0.30013-1.3499 0-4.5-1.0501-4.6501 1.5v0.90006c0.15007 0.75 0.30013 1.6501 0.30013 2.4001 0 1.5-0.44987 5.4001 1.9499 6 0.90007 0.15006 2.0999-0.30013 3-0.30013 1.9499-0.30013 6 0.44987 7.1999-1.5 0.75-1.2005 0.30013-3.1504 0.15006-4.3506zm-9.401-1.4258c-0.027019-0.22103-0.049154-0.37402-0.049154-0.37402h0.30013c0 0.025065 0.017904 0.031901 0.025065 0.050131-0.11686 0.09082-0.20605 0.20573-0.27604 0.32389z"/>
 </g>
</svg>
