<?xml version="1.0" encoding="UTF-8"?>
<svg width="1200pt" height="1200pt" version="1.1" viewBox="0 0 1200 1200" xmlns="http://www.w3.org/2000/svg">
 <g>
  <path d="m807.6 840.96c-1.2109 1.7656-2.1836 3.3242-1.4766 3.9102 1.0195 0.85156 1.7148 2.0391 2.6406 2.9883 1.0312 1.043 2.5664 1.6328 3.1445 3.0859 0.46875 1.2227 0.97266 1.9062 4.2461-0.64844 0.50391-0.38281 1.4766-0.070313 1.2227 0.34766-3.0703 4.9805-1.4414 4.7891 3.2031 1.4141 0.085938 1.4766 4.4023-0.71875 0.30078 4.4531-0.875 1.1055-1.0312 2.9141-0.3125 2.9766 2.5781 0.22656 6.4062-0.94922 5.0742 3.3125 4.8594-2.9648 2.6875 0.91016 2.6523 2.8672-0.058594 3.3125 0.66016 5.9297 5.832 3.9102 0.875-0.33594 1.7031 0.023437 1.3789 0.79297-0.92578 2.2578-0.27734 3.0117 0.43359 3.8047l5.6406 6.457c0.28906 0.32422 0.82812 0.79297 1.4648 0.32422 5.3984-3.9258 3.9844-0.60156 3.8398 1.4766-0.046875 0.76953 0.26562 1.5586 1.1523 1.2461 2.9648-1.0547 2.6758 0.875 2.6406 2.7852-0.011719 1.1172 1.1523 1.3438 2.2578 1.4297 2.0508 0.16797 7.5469-3.4219 4.4141 2.3516-0.37109 0.69531 0.85156 0.85156 1.8359 0.52734 3.875-1.2461 2.1953 3.8516 7.332 1.1406 0.30078-0.16797 0.21484 0.5625 0.097657 1.043-1.1875 4.9805 3.0586 4.4531 6.5625 4.5 2.4609 0.035157 5.1133-0.28906 4.6562 2.6523-0.39453 2.5078 3.7422-0.64844 4.4297-0.023437 0.81641 0.71875-1.6328 4.6094 0.26562 4.668 0.55078 0.023438 1.4648-0.35938 2.2695-0.66016 1.3555-0.51562 2.7617-1.0664 4.1992-1.6328 7.1172-2.9023 14.891-7.5117 23.891-15.191 2.9531-2.5078 4.6797-4.957 4.4531-6.4219-1.2969-8.0898-5.9141-13.02-10.5-17.988-0.64844-0.73047-2.0039-0.44531-4.3906 1.2461-1.5117 1.0547-2.9883 1.9336-1.2734-0.46875 2.1367-2.9883 1.7148-4.0312 0.88672-4.7148-1.2852-1.043-2.8203-1.8242-4.2109-2.7734-5.0391-3.4336-10.199-6.7578-15.07-10.355-7.0664-5.2305-11.16-13.43-19.043-17.844-1.9688-1.1055-3.8984-1.8711-9.5039 1.3438 3.9375-5.3164 3.6133-7.0078 2.1016-8.0508-4.0195-2.7461-7.668-5.8906-11.281-9.0703-2.0391-1.7773-3.6367-4.0195-5.5781-5.8789-0.52734-0.51562-1.2617-1.0547-2.5781-0.45703-1.5117 0.69531-3.7578 2.6172-5.8203 4.1055 4.5-7.4531 5.4258-9.6719 2.4258-9.1094-3.5273 0.66016-6.0117 0.61328-4.3438-3.8633 0.26563-0.74219-0.10937-1.1641-0.61328-1.2461-5.3047-1.0078-5.3516-7.2461-9.7305-9.2539-4.9062-2.2422-7.8477-6.5742-11.832-9.793-0.91016-0.74219-2.4609-0.83984-3.8984-1.0078-2.3047-0.25391-2.375-0.15625 2.3984-6.1328l0.30078-0.57422c-1.1172-1.6445-1.1758-1.6211-6.1211 2.3516l-0.99609 1.3672c0.10938-0.20313 0.17969-0.38281 0.33594-0.58984 0.22656-0.25391 0.48047-0.53906 0.73047-0.81641l5.543-6.793-0.035156 0.085937c-2.3633-0.69531-4.9453-1.1758-1.9336-6.7305 0.44531-0.81641 0.34766-1.6094-0.12109-1.6797-2.2578-0.3125-2.5195-2.9531-7.2734-0.44531-1.4766 0.76953-1.9219-0.40625-2.832-0.69531l-0.27734 0.15625c-2.5078 0.875 0.80469-3.7578-0.89844-3.1797-3.8398 1.3086-3.9375-0.82813-3.6484-3.5273 0.058593-0.57422-0.55078-0.88672-1.2852-0.49219-3.4688 1.8594-4.2461 1.0938-3.2539-1.7773 0.40625-1.1992-1.2344-0.625-2.7109 0.875-4.9805 5.0508-10.273 10.094-12.949 15.406-1.3906 2.7734-3.6367 6-5.207 8.8672-2.8086 5.1719-5.0156 9.9102-4.0312 12.527 0.39453 1.0547 0.70703 2.3867-0.13281 4.3086-2.6289 6.0977-0.89844 8.7461-2.0391 13.656-0.38281 1.6094 0.14453 2.1953 1.9805 1.5977 2.0508-0.67188 4.8359 0.75781 5.2578 2.0508 0.10938 0.30078 0.43359 0.40625 0.63672 0.63672l2.1367-2.1133-0.097656 0.046876-2.0039 1.9922c-1.3438 1.8008-3.2891 4.6797-0.99609 3.1914 4.668-3.0234 4.7148 0 8.7227-2.2578 0.78125-0.43359 1.2109 1.1172 0.48047 2.293-3.6367 5.7734-1.6797 6.5273 1.7891 5.5664 3.0977-0.85156 5.4375-1.3555 3.3242 2.9414-0.34766 0.73047 0.3125 0.89844 0.61328 1.2227 2.4961 2.543 4.4883 5.5781 8.5664 6.4805 0.63672 0.13281 0.71875 0.96094 0.64844 1.7891-0.40625 4.1875 3.0469 4.5 5.7617 5.5312 0.83984 0.3125 3.8516-1.6211 4.2734-0.98438 0.48047 0.71875-1.0547 3.3242-1.2617 4.7656-0.12109 0.86328 0.37109 1.3203 1.0078 1.5117 3.3242 1.0078 5.0625 3.7812 10.094 2.8906zm85.75 35.867c-0.16797 0.046875 0.30078-0.80469 0.48047-1.2461 0.3125-0.20312 0.76953-0.55078 0.89844-0.52734 0.85156 0.13281 1.6328 0.32422 2.4102 0.52734l0.98438-0.80469-0.94922 0.74219c-1.293 0.45703-2.625 0.97266-3.8242 1.3086zm-115.11-115.55c0.78125-0.58984 1.5234-0.97266 2.2812-1.4141-0.44531 0.625-0.80469 1.2969-1.332 1.8359-0.46875 0.45703-1.1055 0.71875-1.668 1.0781 0.25391-0.52734 0.56641-1.3711 0.71875-1.5zm109.37 122.29 0.70703-0.875c-0.011719 0.25391-0.023438 0.49219-0.046875 0.81641-0.30078 0.023437-0.49219 0.035156-0.66016 0.058593zm-36.949-57.621-0.53906 0.17969 0.52734-0.61328zm56.398 48.684 0.74219-0.53906-0.45703 0.70703z"/>
  <path d="m905.12 923.75c2.0742 2.1133 4.0547 3.8984 5.6641 3.8047 2.2812-0.12109 4.9336 0.23828 7.3438 0.25391 2.6758 0.011718 4.7266-0.67188 7.9062-0.046876 0.78125 0.15625 1.4883 0.27734 1.9922 0.26563-0.023438-1.2969-0.81641-3.0469-3.7305-6.4453-0.625-0.74219-1.0938-2.6992-0.61328-2.4375 5.6875 2.9023 4.4023-0.44531-1.2461-6.5273 0.98438-1.1289-3.625-6.9375 2.9414-3.4062 1.3906 0.74219 2.7969-0.38281 2.3164-1.7148-1.668-4.7773-5.1953-9.707-1.2461-11.293-5.5312-4.9688-1.2461-4.8477 0.15625-6.8047 2.3867-3.0859 3.7305-7.6094-1.3555-12.422-0.85156-0.80469-1.1875-2.2695-0.40625-2.7227 2.2422-1.3203 2.3281-3.1562 2.3867-5.0273 0.070313-3.0703 0.19141-3.6836 0.30078-5.2812l0.27734-4.2109c0.023438-0.43359-0.023438-1.1289-0.80469-1.2461-6.6016-1.0312-3.2539-2.3516-1.6797-3.707 0.58984-0.50391 0.92578-1.2734 0.070313-1.668-2.8438-1.3203-1.2734-2.4727 0.097656-3.7695 0.80469-0.76953 0.14453-1.7539-0.57422-2.5781-1.332-1.5469-7.7539-2.8789-1.4531-4.7148 0.75781-0.22656 0-1.1992-0.92578-1.6562-3.6367-1.8242 1.1758-4.2227-4.3789-5.8906-0.32422-0.10938 0.25391-0.55078 0.67188-0.78125 4.3672-2.6523 0.99609-5.2578-1.4648-7.7148-1.7148-1.7383-3.8164-3.3594-1.4141-5.1016 2.0625-1.4648-3.1094-2.1602-3.1562-3.0586-0.058593-1.0781 4.4141-2.0742 3.1211-3.4453-0.38281-0.39453-1.2969-0.76953-2.0742-1.1289-1.3203-0.57422-2.7109-1.1875-4.1172-1.7891-7.0938-2.9141-15.84-5.1367-27.637-6.0586-3.8633-0.28906-6.8047 0.20312-7.6914 1.3789-4.8008 6.5273-5.0156 13.188-5.293 19.836-0.046875 0.94922 1.1055 1.7148 3.9844 2.1953 1.8242 0.3125 3.4922 0.73047 0.57422 1.2227-3.625 0.60156-4.0664 1.6094-3.9609 2.6641 0.16797 1.6328 0.70703 3.2539 1.0078 4.8594 1.1406 5.9023 2.4258 11.809 3.3359 17.734 0.32422 2.1367 0.38281 4.2734 0.33594 6.4062l-0.14453 3.2148c-0.058594 1.1523-0.14453 2.293-0.20313 2.1953-0.25391 0.94922-0.37109 1.6211 0.85156 3.1328 0.61328 0.82812 1.4297 1.4883 7.668 5.9414-6.5508-3.457-7.5-3.9258-7.1758-3.2148 0.58984 1.2227 0.94922 2.4258 1.2109 3.6016l-1.1172 0.33594c-0.67187 0.19141-1.8125-0.26562-2.543-0.21484-0.21484 0.011718-0.37109 0.15625 0.20312 1.5117 0.71875 1.5859 2.0508 4.5117 3.2031 7.0078-5.3867-8.4375-6.0117-10.668-5.6289-8.1484 0.53906 2.9531-0.12109 4.6914-1.6914 0.33594-0.25391-0.71875-0.40625-0.74219-0.49219-0.45703-0.21484 0.75781-0.5625 1.0547-0.92578 1.1055-0.45703 0.035156-0.42187-0.17969-1.8359-0.42188-2.207-0.50391-4.4141-1.1875-6.6367-0.33594-4.9805 1.8711-10.043 0.91016-15.059 1.4414-1.1523 0.13281-2.293 1.1406-3.4219 2.0508-1.7773 1.4531-1.7656 1.5703-2.5938-6.0352l-0.19141-0.625c-1.9219-0.37109-1.9453-0.3125-2.6172 5.9883l0.26562 1.6797c-0.058594-0.22656-0.14453-0.40625-0.17969-0.66016-0.011719-0.32422-0.035156-0.71875-0.058593-1.0938l-0.875-8.7344 0.023437 0.085938c-2.125 1.1992-4.2461 2.6758-6.0234-3.3828-0.26563-0.88672-0.875-1.3789-1.2461-1.1055-1.7891 1.3672-3.8047-0.30078-5.3633 4.8242-0.49219 1.5859-1.6211 1.0664-2.4609 1.5234l-0.097656 0.28906c-1.1406 2.3984-2.0508-3.2266-2.8438-1.6094-1.7539 3.6367-3.3125 2.1953-5.0039 0.085938-0.34766-0.44531-0.99609-0.23828-1.2344 0.5625-1.1172 3.7695-2.1953 3.7695-3.5039 1.0547-0.55078-1.1406-1.2852 0.42187-1.2734 2.5312 0.046875 7.0938-0.13281 14.398 1.7148 20.051 0.96094 2.9414 1.6445 6.8164 2.5547 9.9492 1.6328 5.6523 3.4062 10.559 5.9141 11.723 0.99609 0.46875 2.1484 1.1992 2.9141 3.1445 2.4102 6.168 5.4727 6.8164 8.0898 11.102 0.85156 1.4023 1.6211 1.4531 2.4961-0.26563 0.96094-1.9336 3.8984-2.8789 5.0898-2.2695 0.28906 0.14453 0.58984-0.011719 0.88672-0.011719l0.023438-2.9883-0.035157 0.10938-0.011719 2.8203c0.32422 2.2188 0.96094 5.6289 1.5117 2.9531 1.1406-5.4375 3.2773-3.3359 4.5-7.7539 0.23828-0.86328 1.6211-0.070313 1.9219 1.2734 1.5 6.6602 3.3828 5.8086 5.1367 2.6758 1.5586-2.7852 2.8438-4.8008 4.3672-0.26562 0.25391 0.75781 0.83984 0.40625 1.2734 0.43359 3.5039 0.023437 6.9961 0.75781 10.477-1.4883 0.52734-0.34766 1.1758 0.17969 1.7031 0.81641 0.33594 0.40625 0.64844 0.73047 0.99609 0.97266 0.61328 0.25391 1.2461 0.42188 1.8594 0.53906 1.2461 0.22656 2.4961 0.21484 3.7188 0.058593 2.4609-0.28906 4.7773-1.1523 7.0312-1.7539 1.4531-0.34766 1.9219-3.8633 3.1914-3.707 1.4648 0.16797 3.6836 3.0977 5.6992 4.2461 1.1992 0.70703 2.4609 0.68359 3.3945 0.35938 4.8242-1.6445 11.172-0.91016 13.414-5.1016zm-16.645-97.402c0.15625 0.097656-0.79297 0.34766-1.2109 0.53906-0.35938-0.097656-0.92578-0.16797-1.0078-0.26562-0.50391-0.67188-0.91016-1.3555-1.332-2.0508l-1.2617-0.10938 1.1992 0.14453c1.2266 0.57813 2.5195 1.1406 3.6133 1.7422zm-75.168 61.836c0.13281-0.97266 0.38281-1.7539 0.58984-2.6172 0.13281 0.74219 0.35938 1.4883 0.35938 2.2422 0 0.64844-0.26562 1.2852-0.40625 1.9336-0.19531-0.53906-0.57812-1.3672-0.54297-1.5586zm83.988-62.52-1.1172 0.12109c0.17969-0.16797 0.37109-0.32422 0.61328-0.53906 0.22656 0.17969 0.37109 0.29687 0.50391 0.41797zm-14.605 52.934 0.50391 0.49219-0.80469-0.57422zm-5.4727-60.277-0.91016-0.14453 0.81641-0.17969z"/>
  <path d="m840.97 392.4c1.7656 1.2109 3.3242 2.1836 3.9102 1.4766 0.85156-1.0195 2.0273-1.7266 2.9883-2.6523 1.043-1.0312 1.6328-2.5664 3.0859-3.1445 1.2109-0.48047 1.9062-0.97266-0.64844-4.2461-0.39453-0.50391-0.070313-1.4766 0.34766-1.2227 4.9805 3.0703 4.8008 1.4297 1.4297-3.2031 1.4766-0.097656-0.71875-4.4023 4.4531-0.30078 1.1055 0.86328 2.9141 1.0312 2.9766 0.30078 0.21484-2.5781-0.94922-6.3945 3.3125-5.0742-2.9766-4.8594 0.91016-2.6992 2.8672-2.6523 3.3242 0.058593 5.9414-0.66016 3.9102-5.832-0.33594-0.875 0.023437-1.7148 0.80469-1.3789 2.2422 0.92578 3.0117 0.27734 3.8047-0.43359l6.457-5.6406c0.32422-0.28906 0.79297-0.82812 0.32422-1.4648-3.9258-5.3984-0.60156-3.9844 1.4766-3.8398 0.78125 0.046875 1.5586-0.26562 1.2461-1.1523-1.0547-2.9648 0.875-2.6758 2.7734-2.6406 1.1172 0.023437 1.3555-1.1523 1.4414-2.2578 0.16797-2.0625-3.4219-7.5586 2.3516-4.4141 0.69531 0.37109 0.85156-0.85156 0.52734-1.8359-1.2617-3.875 3.8516-2.1953 1.1289-7.332-0.15625-0.28906 0.5625-0.21484 1.0312-0.097656 4.9922 1.1992 4.4648-3.0586 4.5-6.5625 0.035156-2.4609-0.28906-5.1133 2.6523-4.6562 2.5078 0.39453-0.64844-3.7422-0.023438-4.4297 0.71875-0.81641 4.6094 1.6445 4.668-0.26563 0.023438-0.5625-0.35938-1.4648-0.66016-2.2695-0.52734-1.3438-1.0664-2.7617-1.6328-4.1992-2.9141-7.1172-7.5117-14.891-15.191-23.879-2.5078-2.9531-4.957-4.6797-6.4219-4.4531-8.0898 1.2852-13.008 5.9141-17.988 10.5-0.71875 0.64844-0.44531 2.0039 1.2344 4.3789 1.0664 1.5117 1.9453 2.9883-0.46875 1.2734-2.9883-2.1367-4.0312-1.7148-4.7031-0.875-1.043 1.2734-1.8359 2.8203-2.7852 4.2109-3.4336 5.0391-6.7578 10.188-10.355 15.07-5.2188 7.0664-13.441 11.16-17.844 19.043-1.1055 1.9688-1.8711 3.8984 1.3438 9.5039-5.3164-3.9375-6.9961-3.6133-8.0508-2.1016-2.7461 4.0195-5.8906 7.668-9.0703 11.27-1.7773 2.0391-4.0078 3.6367-5.8789 5.5938-0.50391 0.52734-1.043 1.2617-0.45703 2.5781 0.69531 1.5117 2.6172 3.7578 4.0938 5.8203-7.4531-4.5-9.6602-5.4258-9.1094-2.4102 0.66016 3.5156 0.61328 6.0117-3.8633 4.3438-0.73047-0.27734-1.1641 0.10938-1.2461 0.60156-0.99609 5.3047-7.2461 5.3516-9.2539 9.7305-2.2422 4.9062-6.5625 7.8594-9.793 11.832-0.73047 0.92578-0.83984 2.4609-0.99609 3.9102-0.25391 2.293-0.15625 2.375-6.1328-2.4102l-0.5625-0.30078c-1.6445 1.1172-1.6211 1.1758 2.3516 6.1328l1.3672 0.98438c-0.20312-0.10938-0.39453-0.19141-0.58984-0.33594-0.25391-0.21484-0.53906-0.46875-0.81641-0.73047l-6.8047-5.543 0.085937 0.035156c-0.68359 2.375-1.1641 4.9453-6.7305 1.9336-0.81641-0.43359-1.5977-0.34766-1.6797 0.13281-0.3125 2.2578-2.9531 2.5078-0.44531 7.2617 0.76953 1.4648-0.40625 1.9062-0.68359 2.832l0.14453 0.26562c0.875 2.5195-3.7578-0.79297-3.168 0.91016 1.3086 3.8281-0.82812 3.9258-3.5273 3.6484-0.5625-0.070313-0.88672 0.55078-0.50391 1.2734 1.8711 3.4805 1.1055 4.2461-1.7773 3.2656-1.1992-0.40625-0.625 1.2344 0.875 2.7109 5.0391 4.9805 10.094 10.273 15.406 12.949 2.7734 1.3906 6 3.6367 8.8672 5.207 5.1602 2.8086 9.9102 5.0156 12.527 4.0312 1.0547-0.38281 2.3867-0.69531 4.3086 0.13281 6.0977 2.6406 8.7461 0.89844 13.656 2.0508 1.6094 0.37109 2.1953-0.14453 1.5977-1.9805-0.67188-2.0508 0.74219-4.8359 2.0508-5.2578 0.30078-0.10938 0.40625-0.43359 0.625-0.64844l-2.1016-2.1367 0.046875 0.10938 1.9922 1.9922c1.8008 1.3438 4.668 3.2891 3.1797 1.0078-3.0234-4.668 0-4.7148-2.2578-8.7227-0.44531-0.78125 1.1172-1.2227 2.2812-0.48047 5.7852 3.6484 6.5391 1.6914 5.5664-1.7891-0.85156-3.0977-1.3555-5.4375 2.9531-3.3242 0.71875 0.34766 0.89844-0.30078 1.2109-0.61328 2.5312-2.4844 5.5664-4.4766 6.4805-8.5664 0.13281-0.63672 0.97266-0.71875 1.8008-0.64844 4.1758 0.39453 4.5-3.0586 5.5195-5.7617 0.32422-0.82812-1.6094-3.8516-0.98438-4.2617 0.71875-0.49219 3.3242 1.043 4.7656 1.2461 0.86328 0.13281 1.3203-0.37109 1.5117-1.0078 0.99609-3.3125 3.7695-5.0625 2.8789-10.094zm35.855-85.738c0.046875 0.16797-0.80469-0.3125-1.2344-0.48047-0.19141-0.3125-0.53906-0.76953-0.52734-0.89844 0.12109-0.83984 0.33594-1.6328 0.52734-2.4102l-0.81641-0.98438 0.74219 0.94922c0.46875 1.293 0.97266 2.6133 1.3086 3.8242zm-115.54 115.09c-0.58984-0.78125-0.97266-1.5234-1.4297-2.2695 0.625 0.43359 1.3086 0.79297 1.8359 1.3203 0.45703 0.45703 0.73047 1.1055 1.0781 1.668-0.51172-0.24219-1.3672-0.55078-1.4844-0.71875zm122.28-109.37-0.875-0.70703c0.23828 0.011719 0.49219 0.023438 0.82813 0.046875 0.011718 0.30078 0.023437 0.49219 0.046874 0.66016zm-57.609 36.949 0.16797 0.53906-0.61328-0.52734zm48.672-56.398-0.53906-0.74219 0.70703 0.45703z"/>
  <path d="m923.75 294.88c2.1133-2.0742 3.8984-4.0547 3.8164-5.6641-0.12109-2.2695 0.22656-4.9336 0.23828-7.332 0-2.6875-0.67188-4.7383-0.035156-7.9062 0.15625-0.78125 0.27734-1.4883 0.26562-2.0039-1.2969 0.035156-3.0469 0.81641-6.4336 3.7305-0.74219 0.63672-2.6992 1.1055-2.4492 0.625 2.9141-5.6992-0.44531-4.4023-6.5273 1.2461-1.1289-0.97266-6.9375 3.625-3.4062-2.9297 0.75781-1.4023-0.38281-2.7969-1.7148-2.3164-4.7773 1.668-9.707 5.1953-11.293 1.2461-4.9688 5.5312-4.8477 1.2461-6.8047-0.15625-3.0859-2.3984-7.6094-3.7422-12.422 1.3555-0.80469 0.83984-2.2695 1.1875-2.7227 0.40625-1.3203-2.2578-3.1562-2.3281-5.0273-2.3867-3.0586-0.070312-3.6836-0.19141-5.2812-0.28906l-4.2109-0.28906c-0.43359-0.023438-1.1289 0.035156-1.2461 0.80469-1.0312 6.6016-2.3633 3.2539-3.707 1.6797-0.50391-0.58984-1.2734-0.91016-1.668-0.070312-1.332 2.8438-2.4727 1.2617-3.7695-0.10938-0.76953-0.79297-1.7539-0.13281-2.5664 0.58984-1.5469 1.332-2.8789 7.7539-4.7148 1.4531-0.22656-0.74219-1.1875 0-1.6562 0.92578-1.8242 3.6367-4.2109-1.1758-5.8906 4.3789-0.097656 0.32422-0.53906-0.25391-0.79297-0.67188-2.6523-4.3672-5.2422-0.99609-7.7031 1.4648-1.7383 1.7148-3.3594 3.8164-5.0898 1.4023-1.4766-2.0508-2.1602 3.1094-3.0703 3.1562-1.0664 0.070312-2.0625-4.4141-3.4453-3.1094-0.40625 0.37109-0.76953 1.2852-1.1289 2.0625-0.57422 1.332-1.1758 2.7227-1.7891 4.1289-2.9297 7.0938-5.1367 15.84-6.0469 27.637-0.30078 3.8516 0.19141 6.8047 1.3789 7.6914 6.5273 4.8008 13.188 5.0156 19.836 5.293 0.96094 0.046875 1.7148-1.1172 2.1953-3.9727 0.30078-1.8242 0.73047-3.4922 1.2109-0.58984 0.60156 3.625 1.6094 4.0664 2.6641 3.9609 1.6328-0.16797 3.2539-0.70703 4.8711-1.0078 5.9023-1.1406 11.809-2.4258 17.723-3.3359 2.1367-0.32422 4.2734-0.38281 6.4219-0.33594l3.2148 0.15625c1.1406 0.058593 2.293 0.13281 2.1836 0.20312 0.94922 0.25391 1.6094 0.37109 3.1328-0.85156 0.82812-0.61328 1.4883-1.4297 5.9414-7.668-3.457 6.5391-3.9258 7.5-3.2148 7.1758 1.2227-0.60156 2.4258-0.94922 3.5898-1.2227l0.34766 1.1289c0.17969 0.67188-0.27734 1.8125-0.21484 2.543 0.011719 0.21484 0.15625 0.37109 1.5-0.20312 1.5859-0.73047 4.5117-2.0625 7.0195-3.2148-8.4492 5.3867-10.68 6.0234-8.1484 5.6406 2.9531-0.55078 4.6797 0.12109 0.33594 1.6914-0.71875 0.25391-0.74219 0.40625-0.46875 0.49219 0.75781 0.20313 1.0547 0.5625 1.1055 0.92578 0.046875 0.44531-0.16797 0.42188-0.42188 1.8359-0.50391 2.207-1.1875 4.4141-0.34766 6.6367 1.8828 4.9805 0.91016 10.043 1.4531 15.07 0.13281 1.1523 1.1406 2.293 2.0508 3.4219 1.4531 1.7656 1.5703 1.7656-6.0352 2.5938l-0.625 0.19141c-0.38281 1.9219-0.3125 1.9453 6 2.6289l1.668-0.26562c-0.21484 0.058594-0.40625 0.15625-0.64844 0.17969-0.32422 0.023438-0.71875 0.046876-1.0938 0.070313l-8.7344 0.86328 0.085938-0.023437c1.1875 2.1367 2.6758 4.2461-3.3828 6.0234-0.88672 0.26562-1.3789 0.875-1.1055 1.2461 1.3672 1.7891-0.30078 3.8047 4.8242 5.375 1.5859 0.48047 1.0664 1.6211 1.5117 2.4492l0.30078 0.097656c2.3984 1.1406-3.2266 2.0508-1.6094 2.832 3.6367 1.7656 2.1953 3.3125 0.085938 5.0039-0.44531 0.34766-0.22656 1.0078 0.55078 1.2461 3.7812 1.1172 3.7812 2.1836 1.0547 3.5039-1.1406 0.55078 0.43359 1.2852 2.5312 1.2734 7.0938-0.046875 14.398 0.13281 20.051-1.7148 2.9531-0.96094 6.8164-1.6562 9.9609-2.5547 5.6406-1.6445 10.559-3.4062 11.711-5.9297 0.48047-0.99609 1.1992-2.1484 3.1445-2.9023 6.168-2.4102 6.8281-5.4727 11.102-8.0898 1.4023-0.85156 1.4531-1.6328-0.27734-2.4961-1.9336-0.96094-2.8906-3.8867-2.2695-5.0898 0.13281-0.28906-0.011719-0.58984-0.011719-0.875l-3-0.035156 0.10938 0.046875h2.832c2.2188-0.3125 5.6289-0.94922 2.9531-1.5117-5.4375-1.1523-3.3359-3.2773-7.7539-4.5117-0.86328-0.23828-0.070313-1.6211 1.2734-1.9219 6.6602-1.4883 5.8086-3.3828 2.6758-5.1367-2.7852-1.5586-4.8008-2.832-0.26562-4.3672 0.75781-0.25391 0.42188-0.82812 0.43359-1.2617 0.023437-3.5039 0.76953-7.0078-1.4883-10.477-0.34766-0.53906 0.17969-1.1875 0.81641-1.7148 0.40625-0.32422 0.73047-0.64844 0.97266-0.99609 0.25391-0.625 0.42188-1.2344 0.52734-1.8594 0.22656-1.2461 0.21484-2.4961 0.070312-3.7188-0.30078-2.4609-1.1523-4.7773-1.7539-7.043-0.35938-1.4414-3.8633-1.9062-3.7188-3.1914 0.16797-1.4648 3.0977-3.6836 4.2617-5.7109 0.70703-1.1992 0.68359-2.4609 0.37109-3.3945-1.6445-4.8125-0.91016-11.172-5.1016-13.414zm-97.391 16.645c0.085937-0.15625 0.34766 0.78125 0.52734 1.2227-0.085937 0.34766-0.15625 0.92578-0.25391 1.0078-0.67188 0.50391-1.3672 0.89844-2.0508 1.3203l-0.12109 1.2734 0.14453-1.1992c0.57813-1.2383 1.1406-2.5312 1.7539-3.625zm61.824 75.18c-0.97266-0.13281-1.7656-0.37109-2.6172-0.58984 0.74219-0.13281 1.4883-0.34766 2.2422-0.34766 0.64844 0 1.2852 0.25391 1.9453 0.39453-0.55078 0.19531-1.3789 0.57812-1.5703 0.54297zm-62.531-84 0.12109 1.1172c-0.15625-0.17969-0.32422-0.35938-0.53906-0.61328 0.19141-0.23828 0.30859-0.37109 0.41797-0.50391zm52.945 14.605 0.50391-0.50391-0.57422 0.80469zm-60.277 5.4609-0.14453 0.91016-0.17969-0.81641z"/>
  <path d="m359.03 807.6c-1.7656-1.2109-3.3242-2.1836-3.9102-1.4766-0.85156 1.0195-2.0273 1.7266-2.9883 2.6523-1.043 1.0312-1.6328 2.5664-3.0859 3.1445-1.2109 0.48047-1.9062 0.97266 0.64844 4.2461 0.39453 0.50391 0.070313 1.4766-0.34766 1.2227-4.9805-3.0703-4.8008-1.4297-1.4297 3.2031-1.4766 0.097656 0.71875 4.4023-4.4531 0.30078-1.1055-0.86328-2.9141-1.0312-2.9766-0.30078-0.21484 2.5781 0.94922 6.3945-3.3125 5.0742 2.9766 4.8594-0.91016 2.6992-2.8672 2.6523-3.3242-0.058593-5.9414 0.66016-3.9102 5.832 0.33594 0.875-0.023437 1.7148-0.80469 1.3789-2.2422-0.92578-3.0117-0.27734-3.8047 0.43359l-6.457 5.6406c-0.32422 0.28906-0.79297 0.82812-0.32422 1.4648 3.9258 5.3984 0.60156 3.9844-1.4766 3.8398-0.78125-0.046875-1.5586 0.26562-1.2461 1.1523 1.0547 2.9648-0.875 2.6758-2.7734 2.6406-1.1172-0.023437-1.3555 1.1523-1.4414 2.2578-0.16797 2.0625 3.4219 7.5586-2.3516 4.4141-0.69531-0.37109-0.85156 0.85156-0.52734 1.8359 1.2617 3.875-3.8516 2.1953-1.1289 7.332 0.15625 0.28906-0.5625 0.21484-1.0312 0.097656-4.9922-1.1992-4.4648 3.0586-4.5 6.5625-0.035156 2.4609 0.28906 5.1133-2.6523 4.6562-2.5078-0.39453 0.64844 3.7422 0.023438 4.4297-0.71875 0.81641-4.6094-1.6445-4.668 0.26563-0.023438 0.5625 0.35938 1.4648 0.66016 2.2695 0.52734 1.3438 1.0664 2.7617 1.6328 4.1992 2.9141 7.1172 7.5117 14.891 15.191 23.879 2.5078 2.9531 4.957 4.6797 6.4219 4.4531 8.0898-1.2852 13.008-5.9141 17.988-10.5 0.71875-0.64844 0.44531-2.0039-1.2344-4.3789-1.0664-1.5117-1.9453-2.9883 0.46875-1.2734 2.9883 2.1367 4.0312 1.7148 4.7031 0.875 1.043-1.2734 1.8359-2.8203 2.7852-4.2109 3.4336-5.0391 6.7578-10.188 10.355-15.07 5.2188-7.0664 13.441-11.16 17.844-19.043 1.1055-1.9688 1.8711-3.8984-1.3438-9.5039 5.3164 3.9375 6.9961 3.6133 8.0508 2.1016 2.7461-4.0195 5.8906-7.668 9.0703-11.27 1.7773-2.0391 4.0078-3.6367 5.8789-5.5938 0.50391-0.52734 1.043-1.2617 0.45703-2.5781-0.69531-1.5117-2.6172-3.7578-4.0938-5.8203 7.4531 4.5 9.6602 5.4258 9.1094 2.4102-0.66016-3.5156-0.61328-6.0117 3.8633-4.3438 0.73047 0.27734 1.1641-0.10938 1.2461-0.60156 0.99609-5.3047 7.2461-5.3516 9.2539-9.7305 2.2422-4.9062 6.5625-7.8594 9.793-11.832 0.73047-0.92578 0.83984-2.4609 0.99609-3.9102 0.25391-2.293 0.15625-2.375 6.1328 2.4102l0.5625 0.30078c1.6445-1.1172 1.6211-1.1758-2.3516-6.1328l-1.3672-0.98438c0.20312 0.10938 0.39453 0.19141 0.58984 0.33594 0.25391 0.21484 0.53906 0.46875 0.81641 0.73047l6.8047 5.543-0.085937-0.035156c0.68359-2.375 1.1641-4.9453 6.7305-1.9336 0.81641 0.43359 1.5977 0.34766 1.6797-0.13281 0.3125-2.2578 2.9531-2.5078 0.44531-7.2617-0.76953-1.4648 0.40625-1.9062 0.68359-2.832l-0.14453-0.26562c-0.875-2.5195 3.7578 0.79297 3.168-0.91016-1.3086-3.8281 0.82812-3.9258 3.5273-3.6484 0.5625 0.070313 0.88672-0.55078 0.50391-1.2734-1.8711-3.4805-1.1055-4.2461 1.7773-3.2656 1.1992 0.40625 0.625-1.2344-0.875-2.7109-5.0391-4.9805-10.094-10.273-15.406-12.949-2.7734-1.3906-6-3.6367-8.8672-5.207-5.1602-2.8086-9.9102-5.0156-12.527-4.0312-1.0547 0.38281-2.3867 0.69531-4.3086-0.13281-6.0977-2.6406-8.7461-0.89844-13.656-2.0508-1.6094-0.37109-2.1953 0.14453-1.5977 1.9805 0.67188 2.0508-0.74219 4.8359-2.0508 5.2578-0.30078 0.10938-0.40625 0.43359-0.625 0.64844l2.1016 2.1367-0.046875-0.10938-1.9922-1.9922c-1.8008-1.3438-4.668-3.2891-3.1797-1.0078 3.0234 4.668 0 4.7148 2.2578 8.7227 0.44531 0.78125-1.1172 1.2227-2.2812 0.48047-5.7852-3.6484-6.5391-1.6914-5.5664 1.7891 0.85156 3.0977 1.3555 5.4375-2.9531 3.3242-0.71875-0.34766-0.89844 0.30078-1.2109 0.61328-2.5312 2.4844-5.5664 4.4766-6.4805 8.5664-0.13281 0.63672-0.97266 0.71875-1.8008 0.64844-4.1758-0.39453-4.5 3.0586-5.5195 5.7617-0.32422 0.82812 1.6094 3.8516 0.98438 4.2617-0.71875 0.49219-3.3242-1.043-4.7656-1.2461-0.86328-0.13281-1.3203 0.37109-1.5117 1.0078-0.99609 3.3125-3.7695 5.0625-2.8789 10.094zm-35.855 85.738c-0.046875-0.16797 0.80469 0.3125 1.2344 0.48047 0.19141 0.3125 0.53906 0.76953 0.52734 0.89844-0.12109 0.83984-0.33594 1.6328-0.52734 2.4102l0.81641 0.98438-0.74219-0.94922c-0.46875-1.293-0.97266-2.6133-1.3086-3.8242zm115.54-115.09c0.58984 0.78125 0.97266 1.5234 1.4297 2.2695-0.625-0.43359-1.3086-0.79297-1.8359-1.3203-0.45703-0.45703-0.73047-1.1055-1.0781-1.668 0.51172 0.24219 1.3672 0.55078 1.4844 0.71875zm-122.28 109.37 0.875 0.70703c-0.23828-0.011719-0.49219-0.023438-0.82813-0.046875-0.011718-0.30078-0.023437-0.49219-0.046874-0.66016zm57.609-36.949-0.16797-0.53906 0.61328 0.52734zm-48.672 56.398 0.53906 0.74219-0.70703-0.45703z"/>
  <path d="m326.61 876.57c1.2969-2.1133 2.4727-3.8984 2.2695-3.8047-0.32422 0.12109-0.28906-0.23828-0.50391-0.25391-0.21484-0.011719-1.1289 0.67188-0.78125 0.046875 0.097656-0.15625 0.15625-0.27734 0.10938-0.26562 0 0-0.81641 0.625-3.7305 3.2891-0.625 0.58984-1.0938 0.74219-0.61328 0.26562 5.6875-5.5781 4.4023-4.2461-1.2461 0.097657 0.98438-1.0547-3.625 1.7773 2.9414-3.2383 1.3906-1.0664 2.7969-2.2422 2.3164-1.9922-1.668 0.88672-5.1953 2.1016-1.2461-0.40625-5.5312 2.3398-1.2461-0.16797 0.15625-0.86328 2.3867-1.4531 3.7305-1.5859-1.3555-1.1758-0.85156 0.058593-1.1875-0.14453-0.40625-0.3125 2.2422-0.51563 2.3281-0.66016 2.3867-0.86328 0.070312 0.25391 0.19141-1.9453 0.30078-3.1562l0.27734-4.2109c0.023437-0.43359-0.023438-1.1289-0.80469-1.2461-6.6016-1.0312-3.2539-2.3516-1.6797-3.707 0.58984-0.50391 0.92578-1.2734 0.070312-1.668-2.8438-1.3203-1.2734-2.4727 0.097656-3.7695 0.80469-0.76953 0.14453-1.7539-0.57422-2.5781-1.332-1.5469-7.7539-2.8789-1.4531-4.7148 0.75781-0.22656 0-1.1992-0.92578-1.6562-3.6367-1.8242 1.1758-4.2227-4.3789-5.8906-0.32422-0.10938 0.25391-0.55078 0.67188-0.78125 4.3672-2.6523 0.99609-5.2578-1.4648-7.7148-1.7148-1.7383-3.8164-3.3594-1.4141-5.1016 2.0625-1.4648-3.1094-2.1602-3.1562-3.0586-0.058594-1.0781 4.4141-2.0742 3.1211-3.4453-0.38281-0.39453-1.2969-0.76953-2.0742-1.1289-1.3203-0.57422-2.7109-1.1875-4.1172-1.7891-7.0938-2.9141-15.84-5.1367-27.637-6.0586-3.8633-0.28906-6.8047 0.20312-7.6914 1.3789-4.8008 6.5273-5.0156 13.188-5.293 19.836-0.046875 0.94922 1.1055 1.7148 3.9844 2.1953 1.8242 0.3125 3.4922 0.73047 0.57422 1.2227-3.625 0.60156-4.0664 1.6094-3.9609 2.6641 0.16797 1.6328 0.70703 3.2539 1.0078 4.8594 1.1406 5.9023 2.4258 11.809 3.3359 17.734 0.32422 2.1367 0.38281 4.2734 0.33594 6.4062l-0.34766 7.4531c-0.25391 7.6211-0.37109 15.527 0.85156 22.586 0.61328 3.4336 1.4297 6.5508 7.668 5.4102-6.5508 5.375-7.5 8.6641-7.1758 11.508 0.58984 4.9805 0.94922 9.9961 1.2109 15.059l8.5664-0.33594c4.6562-0.19141 8.832 0.26562 13.43 0.21484 1.2344-0.011719 2.8555-0.15625 4.4297-1.5117 1.8125-1.5586 3.7305-4.5 5.6172-7.0078-1.2734 8.4375-0.10938 10.668 3.6836 8.1484 4.5469-2.9531 7.4023-4.6914 9.7578-0.33594 0.39453 0.71875 1.3672 0.74219 2.1016 0.45703 1.9922-0.75781 3.8281-1.0547 5.6641-1.1055 1.7539-0.035156 3.9844 0.17969 4.7539 0.42188 2.207 0.50391 4.4141 1.1875 6.6367 0.33594 4.9805-1.8711 10.043-0.91016 15.059-1.4414 1.1523-0.13281 2.293-1.1406 3.4219-2.0508 1.7773-1.4531 1.7656-1.5703 2.5938 6.0352l0.19141 0.625c1.9219 0.37109 1.9453 0.3125 2.6172-5.9883l-0.26562-1.6797c0.058594 0.22656 0.14453 0.40625 0.17969 0.66016 0.011719 0.32422 0.035156 0.71875 0.058593 1.0938l0.875 8.7344-0.023437-0.085937c2.125-1.1992 4.2461-2.6758 6.0234 3.3828 0.26563 0.88672 0.875 1.3789 1.2461 1.1055 1.7891-1.3672 3.8047 0.30078 5.3633-4.8242 0.49219-1.5859 1.6211-1.0664 2.4609-1.5234l0.097656-0.28906c1.1406-2.3984 2.0508 3.2266 2.8438 1.6094 1.7539-3.6367 3.3125-2.1953 5.0039-0.085937 0.34766 0.44531 0.99609 0.23828 1.2344-0.5625 1.1172-3.7695 2.1953-3.7695 3.5039-1.0547 0.55078 1.1406 1.2852-0.42188 1.2734-2.5312-0.046875-7.0938 0.13281-14.398-1.7148-20.051-0.96094-2.9414-1.6445-6.8164-2.5547-9.9492-1.6328-5.6523-3.4062-10.559-5.9141-11.723-0.99609-0.46875-2.1484-1.1992-2.9141-3.1445-2.4102-6.168-5.4727-6.8164-8.0898-11.102-0.85156-1.4023-1.6211-1.4531-2.4961 0.26562-0.96094 1.9336-3.8984 2.8789-5.0898 2.2695-0.28906-0.14453-0.58984 0.011718-0.88672 0.011718l-0.023438 2.9883 0.035157-0.10938 0.011719-2.8203c-0.32422-2.2188-0.96094-5.6289-1.5117-2.9531-1.1406 5.4375-3.2773 3.3359-4.5 7.7539-0.23828 0.86328-1.6211 0.070313-1.9219-1.2734-1.5-6.6602-3.3828-5.8086-5.1367-2.6758-1.5586 2.7852-2.8438 4.8008-4.3672 0.26563-0.25391-0.75781-0.83984-0.40625-1.2734-0.43359-3.5039-0.023438-6.9961-0.75781-10.477 1.4883-0.52734 0.34766-1.1758-0.17969-1.7031-0.81641-0.32422-0.40625-0.67187-0.73047-0.97266-0.97266-0.046875-0.21484-0.085937-0.38281-0.10938-0.53906-0.070312-0.22656-0.13281-0.21484-0.21484-0.058594-0.16797 0.28906-0.45703 1.1523-0.80469 1.7539-0.16797 0.34766-1.2109 3.8633-1.4023 3.707-0.20312-0.16797 0.51562-3.0977 0.81641-4.2461 0.16797-0.70703 0.097657-0.68359-0.10937-0.35938-1.2109 1.6445-1.1523 0.91016-4.668 5.1016zm-38.449-50.23c0.15625 0.097656-0.79297 0.34766-1.2109 0.53906-0.35937-0.097656-0.92578-0.16797-1.0078-0.26562-0.50391-0.67188-0.91016-1.3555-1.332-2.0508l-1.2617-0.10938 1.1992 0.14453c1.2266 0.57813 2.5195 1.1406 3.6133 1.7422zm98.531 85.812c-0.13281 0.97266-0.38281 1.7539-0.58984 2.6172-0.13281-0.74219-0.35938-1.4883-0.35938-2.2422 0-0.64844 0.26562-1.2852 0.40625-1.9336 0.19531 0.53906 0.57812 1.3555 0.54297 1.5586zm-89.711-86.496-1.1172 0.12109c0.17969-0.16797 0.37109-0.32422 0.61328-0.53906 0.22656 0.17969 0.37109 0.29687 0.50391 0.41797zm-14.617 78.805 0.50391 0.023437-0.80469 0.68359zm-5.4609-86.148-0.91016-0.14453 0.81641-0.17969z"/>
  <path d="m392.4 359.04c1.2109-1.7656 2.1836-3.3242 1.4766-3.9102-1.0195-0.85156-1.7148-2.0391-2.6406-2.9883-1.0312-1.043-2.5664-1.6328-3.1445-3.0859-0.46875-1.2227-0.97266-1.9062-4.2461 0.64844-0.50391 0.38281-1.4766 0.070313-1.2227-0.34766 3.0703-4.9805 1.4414-4.7891-3.2031-1.4141-0.085938-1.4766-4.4023 0.71875-0.30078-4.4531 0.875-1.1055 1.0312-2.9141 0.3125-2.9766-2.5781-0.22656-6.4062 0.94922-5.0742-3.3125-4.8594 2.9648-2.6875-0.91016-2.6523-2.8672 0.058594-3.3125-0.66016-5.9297-5.832-3.9102-0.875 0.33594-1.7031-0.023437-1.3789-0.79297 0.92578-2.2578 0.27734-3.0117-0.43359-3.8047l-5.6406-6.457c-0.28906-0.32422-0.82812-0.79297-1.4648-0.32422-5.3984 3.9258-3.9844 0.60156-3.8398-1.4766 0.046875-0.76953-0.26562-1.5586-1.1523-1.2461-2.9648 1.0547-2.6758-0.875-2.6406-2.7852 0.011719-1.1172-1.1523-1.3438-2.2578-1.4297-2.0508-0.16797-7.5469 3.4219-4.4141-2.3516 0.37109-0.69531-0.85156-0.85156-1.8359-0.52734-3.875 1.2461-2.1953-3.8516-7.332-1.1406-0.30078 0.16797-0.21484-0.5625-0.097657-1.043 1.1875-4.9805-3.0586-4.4531-6.5625-4.5-2.4609-0.035157-5.1133 0.28906-4.6562-2.6523 0.39453-2.5078-3.7422 0.64844-4.4297 0.023437-0.81641-0.71875 1.6328-4.6094-0.26562-4.668-0.55078-0.023438-1.4648 0.35938-2.2695 0.66016-1.3555 0.51562-2.7617 1.0664-4.1992 1.6328-7.1172 2.9023-14.891 7.5117-23.891 15.191-2.9531 2.5078-4.6797 4.957-4.4531 6.4219 1.2969 8.0898 5.9141 13.02 10.5 17.988 0.64844 0.73047 2.0039 0.44531 4.3906-1.2461 1.5117-1.0547 2.9883-1.9336 1.2734 0.46875-2.1367 2.9883-1.7148 4.0312-0.88672 4.7148 1.2852 1.043 2.8203 1.8242 4.2109 2.7734 5.0391 3.4336 10.199 6.7578 15.07 10.355 7.0664 5.2305 11.16 13.43 19.043 17.844 1.9688 1.1055 3.8984 1.8711 9.5039-1.3438-3.9375 5.3164-3.6133 7.0078-2.1016 8.0508 4.0195 2.7461 7.668 5.8906 11.281 9.0703 2.0391 1.7773 3.6367 4.0195 5.5781 5.8789 0.52734 0.51562 1.2617 1.0547 2.5781 0.45703 1.5117-0.69531 3.7578-2.6172 5.8203-4.1055-4.5 7.4531-5.4258 9.6719-2.4258 9.1094 3.5273-0.66016 6.0117-0.61328 4.3438 3.8633-0.26563 0.74219 0.10937 1.1641 0.61328 1.2461 5.3047 1.0078 5.3516 7.2461 9.7305 9.2539 4.9062 2.2422 7.8477 6.5742 11.832 9.793 0.91016 0.74219 2.4609 0.83984 3.8984 1.0078 2.3047 0.25391 2.375 0.15625-2.3984 6.1328l-0.30078 0.57422c1.1172 1.6445 1.1758 1.6211 6.1211-2.3516l0.99609-1.3672c-0.10938 0.20313-0.17969 0.38281-0.33594 0.58984-0.22656 0.25391-0.48047 0.53906-0.73047 0.81641l-5.543 6.793 0.035156-0.085937c2.3633 0.69531 4.9453 1.1758 1.9336 6.7305-0.44531 0.81641-0.34766 1.6094 0.12109 1.6797 2.2578 0.3125 2.5195 2.9531 7.2734 0.44531 1.4766-0.76953 1.9219 0.40625 2.832 0.69531l0.27734-0.15625c2.5078-0.875-0.80469 3.7578 0.89844 3.1797 3.8398-1.3086 3.9375 0.82813 3.6484 3.5273-0.058593 0.57422 0.55078 0.88672 1.2852 0.49219 3.4688-1.8594 4.2461-1.0938 3.2539 1.7773-0.40625 1.1992 1.2344 0.625 2.7109-0.875 4.9805-5.0508 10.273-10.094 12.949-15.406 1.3906-2.7734 3.6367-6 5.207-8.8672 2.8086-5.1719 5.0156-9.9102 4.0312-12.527-0.39453-1.0547-0.70703-2.3867 0.13281-4.3086 2.6289-6.0977 0.89844-8.7461 2.0391-13.656 0.38281-1.6094-0.14453-2.1953-1.9805-1.5977-2.0508 0.67188-4.8359-0.75781-5.2578-2.0508-0.10938-0.30078-0.43359-0.40625-0.63672-0.63672l-2.1367 2.1133 0.097656-0.046876 2.0039-1.9922c1.3438-1.8008 3.2891-4.6797 0.99609-3.1914-4.668 3.0234-4.7148 0-8.7227 2.2578-0.78125 0.43359-1.2109-1.1172-0.48047-2.293 3.6367-5.7734 1.6797-6.5273-1.7891-5.5664-3.0977 0.85156-5.4375 1.3555-3.3242-2.9414 0.34766-0.73047-0.3125-0.89844-0.61328-1.2227-2.4961-2.543-4.4883-5.5781-8.5664-6.4805-0.63672-0.13281-0.71875-0.96094-0.64844-1.7891 0.40625-4.1875-3.0469-4.5-5.7617-5.5312-0.83984-0.3125-3.8516 1.6211-4.2734 0.98438-0.48047-0.71875 1.0547-3.3242 1.2617-4.7656 0.12109-0.86328-0.37109-1.3203-1.0078-1.5117-3.3242-1.0078-5.0625-3.7812-10.094-2.8906zm-85.75-35.867c0.16797-0.046875-0.30078 0.80469-0.48047 1.2461-0.3125 0.20312-0.76953 0.55078-0.89844 0.52734-0.85156-0.13281-1.6328-0.32422-2.4102-0.52734l-0.98438 0.80469 0.94922-0.74219c1.293-0.45703 2.625-0.97266 3.8242-1.3086zm115.11 115.55c-0.78125 0.58984-1.5234 0.97266-2.2812 1.4141 0.44531-0.625 0.80469-1.2969 1.332-1.8359 0.46875-0.45703 1.1055-0.71875 1.668-1.0781-0.25391 0.52734-0.56641 1.3711-0.71875 1.5zm-109.37-122.29-0.70703 0.875c0.011719-0.25391 0.023438-0.49219 0.046875-0.81641 0.30078-0.023437 0.49219-0.035156 0.66016-0.058593zm36.949 57.621 0.53906-0.17969-0.52734 0.61328zm-56.398-48.684-0.74219 0.53906 0.45703-0.70703z"/>
  <path d="m323.43 326.62c2.1133 1.2969 3.8984 2.4727 3.8164 2.2578-0.12109-0.32422 0.22656-0.28906 0.23828-0.49219 0-0.22656-0.67188-1.1289-0.035157-0.78125 0.15625 0.097657 0.27734 0.16797 0.26563 0.10938 0 0-0.625-0.81641-3.3008-3.7305-0.58984-0.63672-0.74219-1.1055-0.26562-0.625 5.5781 5.6992 4.2461 4.4023-0.085937-1.2461 1.043 0.97266-1.7891-3.625 3.2266 2.9297 1.0664 1.4023 2.2422 2.7969 2.0039 2.3164-0.89844-1.668-2.1016-5.1953 0.39453-1.2461-2.3398-5.5312 0.16797-1.2461 0.875 0.15625 1.4531 2.3984 1.5859 3.7422 1.1641-1.3555-0.058594-0.83984 0.14453-1.1875 0.32422-0.40625 0.50391 2.2578 0.64844 2.3281 0.85156 2.3867-0.25391 0.070313 1.9453 0.19141 3.1562 0.28906l4.2109 0.28906c0.43359 0.023438 1.1289-0.035156 1.2461-0.80469 1.0312-6.6016 2.3633-3.2539 3.707-1.6797 0.50391 0.58984 1.2734 0.91016 1.668 0.070313 1.332-2.8438 2.4727-1.2617 3.7695 0.10937 0.76953 0.79297 1.7539 0.13281 2.5664-0.58984 1.5469-1.332 2.8789-7.7539 4.7148-1.4531 0.22656 0.74219 1.1875 0 1.6562-0.92578 1.8242-3.6367 4.2109 1.1758 5.8906-4.3789 0.097656-0.32422 0.53906 0.25391 0.79297 0.67188 2.6523 4.3672 5.2422 0.99609 7.7031-1.4648 1.7383-1.7148 3.3594-3.8164 5.0898-1.4023 1.4766 2.0508 2.1602-3.1094 3.0703-3.1562 1.0664-0.070313 2.0625 4.4141 3.4453 3.1094 0.40625-0.37109 0.76953-1.2852 1.1289-2.0625 0.57422-1.332 1.1758-2.7227 1.7891-4.1289 2.9297-7.0938 5.1367-15.84 6.0469-27.637 0.30078-3.8516-0.19141-6.8047-1.3789-7.6914-6.5273-4.8008-13.188-5.0156-19.836-5.293-0.96094-0.046875-1.7148 1.1172-2.1953 3.9727-0.30078 1.8242-0.73047 3.4922-1.2109 0.58984-0.60156-3.625-1.6094-4.0664-2.6641-3.9609-1.6328 0.16797-3.2539 0.70703-4.8711 1.0078-5.9023 1.1406-11.809 2.4258-17.723 3.3359-2.1367 0.32422-4.2734 0.38281-6.4219 0.33594l-7.4531-0.34766c-7.6211-0.25391-15.527-0.37109-22.586 0.85156-3.4336 0.61328-6.5508 1.4297-5.4258 7.668-5.375-6.5391-8.6523-7.5-11.496-7.1758-4.9922 0.60156-9.9961 0.94922-15.059 1.2227l0.34766 8.5781c0.17969 4.6562-0.27734 8.832-0.21484 13.43 0.011719 1.2344 0.15625 2.8555 1.5 4.4297 1.5586 1.8008 4.5117 3.7305 7.0195 5.6055-8.4492-1.2617-10.68-0.10938-8.1484 3.6953 2.9531 4.5469 4.6797 7.4023 0.33594 9.7578-0.71875 0.39453-0.74219 1.3555-0.46875 2.1016 0.75781 1.9922 1.0547 3.8281 1.1055 5.6641 0.046875 1.7539-0.16797 3.9727-0.42188 4.7539-0.50391 2.207-1.1875 4.4141-0.34766 6.6367 1.8828 4.9805 0.91016 10.043 1.4531 15.07 0.13281 1.1523 1.1406 2.293 2.0508 3.4219 1.4531 1.7656 1.5703 1.7656-6.0352 2.5938l-0.625 0.19141c-0.38281 1.9219-0.3125 1.9453 6 2.6289l1.668-0.26562c-0.21484 0.058593-0.40625 0.15625-0.64844 0.17969-0.32422 0.023437-0.71875 0.046875-1.0938 0.070313l-8.7344 0.86328 0.085938-0.023438c1.1875 2.1367 2.6758 4.2461-3.3828 6.0234-0.88672 0.26562-1.3789 0.875-1.1055 1.2461 1.3672 1.7891-0.30078 3.8047 4.8242 5.375 1.5859 0.48047 1.0664 1.6211 1.5117 2.4492l0.30078 0.097657c2.3984 1.1406-3.2266 2.0508-1.6094 2.832 3.6367 1.7656 2.1953 3.3125 0.085938 5.0039-0.44531 0.34766-0.22656 1.0078 0.55078 1.2461 3.7812 1.1172 3.7812 2.1836 1.0547 3.5039-1.1406 0.55078 0.43359 1.2852 2.5312 1.2734 7.0938-0.046874 14.398 0.13281 20.051-1.7148 2.9531-0.96094 6.8164-1.6562 9.9609-2.5547 5.6406-1.6445 10.559-3.4062 11.711-5.9297 0.48047-0.99609 1.1992-2.1484 3.1445-2.9023 6.168-2.4102 6.8281-5.4727 11.102-8.0898 1.4023-0.85156 1.4531-1.6328-0.27734-2.4961-1.9336-0.96094-2.8906-3.8867-2.2695-5.0898 0.13281-0.28906-0.011719-0.58984-0.011719-0.875l-3-0.035157 0.10938 0.046876h2.832c2.2188-0.3125 5.6289-0.94922 2.9531-1.5117-5.4375-1.1523-3.3359-3.2773-7.7539-4.5117-0.86328-0.23828-0.070313-1.6211 1.2734-1.9219 6.6602-1.4883 5.8086-3.3828 2.6758-5.1367-2.7852-1.5586-4.8008-2.832-0.26562-4.3672 0.75781-0.25391 0.42187-0.82812 0.43359-1.2617 0.023438-3.5039 0.76953-7.0078-1.4883-10.477-0.34766-0.53906 0.17969-1.1875 0.81641-1.7148 0.40625-0.32422 0.73047-0.67188 0.97266-0.98438 0.21484-0.035157 0.38281-0.070313 0.52734-0.10938 0.22656-0.070313 0.21484-0.13281 0.070313-0.22656-0.30078-0.16797-1.1523-0.44531-1.7539-0.79297-0.35937-0.16797-3.8633-1.2109-3.7188-1.3906 0.16797-0.21484 3.0977 0.51562 4.2617 0.80469 0.70703 0.17969 0.68359 0.097656 0.37109-0.10938-1.6445-1.2227-0.91016-1.1523-5.1016-4.6797zm50.219-38.461c-0.085937 0.15625-0.34766-0.78125-0.52734-1.2227 0.085937-0.34766 0.15625-0.92578 0.25391-1.0078 0.67188-0.50391 1.3672-0.89844 2.0508-1.3203l0.12109-1.2734-0.14453 1.1992c-0.57813 1.2266-1.1406 2.5312-1.7539 3.625zm-85.801 98.543c-0.97266-0.13281-1.7656-0.37109-2.6172-0.58984 0.74219-0.13281 1.4883-0.34766 2.2422-0.34766 0.64844 0 1.2852 0.25391 1.9453 0.39453-0.55078 0.19531-1.3672 0.57812-1.5703 0.54297zm86.508-89.723-0.12109-1.1172c0.15625 0.17969 0.32422 0.35938 0.53906 0.61328-0.19141 0.23828-0.30859 0.35938-0.41797 0.50391zm-78.828-14.617-0.011719 0.50391-0.68359-0.80469zm86.16-5.4609 0.14453-0.91016 0.17969 0.81641z"/>
  <path d="m205.95 570.19c2.1133-6.1211 3.8984-12.406 3.8164-26.566 0.070312-20.426 0.15625-40.895 0.23828-61.344 0-22.703-0.67188-45.77-0.035156-67.98 0.16797-8.7461 0.3125-16.188 0.43359-22.465-0.011719-5.7344-1.1523-10.43-2.5781-14.137-0.44531-1.1289 0.99609-13.645 1.6914-15.133 9.4688-16.934 12.504-29.52 12.504-43.164 6.625-13.43 14.641-33.793 26.363-37.906 2.1016-1.2227 13.812-11.914 18.684-17.52 17.711-19.512 38.641-37.246 66.684-43.43 15.191-11.785 33.324-10.922 51.406-11.004 14.617 0.023437 34.117 1.5117 51.574 1.3672 17.832 0 35.531-0.9375 52.754-3.4922 5.8555-0.83984 18.898-1.1875 23.832-0.40625 14.352 2.2578 29.746 2.3281 46.094 2.3867l131.9 0.58984c6.707 0.023438 17.676-0.035156 19.57-0.80469 16.117-6.6016 36.887-3.2539 57.984-1.6797 7.9922 0.58984 19.98 0.91016 26.113 0.070313 5.4375-0.81641 9.6484-0.88672 14.062-0.91016 4.3789 0.085938 8.7227-0.023437 12.961 0.64844 8.4102 1.7148 16.859 3.0352 25.297 6.3828 5.0039 1.7148 10.871 3.0117 16.586 5.2578 5.7734 2.0039 11.867 3.5273 17.051 5.9648 19.633 7.5117 40.246 13.105 54.707 35.762 1.8828 2.543 11.352 12.07 16.285 16.414 9.2656 8.9883 17.699 21.527 23.977 34.754 3.2383 6.5625 6.4219 13.078 8.8906 19.57 1.3672 3.1914 2.8086 6.2539 4.332 9.2148 1.2227 3.0469 2.4844 5.9648 3.9102 8.7109 0.625 1.2852 1.8125 7.5859 2.0898 11.113 1.3086 19.402 1.6914 36.383 2.0625 57.469 0.60156 20.16 2.0625 39.949 3.2891 59.258 1.7148 27.203 3.8164 52.668 1.4141 79.68-2.0625 23.051 3.1094 33.77 3.1562 48.012 0.058594 16.754-4.4141 32.398-3.1211 53.867 0.38281 6.3125 1.2969 11.977 2.0742 17.605 1.3906 9.457 2.7617 18.805 4.1172 28.02 7.0938 45.758 15.84 80.352 27.637 94.766 3.8633 4.7383 6.8047-3 7.6914-21.527 4.8008-102.27 5.0156-206.4 5.293-310.5 0.046875-15.012-1.1055-26.762-3.9844-34.379-1.8242-4.8359-3.4922-11.41-0.57422-19.008 1.7266-4.9062 3.0352-10.441 3.168-18.719-0.058594-8.1602 0.30078-17.438-1.3672-26.676-3.5625-28.789-12.852-56.746-26.578-82.129-12.457-23.113-28.453-44.195-47.23-62.363-18.77-18.227-40.812-32.832-64.246-44.125-23.473-11.258-48.781-18.926-74.605-21.781-6.4219-1.1289-12.887-1.3789-19.379-1.5977-6.3477-0.21484-13.32-0.66016-18.781-0.45703l-34.668 0.35938c-66.973 0.66016-133.99 0.25391-201.04-0.011719l-100.57-0.13281-50.305 0.28906c-7.9688-0.097656-17.711 0.57422-27.012 1.1758-9.3711 0.22656-18.551 2.6406-27.793 3.9609-36.539 7.2734-66.973 23.34-86.652 44.184-16.871 4.0781-37.586 18.648-56.723 43.152-25.02 32.531-42.574 71.172-48.445 111.89-0.70703 5.0742-1.5859 10.152-2.1133 15.238l-0.71875 15.348c-0.67188 10.715-0.14453 19.008-0.23828 28.547l0.25391 55.5c-0.070313 41.641-0.14453 83.352-0.21484 125.02 0.011719 11.27 0.15625 25.262 1.5 33.023 1.5586 9.0117 4.5117 12.516 7.0195 18.84-8.4492 32.207-10.68 46.188-8.1484 72.926 1.4766 15.637 2.6523 30.348 2.9023 44.988 0.40625 14.93-0.82812 28.367-1.8008 46.02-0.73047 5.6406 0.53906 15.324 2.0391 22.297 7.2617 37.32 21.816 73.094 44.207 103.87 22.031 30.852 51.59 57.121 86.664 73.141 19.309 9.5742 40.297 15.457 61.414 19.738 20.941 3.8867 44.051 4.2461 62.844 4.043 39.395-0.070312 78.887-0.14453 118.2-0.21484 17.965-0.13281 35.914-1.1406 53.496-2.0508 27.781-1.4531 27.672-1.5703 40.656 6.0352l2.8672 0.625c30.086 0.37109 30.422 0.3125 41.062-5.9883l-4.1875-1.668c0.96094 0.21484 2.2695 0.39453 2.7734 0.64844 0.68359 0.32422 0.68359 0.71875 0.99609 1.0938l13.668 8.7344-0.48047-0.085937c33.336-1.1992 66.648-2.6758 94.414 3.3828 4.1289 0.88672 13.609 1.3906 19.609 1.0938 32.125-1.0195 68.977-7.3086 92.699-23.113 7.3086-4.7266 25.621-12.73 37.668-21.289l1.2227-1.0938c7.8945-6.1797 15.156-11.41 22.453-15.539 6.8633-4.6211 13.043-9.1211 17.617-14.34 19.402-24.406 35.844-45.758 50.484-71.855 3.4453-5.293 7.1523-16.309 7.8008-20.484 3.3477-19.727 7.0781-37.609 12.434-60.289 1.6797-9.5742 0.70703-22.691-1.4141-22.379-7.332 0.625-13.824-1.4414-21.898 27.266-2.7461 7.3672-4.9688 13.57-8.2188 19.309-3.2031 5.6758-6.3594 11.281-9.8164 17.41-13.02 21.91-28.5 43.43-53.387 69.492-2.543 2.5664-5.0508 5.3398-7.8125 7.8594-2.9023 2.3516-5.8086 4.7266-8.6406 7.0312-5.4844 4.7656-11.641 7.9688-16.453 10.477-30.516 15.602-71.328 29.375-106.85 25.859-2.8906-0.21484-5.5938-0.28906-8.4492-0.33594-3.2266-0.17969-6.4062-0.25391-9.6016-0.25391-6.3828 0.023437-12.781 0.44531-19.547 1.3086-15.059 1.9336-60.984 2.8789-79.703 2.2695-4.4648-0.14453-9.1797 0.011718-13.824 0.011718l-0.36719 3.0039 0.57422-0.10938 0.10938-2.8203c-4.9805-2.2188-14.988-5.6289-23.762-2.9531-17.844 5.4375-51.348 3.3242-70.465 7.7539-3.7422 0.86328-25.379 0.070313-30.133-1.2734-23.398-6.6719-52.969-5.8086-80.293-2.6758-24.395 2.7852-44.496 4.8008-68.398 0.26562-4.4141-0.58984-12.012-0.83984-17.941-1.1172-47.664-3.1211-92.566-25.441-126.38-58.836-2.5547-2.6055-5.3164-5.543-7.7891-8.6992-2.1719-3.3594-4.3555-6.7422-6.3359-9.8164-9.0117-15.527-17.508-31.152-23.328-47.891-3.625-8.125-5.293-16.859-7.9922-25.32-1.4414-8.7344-3.8398-17.363-4.1172-26.281-1.1875-10.32-4.4023-22.992-4.2969-34.309 0.16797-13.043 3.0977-24.805 4.2617-38.23 0.70703-8.0742 0.68359-18.551 0.37109-27.48-1.6445-47.242-0.91016-96.406-5.1016-141.53zm823.38-98.461c-0.15625-1.3203 0.79297-5.4609 1.2109-8.293 0.35938 1.332 0.92578 2.4375 1.0078 4.0547 0.44531 10.633 0.88672 21.406 1.332 32.125l1.2617 1.8008-1.1992-2.207c-1.1914-9.1172-2.3672-18.059-3.6133-27.48zm-36.539 453.1c-0.25391 2.5078-1.8828 6.3594-3.3828 9.6133-1.8828 1.2617-4.7266 3.8398-5.3281 3.3828-0.50391-0.40625 1.5234-4.1992 2.4102-6.4688 2.5078-2.1133 6.4062-7.0195 6.3008-6.5273zm27.719-442.13 1.1172-1.8359c-0.19141 2.5195-0.37109 5.0039-0.61328 8.3984-0.22656-2.9727-0.35937-4.7617-0.50391-6.5625zm-811.43-219.9-2.1836 3.7695-1.2109 0.27734zm831.5 334.62 0.91016 2.2422-0.81641 2.6992z"/>
 </g>
</svg>
