<?xml version="1.0" encoding="UTF-8"?>
<svg width="1200pt" height="1200pt" version="1.1" viewBox="0 0 1200 1200" xmlns="http://www.w3.org/2000/svg">
 <g>
  <path d="m375.52 656.63c-1.668 26.629-4.2461 50.074-19.199 67.297-6.9258 7.9805-13.68 15.996-20.398 24-14.004 16.645-28.488 33.863-44.184 50.074-15.098 15.59-27.793 29.902-38.797 43.766-1.332 1.6797-2.8086 2.9141-4.1172 4.0547-3.8516 3.3477-9.6836 8.4258-5.4609 18.551 4.043 9.6953 13.789 14.617 28.945 14.617 6.5898 0 13.414-0.875 18.898-1.5859 2.7617-0.35938 5.2695-0.68359 7.3555-0.83984 14.965-1.1289 30.18-1.2734 43.078-1.2734l30.863 0.10938c9.0859 0 20.398 0 28.801-1.8008h30.395c15.145 0.52734 30.145 1.3555 45.023 2.1719 36.66 2.0156 75.805 3.7695 108.84 1.4023 15.875-1.7656 33.863-1.7656 49.738-1.7656 9.1914 0 26.855-1.7539 27-1.8008 9.2891 0 18.602 1.2461 28.477 2.5547 10.465 1.3906 21.289 2.8438 32.723 2.8438 15.816 0 31.609-0.38281 47.398-0.75781 21.781-0.52734 43.559-1.0664 65.387-0.5625 11.855 0.26562 24.648 1.8242 38.195 3.4805 15.539 1.8945 31.609 3.8516 46.992 3.8516 11.016 0 20.496-0.99609 28.992-3.0586 8.7734-2.1367 20.785-6.0352 23.734-15.289 3.1094-9.7422-5.1133-19.211-13.812-29.23-1.6211-1.8711-3.2891-3.793-4.9219-5.7461-11.809-14.207-24.625-28.367-38.102-42.098l-1.7148-1.7383c-7.1523-7.2461-12.215-16.043-17.566-25.367-1.7539-3.0352-3.4922-6.0703-5.3164-9.0586-3.4062-5.5781-8.0391-10.703-12.516-15.66-4.3906-4.8594-8.543-9.457-11.027-13.871-6.3477-11.352-6.0352-32.508-5.7734-51.18 0.16797-11.27 0.3125-21.91-0.78125-30.707-1.7773-17.844-3.625-36.289-7.1758-53.398 0-5.0391-1.3086-11.184-1.8008-13.297 0-3.3828-0.12109-7.8242-1.8008-10.859-0.035157-4.6328-0.27734-9.2539-1.8125-13.152-0.21484-5.8555-1.6797-14.773-1.8125-15.539-1.1523-10.344-0.76953-19.055-0.37109-28.285 0.20312-4.6797 0.40625-9.3711 0.38281-14.746-1.8359-22.055-5.5664-38.809-10.848-58.02-1.0547-6.8984-1.8008-13.32-2.5078-19.465-1.6914-14.555-3.2773-28.309-8.6992-43.176-5.293-12.359-24.551-54.48-50.27-77.855-9.0703-7.5586-19.223-11.578-29.039-15.469-2.7969-1.1055-5.6172-2.2305-8.7461-3.5508-5.0742-1.8477-10.031-3.9375-14.965-6.0117-14.41-6.0703-29.316-12.348-46.488-12.348l-1.4648 0.17969c-4.4297 1.1055-9.2773 2.3164-14.09 2.9531-0.44531-4.2461-1.2344-8.293-2.4844-12.422l-5.3984-10.789-1.1172-1.5469c-0.42188-0.42188-0.81641-0.99609-1.2461-1.5586-0.73047-0.97266-1.5703-2.1016-2.6055-3.0859-1.1641-10.008-7.1875-18.695-14.832-21.504l0.13281-0.50391c-6.9961-2.3281-12.996-3.8867-19.789-3.8867-4.5586 0.023438-8.6289 0.69531-13.621 2.4258-4.1406 2.0625-8.0391 4.0195-10.523 6.5039-0.78125 0.78125-1.5703 1.8008-2.3516 2.8438-0.28906 0.38281-0.55078 0.76953-0.82812 1.1055l-0.66016 0.32422c-4.3086 2.1602-10.391 9.4062-12.805 12.422-10.344 12.938-13.645 25.309-9.9961 38.051 0.023438 0.070313 0.046875 0.14453 0.070312 0.22656-2.375 1.0781-4.7383 2.1016-7.0781 2.9766-5.125 1.7148-10.668 2.9883-16.523 4.3438-5.8906 1.3555-12 2.7617-18.035 4.8008-43.32 17.652-64.441 51.324-86.785 86.977-3.7188 5.9297-7.4766 11.914-11.398 17.941-15.84 24.648-29.531 45.938-33.277 77.867-4.1172 24.719-7.4297 51.156-9.0859 72.984 0 5.375 0.60156 10.68 1.1875 15.793 0.83984 7.3789 1.6445 14.352 0.66016 21.215-3.543 26.535-5.3047 52.277-7.25 83.152zm61.188-60.277-0.15625-6.4336c0.023437-1.6094-0.011719-3.1914-0.070313-4.7773l-0.070312-2.5312c-0.16797-8.207-0.30078-16.402-0.30078-24.613 0-15.973 3.0117-32.426 6.2148-49.848l0.99609-5.9531c0-9.9961 1.7148-36.492 6.707-49.836 9.3828-21.875 23.676-45.684 42.602-70.922 12.707-18.145 30.047-40.246 51.254-50.039 17.125-6.5898 61.535-21.926 103.87-21.926 9.2773 0 17.855 0.76953 25.488 2.293 36.422 7.2852 90.875 52.246 102.23 84.422 10.633 30.121 12.301 60.145 14.242 93.059 0.83984 3.3711 1.2461 6.7422 1.668 10.105 0.48047 3.8281 0.97266 7.6562 1.8711 11.219 0.91016 4.5352 1.8125 8.6289 2.7227 12.719 0.88672 4.0078 1.7773 8.0156 2.5547 11.293 0 2.2188 0.96094 4.8477 1.8008 6.7422 0.011719 4.7031 0.15625 8.7227 1.8242 14.074 0.17969 3.7305 1.2969 8.8789 2.6289 14.676 0.46875 2.0273 0.86328 3.6836 0.94922 4.0938 0 1.8711 0.61328 3.7188 1.2109 5.4961 0.23828 0.73047 0.51562 1.4531 0.625 2.3047 0.82812 8.2305 1.7383 16.547 2.6641 24.961 3.0977 28.117 6.3008 57.203 6.3008 86.039 0 1.2461-0.070313 2.9414-0.16797 4.9219-0.34766 7.8008-0.875 19.402 1.3789 29.82-0.99609 4.8828-0.70703 9.1445 0.89844 13.957l0.44531 1.332 0.99609 0.99609c0.40625 0.40625 1.0078 1.2852 1.5703 2.2188-1.4883 10.344 1.4883 18.84 9.2656 26.617 1.3086 1.3086 2.9141 2.832 4.7148 4.5469 9.2539 8.832 30.91 29.52 28.895 40.379-0.16797 0.91016-0.66016 3.5273-5.7344 6-18.527-1.8711-42.719-0.67187-65.184 0.78125-5.4609 0.34766-10.945 0.70703-17.074 1.0781-2.8555 0.48047-6.9961 0.71875-12.277 0.71875-7.0547 0-14.27-0.43359-18.012-0.66016-0.97266-0.058593-1.7539-0.097656-2.0039-0.097656h-0.085937c-15.289-2.6875-30.562-4.9453-45.852-7.1875-15.254-2.2422-30.492-4.4883-46.777-7.2617h-23.398c-4.8594 0-11.941 1.2344-14.566 1.7266-1.6094-0.21484-3.3125-0.38281-4.7891-0.50391-19.402-3.2031-45.84-2.0391-70.285-0.32422l-13.402 0.91016c-24.266 1.7891-48.527 3.1445-72.793 4.5-24.324 1.3438-48.66 2.6992-72.551 4.4883-7.0781 0-14.617-0.44531-22.141-0.88672-1.5703-0.085937-3.1445-0.17969-4.7148-0.26562 9.0977-7.7383 17.555-17.641 25.703-30 5.5312-5.5312 9.6367-11.387 13.152-18.637 5.4961-7.3203 14.316-21.422 14.594-21.875 1.1289-1.6914 2.4375-3.3711 3.7422-5.0508 2.8789-3.6953 5.8438-7.5117 7.4648-11.746 3.4922-5.2422 7.0195-10.703 9.0703-17.965 1.5352-2.1602 2.7227-5.0156 3.4219-6.9102 4.0938-5.293 4.3086-13.812 4.2734-14.93 3.875-32.543 3.1328-65.473 2.3984-97.309z"/>
  <path d="m681.13 916.52c-3.3242-1.668-9.625-3.5391-13.441-4.0781-4.0938-2.1367-8.8555-3.1328-14.855-3.1328-3.4062 0-6.8516 0.32422-10.152 0.64844-2.5312 0.25391-4.957 0.50391-7.1055 0.51562-15.156 0-30.828-0.011718-47.137-1.7891-6.8164 0-11.508 2.3398-15.277 4.2344l-1.5469 1.1172c-0.78125 0.78125-1.5859 1.8125-2.375 2.8555-0.20313 0.26562-0.39453 0.52734-0.58984 0.79297h-4.2109v2.1367c-16.801 1.9062-30.371 11.762-34.715 25.727-4.2109 13.559 1.668 27.434 15.359 36.828 15.371 12.289 40.812 20.23 64.836 20.23 4.7891 0 9.3711-0.32422 13.895-1.0312 9.2266-1.8477 17.543-3.875 24.898-9.5156 3.9844-1.9805 10.945-7.1875 11.461-7.5703 4.4531-2.9648 9.793-7.9453 12.215-10.285 2.375-0.78125 4.1289-2.3164 4.8125-2.9883l3.625 0.20312v-5.7227h3.6133v-6.457c1.6328-3.6133 3.6016-9.1328 3.6016-12.156v-0.69531c3.5742-9.8398 2.0039-19.043-4.8008-28.105l-0.85156-1.1289z"/>
 </g>
</svg>
