<?xml version="1.0" encoding="UTF-8"?>
<svg width="1200pt" height="1200pt" version="1.1" viewBox="0 0 1200 1200" xmlns="http://www.w3.org/2000/svg">
 <g>
  <path d="m153.73 1086.7c112.78-107.69 214.32-226.12 315-345 14.902-17.594-10.43-43.199-25.453-25.453-100.68 118.88-202.22 237.3-315 345-16.82 16.047 8.668 41.477 25.453 25.453z"/>
  <path d="m414 390c5.6758-89.785 91.586-165.66 161.99-211.31 87.457-56.711 206.7-32.629 293.96 12.059 72.91 37.332 124.57 104.52 151.92 180.48 32.988 91.609 20.52 176.5-29.23 258.61-51.961 85.789-113.84 136.79-211.31 162.3-82.43 21.574-162.91 12.383-238.74-26.027-141.71-71.797-178.11-236.02-135.25-380.32 6.6367-22.309-28.117-31.777-34.715-9.5742-52.68 177.34 7.2461 356.11 179.39 434.23 88.066 39.973 180.89 34.391 271.52 7.2461 110.2-32.988 177.45-119.44 227.48-218.88 84.336-167.61-31.344-388.01-195.46-454.63-102.25-41.508-214.85-50.34-310.29 11.543-78.121 50.664-161.14 136.8-167.29 234.28-1.4531 23.184 34.559 23.039 36.012-0.011719z"/>
  <path d="m851.27 333.73c80.305 90.18 63.637 218.16 3.1914 314.2-12.406 19.703 18.742 37.754 31.078 18.168 69.648-110.63 82.223-255.6-8.8086-357.8-15.477-17.387-40.848 8.1641-25.461 25.441z"/>
 </g>
</svg>
