<?xml version="1.0" encoding="UTF-8"?>
<svg width="1200pt" height="1200pt" version="1.1" viewBox="0 0 1200 1200" xmlns="http://www.w3.org/2000/svg">
 <g fill-rule="evenodd">
  <path d="m1113.7 1200h-1027.3c-47.625 0-86.344-38.719-86.344-86.344v-1027.3c0-47.578 38.719-86.344 86.344-86.344h1027.3c47.625 0 86.344 38.719 86.344 86.344v1027.3c0 47.625-38.719 86.344-86.344 86.344zm-1027.3-1168c-30 0-54.375 24.422-54.375 54.375v1027.3c0 30 24.375 54.422 54.375 54.422h1027.3c30 0 54.422-24.422 54.422-54.422v-1027.3c0-30-24.422-54.375-54.422-54.375z"/>
  <path d="m1066.7 1129.6h-933.52c-34.688 0-62.859-28.219-62.859-62.859v-700.08c0-34.688 28.219-62.859 62.859-62.859h933.52c34.688 0 62.859 28.219 62.859 62.859v700.08c0 34.688-28.219 62.859-62.859 62.859zm-933.52-793.92c-17.062 0-30.938 13.875-30.938 30.938v700.08c0 17.062 13.875 30.938 30.938 30.938h933.52c17.062 0 30.938-13.875 30.938-30.938v-700.08c0-17.062-13.875-30.938-30.938-30.938z"/>
  <path d="m1184 265.31h-1168c-8.8125 0-15.984-7.1719-15.984-15.984s7.1719-15.984 15.984-15.984h1168c8.8125 0 15.984 7.1719 15.984 15.984s-7.125 15.984-15.984 15.984z"/>
  <path d="m190.03 172.82c-15.281 0-29.672-5.9531-40.5-16.781-22.359-22.359-22.359-58.688 0-81.047 10.828-10.828 25.219-16.781 40.547-16.781s29.719 5.9531 40.5 16.781c22.359 22.359 22.359 58.734 0 81.047-10.828 10.828-25.219 16.781-40.547 16.781zm0-82.688c-6.75 0-13.125 2.625-17.953 7.4531-9.8906 9.8906-9.8906 25.969 0 35.859 9.6094 9.6094 26.297 9.5625 35.859 0 9.8906-9.8906 9.8906-25.969 0-35.859-4.7812-4.7812-11.156-7.4062-17.953-7.4062z"/>
  <path d="m269.81 207.14c-4.0781 0-8.1562-1.5469-11.297-4.6875l-48.562-48.562c-6.2344-6.2344-6.2344-16.359 0-22.594s16.359-6.2344 22.594 0l48.562 48.562c6.2344 6.2344 6.2344 16.359 0 22.594-3.0938 3.1406-7.2188 4.6875-11.297 4.6875z"/>
  <path d="m985.92 194.68c-34.172 0-61.969-27.797-61.969-62.016 0-34.172 27.797-62.016 61.969-62.016s61.969 27.797 61.969 62.016c0 34.172-27.797 62.016-61.969 62.016zm0-92.062c-16.594 0-30.047 13.5-30.047 30.047 0 16.594 13.5 30.047 30.047 30.047s30.047-13.5 30.047-30.047c0-16.594-13.5-30.047-30.047-30.047z"/>
  <path d="m802.13 194.68c-34.172 0-61.969-27.797-61.969-62.016 0-34.172 27.797-62.016 61.969-62.016s62.016 27.797 62.016 62.016c0 34.172-27.797 62.016-62.016 62.016zm0-92.062c-16.547 0-30.047 13.5-30.047 30.047 0 16.594 13.5 30.047 30.047 30.047 16.594 0 30.047-13.5 30.047-30.047 0-16.594-13.5-30.047-30.047-30.047z"/>
  <path d="m618.28 194.68c-34.172 0-62.016-27.797-62.016-62.016 0-34.172 27.797-62.016 62.016-62.016 34.172 0 61.969 27.797 61.969 62.016 0 34.172-27.797 62.016-61.969 62.016zm0-92.062c-16.594 0-30.047 13.5-30.047 30.047 0 16.594 13.5 30.047 30.047 30.047s30.047-13.5 30.047-30.047c0-16.594-13.5-30.047-30.047-30.047z"/>
  <path d="m885.98 1047.3h-55.219c-8.1094 0-14.953-6.0938-15.891-14.203l-5.4844-49.031c-6.5625-3-12.797-6.6562-18.703-10.828l-45.188 19.781c-7.4531 3.2812-16.172 0.42188-20.25-6.6562l-27.609-47.812c-4.0781-7.0312-2.2031-16.031 4.3594-20.812l39.703-29.25c-0.32812-3.5625-0.51562-7.1719-0.51562-10.828 0-3.6094 0.1875-7.2188 0.51562-10.828l-39.703-29.25c-6.5625-4.8281-8.4375-13.781-4.3594-20.812l27.609-47.812c4.0781-7.0312 12.797-9.8906 20.25-6.6562l45.188 19.781c5.9062-4.1719 12.141-7.8281 18.703-10.828l5.4844-48.984c0.9375-8.1094 7.7344-14.203 15.891-14.203h55.219c8.1094 0 14.953 6.0938 15.891 14.203l5.4844 48.984c6.5625 3 12.797 6.6562 18.703 10.828l45.188-19.781c7.4531-3.2812 16.172-0.42188 20.25 6.6562l27.609 47.812c4.0781 7.0312 2.2031 16.031-4.3594 20.812l-39.703 29.25c0.32812 3.6094 0.51562 7.2188 0.51562 10.828s-0.1875 7.2188-0.51562 10.828l39.703 29.25c6.5625 4.8281 8.4375 13.781 4.3594 20.859l-27.609 47.812c-4.0781 7.0312-12.797 9.9375-20.25 6.6562l-45.188-19.781c-5.9062 4.1719-12.141 7.8281-18.703 10.828l-5.4844 49.031c-0.9375 8.1094-7.7344 14.203-15.891 14.203zm-40.922-31.922h26.625l4.9219-44.203c0.65625-6.0469 4.7344-11.203 10.5-13.266 9.6562-3.4688 18.469-8.5781 26.297-15.234 4.6406-3.9375 11.156-4.9219 16.734-2.4844l40.781 17.859 13.312-23.062-35.859-26.391c-4.9219-3.6094-7.3125-9.7031-6.2344-15.703 0.89062-5.0156 1.3594-10.125 1.3594-15.234s-0.46875-10.219-1.3594-15.234c-1.0781-6 1.3594-12.094 6.2344-15.703l35.859-26.391-13.312-23.062-40.781 17.859c-5.5781 2.4375-12.094 1.5-16.734-2.4375-7.8281-6.6562-16.688-11.766-26.297-15.234-5.7656-2.0625-9.7969-7.2188-10.5-13.266l-4.9219-44.203h-26.625l-4.9219 44.203c-0.65625 6.0469-4.7344 11.203-10.5 13.266-9.6094 3.4219-18.422 8.5781-26.297 15.234-4.6406 3.9375-11.156 4.875-16.734 2.4375l-40.781-17.859-13.312 23.062 35.859 26.391c4.9219 3.6094 7.3125 9.7031 6.2344 15.703-0.89062 4.9688-1.3594 10.078-1.3594 15.234s0.46875 10.266 1.3594 15.234c1.0781 6-1.3594 12.094-6.2344 15.703l-35.859 26.391 13.312 23.062 40.781-17.859c5.5781-2.4375 12.094-1.5 16.734 2.4375 7.8281 6.6562 16.688 11.766 26.297 15.234 5.7188 2.0625 9.7969 7.2188 10.5 13.266l4.9219 44.203z"/>
  <path d="m858.42 939.84c-34.219 0-62.109-27.844-62.109-62.109s27.844-62.109 62.109-62.109c34.219 0 62.109 27.844 62.109 62.109 0 34.219-27.844 62.109-62.109 62.109zm0-92.25c-16.641 0-30.141 13.547-30.141 30.141 0 16.641 13.547 30.188 30.141 30.188 16.641 0 30.141-13.547 30.141-30.188s-13.547-30.141-30.141-30.141z"/>
  <path d="m561.94 569.72c-4.0781 0-8.1562-1.5469-11.297-4.6875l-75.891-75.891c-6.2344-6.2344-6.2344-16.359 0-22.594l75.891-75.891c6.2344-6.2344 16.359-6.2344 22.594 0s6.2344 16.359 0 22.594l-64.594 64.594 64.594 64.594c6.2344 6.2344 6.2344 16.359 0 22.594-3.0938 3.1406-7.2188 4.6875-11.297 4.6875z"/>
  <path d="m643.74 569.72c-4.0781 0-8.1562-1.5469-11.297-4.6875-6.2344-6.2344-6.2344-16.359 0-22.594l64.547-64.594-64.547-64.594c-6.2344-6.2344-6.2344-16.359 0-22.594s16.359-6.2344 22.594 0l75.844 75.891c6.2344 6.2344 6.2344 16.359 0 22.594l-75.844 75.891c-3.0938 3.1406-7.1719 4.6875-11.297 4.6875z"/>
  <path d="m1005.3 665.26h-810.52c-8.8125 0-15.984-7.1719-15.984-15.984s7.1719-15.984 15.984-15.984h810.52c8.8125 0 15.984 7.1719 15.984 15.984s-7.125 15.984-15.984 15.984z"/>
  <path d="m623.95 760.78h-429.24c-8.8125 0-15.984-7.1719-15.984-15.984s7.1719-15.984 15.984-15.984h429.24c8.8125 0 15.984 7.1719 15.984 15.984s-7.1719 15.984-15.984 15.984z"/>
  <path d="m623.95 856.31h-429.24c-8.8125 0-15.984-7.1719-15.984-15.984s7.1719-15.984 15.984-15.984h429.24c8.8125 0 15.984 7.1719 15.984 15.984s-7.1719 15.984-15.984 15.984z"/>
  <path d="m623.95 951.84h-429.24c-8.8125 0-15.984-7.1719-15.984-15.984s7.1719-15.984 15.984-15.984h429.24c8.8125 0 15.984 7.1719 15.984 15.984s-7.1719 15.984-15.984 15.984z"/>
  <path d="m623.95 1047.3h-429.24c-8.8125 0-15.984-7.1719-15.984-15.984s7.1719-15.984 15.984-15.984h429.24c8.8125 0 15.984 7.1719 15.984 15.984s-7.1719 15.984-15.984 15.984z"/>
 </g>
</svg>
