<?xml version="1.0" encoding="UTF-8"?>
<svg width="1200pt" height="1200pt" version="1.1" viewBox="0 0 1200 1200" xmlns="http://www.w3.org/2000/svg">
 <path d="m599.97 90.109c-124.18 0-236.34 20.828-320.21 56.426-41.938 17.797-76.852 39.059-102.71 65.098-25.863 26.039-43.008 58.348-43.008 93.457v589.98c0 10.973 1.7188 21.645 4.8047 31.934 0.015624 0.058594 0.03125 0.11328 0.058593 0.17969 0.011719 0.042968 0.058594 0.074218 0.058594 0.11328 17.059 58.676 76.07 101.04 153.22 131.43 1.0039 0.39844 2.0352 0.78125 3.0469 1.1719 0.48828 0.19141 0.97656 0.39844 1.4648 0.58984 4.5352 1.7422 9.1484 3.4414 13.828 5.0977 1.8711 0.65625 3.7891 1.2852 5.6836 1.9336 4.2734 1.4648 8.6211 2.8828 13.008 4.2773 1.0664 0.33984 2.1484 0.71484 3.2227 1.0547 3.5508 1.1094 7.1016 2.1602 10.723 3.2227 3.793 1.1094 7.6172 2.2148 11.484 3.2812 2.4648 0.67969 4.9453 1.3359 7.4414 1.9922 2.8711 0.75781 5.7617 1.5 8.6719 2.2266 3.5859 0.89453 7.1953 1.7812 10.84 2.6367 2.3359 0.54297 4.6719 1.1094 7.0312 1.6406 3.9531 0.88281 7.9375 1.7422 11.953 2.5781 2.8945 0.60156 5.8047 1.1797 8.7305 1.7578 2.9297 0.57812 5.8867 1.1484 8.8477 1.6992 3.918 0.72656 7.8633 1.4258 11.836 2.1094 2.5234 0.42969 5.0703 0.81641 7.6172 1.2305 3.793 0.61328 7.5859 1.2422 11.426 1.8164 2.9883 0.44141 6.0078 0.875 9.0234 1.2891 4.1641 0.57812 8.3242 1.1719 12.539 1.6992 2.25 0.28516 4.5352 0.5 6.7969 0.75781 4.7617 0.56641 9.5352 1.1445 14.355 1.6406 1.8438 0.19141 3.7148 0.35156 5.5664 0.53125 4.8203 0.46484 9.6523 0.94141 14.531 1.3477 2.9883 0.25 6.0156 0.47656 9.0234 0.70312 4.6328 0.33984 9.2656 0.65625 13.945 0.94141 0.5625 0.03125 1.1367 0.027343 1.6992 0.058593 13.285 0.78125 26.742 1.3555 40.371 1.6406 7.6641 0.16016 15.324 0.23828 23.086 0.23828s15.48-0.074219 23.145-0.23828c4.8125-0.097657 9.582-0.30469 14.355-0.46484 2.0859-0.070313 4.1914-0.09375 6.2695-0.17969 7.2031-0.28516 14.344-0.625 21.445-1.0547 0.089844-0.007813 0.21094 0.007812 0.30078 0 4.582-0.27344 9.1133-0.60156 13.652-0.94141 3.0078-0.22656 6.0352-0.45312 9.0234-0.70312 18.59-1.5352 36.77-3.5547 54.492-6.0352 2.6055-0.36328 5.207-0.78125 7.793-1.1719 4.1172-0.61328 8.1836-1.2734 12.246-1.9336 2.4414-0.39844 4.9023-0.75781 7.3242-1.1719 3.9727-0.67969 7.918-1.3789 11.836-2.1094 2.9648-0.55469 5.918-1.1211 8.8477-1.6992 2.9258-0.57812 5.8359-1.1523 8.7305-1.7578 4.0156-0.83984 8-1.6914 11.953-2.5781 2.3594-0.53125 4.6953-1.0898 7.0312-1.6406 3.6445-0.85156 7.2539-1.7383 10.84-2.6367 2.9102-0.72656 5.8008-1.4688 8.6719-2.2266 2.4961-0.65625 4.9766-1.3125 7.4414-1.9922 3.8672-1.0664 7.6914-2.1641 11.484-3.2812 9.2266-2.7109 18.191-5.5508 26.953-8.5547 1.8945-0.64453 3.8125-1.2695 5.6836-1.9336 6.2383-2.207 12.359-4.5 18.34-6.8555 82.352-32.43 144.27-78.496 156.33-143.5h-0.12109c1.2266-6.5938 1.9336-13.309 1.9336-20.156v-589.98c0-5.5977-0.52344-11.082-1.3477-16.523v0.003907c-0.12891-2.6289-0.60156-5.2305-1.4062-7.7344-5.7422-25.691-20.246-49.301-40.02-69.207-25.867-26.039-61.016-47.301-102.95-65.098-83.871-35.598-196.1-56.426-320.27-56.426zm0 60c117.34 0 223.05 20.273 296.78 51.562 36.863 15.645 65.59 34.004 83.73 52.266 12.535 12.621 19.902 24.559 23.262 36.035-9.0234 29.641-48.863 65.945-117.83 93.105-73.074 28.777-174.32 47.168-285.94 47.168-111.62 0-212.57-18.391-285.64-47.168-68.969-27.16-109.02-63.465-118.07-93.105 3.3594-11.477 10.727-23.414 23.262-36.035 18.141-18.262 46.867-36.621 83.73-52.266 73.727-31.289 179.38-51.562 296.72-51.562zm-405.88 234.61c26.383 21.297 60.012 39.148 98.086 54.141 82.355 32.43 189.67 51.387 307.79 51.387 118.12 0 225.5-18.957 307.85-51.387 38.012-14.969 71.672-32.773 98.086-54.023v103.48c-0.33984 0.92188-0.63281 1.8594-0.87891 2.8125-5.6602 30.504-46.047 69.777-119.12 98.555-73.074 28.777-174.32 47.168-285.94 47.168-111.62 0-212.57-18.391-285.64-47.168-73.074-28.777-113.7-68.051-119.36-98.555-0.24609-0.95312-0.53906-1.8906-0.87891-2.8125zm84.375 87.832c-7.9141 0.03125-15.5 3.1875-21.098 8.7852-5.5938 5.5977-8.7539 13.18-8.7852 21.098-0.03125 7.957 3.1016 15.598 8.7031 21.246 5.6055 5.6484 13.223 8.8398 21.18 8.8711 7.9961 0.03125 15.676-3.1328 21.332-8.7891 5.6523-5.6523 8.8164-13.332 8.7852-21.328-0.03125-7.957-3.2227-15.574-8.8711-21.18-5.6445-5.6055-13.289-8.7344-21.246-8.7031zm-84.375 118.77c26.383 21.293 60.012 39.203 98.086 54.199 82.355 32.43 189.67 51.328 307.79 51.328 118.12 0 225.5-18.898 307.85-51.328 38.012-14.969 71.672-32.832 98.086-54.082v99.902c-0.90234 2.0664-1.5703 4.2266-1.9922 6.4453-5.6602 30.508-46.281 69.719-119.36 98.496-73.074 28.777-174.03 47.168-285.64 47.168-108.69 0-207.37-17.434-279.96-44.941-72.59-27.508-115.53-65.777-123.98-95.859-0.26562-0.73438-0.55859-1.457-0.87891-2.168zm84.375 85.312c-7.9141 0.03125-15.5 3.1875-21.098 8.7852-5.5938 5.5977-8.7539 13.18-8.7852 21.098-0.03125 7.957 3.1016 15.598 8.7031 21.246 5.6055 5.6484 13.223 8.8398 21.18 8.8711 7.9961 0.03125 15.676-3.1328 21.332-8.7891 5.6523-5.6523 8.8164-13.332 8.7852-21.328-0.03125-7.957-3.2227-15.574-8.8711-21.18-5.6445-5.6055-13.289-8.7344-21.246-8.7031zm727.44 120.41v98.027c0 3.0859-0.26953 6.1914-0.82031 9.3164h-0.058594c-5.1289 27.645-38.777 62.266-99.434 89.941-2.9258 1.3242-5.8125 2.6367-8.8477 3.9258-0.49609 0.21484-1.0195 0.375-1.5234 0.58984-4.1406 1.7383-8.3203 3.4883-12.656 5.1562-1.8828 0.72656-3.8242 1.3984-5.7422 2.1094-2.0781 0.76953-4.1484 1.5898-6.2695 2.3438-2.7617 0.98828-5.6055 1.9141-8.4375 2.8711-3.3438 1.1328-6.6445 2.25-10.078 3.3398-1.375 0.42969-2.7695 0.80469-4.1602 1.2305-2.8164 0.875-5.6211 1.793-8.4961 2.6367-2.75 0.80469-5.5742 1.5664-8.3789 2.3438-3.0391 0.83984-6.1016 1.707-9.1992 2.5195-2.7852 0.72656-5.6016 1.4062-8.4375 2.1094-2.0234 0.5-4.0469 1.0312-6.0938 1.5234-3.6094 0.86328-7.2734 1.6992-10.957 2.5195-2.7109 0.60156-5.457 1.1758-8.2031 1.7578-2.9961 0.63672-5.9844 1.2695-9.0234 1.875-2.9492 0.58984-5.918 1.1406-8.9062 1.6992-2.9883 0.55469-5.9961 1.1094-9.0234 1.6406-2.6367 0.46484-5.3047 0.90625-7.9688 1.3477-10.504 1.7344-21.184 3.3008-32.109 4.6875-1.4766 0.19141-2.9688 0.35156-4.4531 0.53125-4.4414 0.54297-8.9141 1.1016-13.418 1.582-2.2109 0.23828-4.4531 0.41797-6.6797 0.64453-11.484 1.1445-23.137 2.1328-34.98 2.8711-0.52344 0.03125-1.0586 0.027344-1.582 0.058594-12.879 0.78125-25.898 1.3633-39.141 1.6406-6.8945 0.14844-13.879 0.23828-20.859 0.23828-6.9609 0-13.867-0.09375-20.742-0.23828-13.777-0.28516-27.402-0.86328-40.781-1.6992-0.089843-0.003906-0.14844 0.003906-0.24219 0-19.926-1.25-39.332-3.1328-58.184-5.5078-0.058593-0.007812-0.17969 0.007813-0.24219 0-63.234-7.9922-119.81-21.988-165.46-39.969-73.078-28.777-113.7-67.812-119.36-98.32h-0.058593c-0.5625-3.125-0.82031-6.2305-0.82031-9.3164v-96.27c27.691 22.109 63.199 40.414 103.59 55.723 81.449 30.863 186.21 48.984 301.23 48.984 118.12 0 225.44-18.957 307.79-51.387 38.602-15.203 72.652-33.387 99.199-55.078zm-727.44 94.277c-7.9141 0.03125-15.5 3.1875-21.098 8.7852-5.5938 5.5977-8.7539 13.18-8.7852 21.098-0.03125 7.957 3.1016 15.598 8.7031 21.246 5.6055 5.6484 13.223 8.8398 21.18 8.8711 7.9961 0.03125 15.676-3.1328 21.332-8.7891 5.6523-5.6523 8.8164-13.332 8.7852-21.328-0.03125-7.957-3.2227-15.574-8.8711-21.18-5.6445-5.6055-13.289-8.7344-21.246-8.7031z" fill-rule="evenodd"/>
</svg>
