<?xml version="1.0" encoding="UTF-8"?>
<svg width="1200pt" height="1200pt" version="1.1" viewBox="0 0 1200 1200" xmlns="http://www.w3.org/2000/svg">
 <path d="m278.21 713.46c3.9844 4.1602 5.4844 10.109 3.9531 15.664-1.5312 5.5508-5.8711 9.8906-11.422 11.426-5.5508 1.5352-11.5 0.035157-15.668-3.9414l-68.941-68.953h0.003906c-3.0742-3.0664-4.8008-7.2266-4.8008-11.566 0-4.3438 1.7266-8.5039 4.8008-11.57l68.941-68.941h-0.003907c4.1328-4.1328 10.16-5.7461 15.805-4.2305 5.6445 1.5117 10.055 5.9219 11.566 11.566 1.5117 5.6445-0.10156 11.668-4.2344 15.801l-57.406 57.375 57.371 57.371zm169.31-114.74v-0.003906c-4.1328-4.1328-5.7461-10.156-4.2344-15.801 1.5117-5.6445 5.9219-10.055 11.57-11.566 5.6445-1.5156 11.668 0.097656 15.801 4.2305l68.953 68.941c3.0664 3.0703 4.7852 7.2305 4.7852 11.57 0 4.3359-1.7188 8.4961-4.7852 11.566l-68.953 68.953c-4.1641 3.9766-10.113 5.4766-15.668 3.9414-5.5508-1.5352-9.8867-5.875-11.418-11.426-1.5312-5.5547-0.03125-11.504 3.9492-15.664l57.383-57.371zm594.21-450.65c-55.324-22.793-114.76-33.914-174.59-32.664-59.828-1.2539-119.27 9.8672-174.6 32.664-40.488 18.434-65.531 42.457-65.531 67.727 0 25.273 25.043 49.297 65.531 67.727v0.003907c55.332 22.789 114.77 33.902 174.6 32.652 59.824 1.2539 119.26-9.8633 174.59-32.652 40.5-18.434 65.543-42.469 65.543-67.727 0-25.262-25.043-49.297-65.543-67.727zm-344.4 351.13c4.1016 1.5664 7.4023 4.7188 9.1562 8.7461 1.7539 4.0273 1.8125 8.5938 0.16016 12.664-1.6484 4.0703-4.8672 7.3047-8.9297 8.9766-4.0625 1.668-8.625 1.6328-12.664-0.097657-3.0898-1.2578-6.6875-2.8281-10.801-4.7148-3.7773-1.7109-7.1875-3.3477-10.234-4.9062v-0.003907c-5.207-2.625-8.6172-7.8281-8.9453-13.652-0.32812-5.8203 2.4727-11.379 7.3477-14.574 4.8789-3.1953 11.09-3.5469 16.297-0.92188 3.2031 1.6328 6.2383 3.0977 9.0859 4.3906 2.4961 1.1406 5.6875 2.4961 9.6016 4.0938zm0-141.6v0.003906c5.4141 2.1914 9.2422 7.1055 10.051 12.891 0.80859 5.7812-1.5312 11.559-6.1367 15.148-4.6055 3.5898-10.777 4.4531-16.191 2.2578-3.0898-1.2656-6.6875-2.8398-10.801-4.7266-3.7773-1.7109-7.1875-3.3438-10.234-4.8945-4.7734-2.8438-7.7734-7.9258-7.957-13.477-0.1875-5.5547 2.4688-10.824 7.043-13.98s10.441-3.7656 15.566-1.6211c3.2031 1.6328 6.2383 3.0977 9.0859 4.3906 2.4961 1.1289 5.6875 2.4961 9.6016 4.0781zm0 283.2v0.003906c5.4141 2.1914 9.2422 7.1055 10.051 12.891 0.80859 5.7812-1.5312 11.559-6.1367 15.148-4.6055 3.5938-10.777 4.4531-16.191 2.2617-3.0898-1.2578-6.6875-2.832-10.801-4.7266-3.7773-1.7188-7.1875-3.3516-10.234-4.8945v-0.003907c-5.207-2.625-8.6172-7.832-8.9453-13.652-0.32812-5.8242 2.4727-11.379 7.3477-14.574 4.8789-3.1953 11.09-3.5469 16.297-0.92188 3.2031 1.6211 6.2383 3.0859 9.0859 4.3906 2.4961 1.1289 5.6875 2.4961 9.6016 4.0781zm-347.06 125.79c-1 4.3125-3.7031 8.0352-7.4961 10.32-3.7969 2.2852-8.3516 2.9297-12.633 1.793-4.2773-1.1406-7.9102-3.9648-10.07-7.832-2.1562-3.8672-2.6523-8.4453-1.375-12.684l56.906-212.59c1.6484-5.4688 6.0312-9.6797 11.562-11.109 5.5273-1.4258 11.402 0.13672 15.492 4.125 4.0898 3.9844 5.8008 9.8164 4.5156 15.383zm744.36-46.199c28.715-21.027 45.371-46.648 45.371-74.785v-429.8c0-39.215-32.398-73.559-84.707-97.391v-0.003906c-59.582-24.762-123.64-36.926-188.15-35.723-64.508-1.2031-128.57 10.961-188.15 35.723-46.008 20.941-76.57 50.004-83.305 83.363l-478.22 0.003906c-15.227 0.035157-29.816 6.0938-40.586 16.855-10.77 10.762-16.84 25.352-16.883 40.574v800.65c0.035156 15.23 6.1016 29.828 16.871 40.598 10.77 10.77 25.367 16.836 40.598 16.871h919.69c15.23-0.035156 29.828-6.1016 40.598-16.871 10.77-10.77 16.836-25.367 16.871-40.598v-339.47zm-26.785-21.07v-0.003906c0.93359-0.76953 1.9453-1.4336 3.0234-1.9805 23.016-15.445 36.406-33.254 36.406-51.719l0.003906-78.746c-15.559 13.539-33.086 24.629-51.984 32.879-59.578 24.77-123.64 36.934-188.15 35.727-64.512 1.207-128.57-10.957-188.15-35.727-18.898-8.25-36.43-19.34-51.984-32.879v78.734c0 25.199 25.043 49.297 65.531 67.727 55.328 22.797 114.77 33.918 174.6 32.664 59.824 1.2539 119.26-9.8672 174.59-32.664 9.0234-4.0547 17.75-8.7422 26.113-14.027zm-473.55-274.96h-501.57v635.5c0.035156 6.5508 2.6523 12.824 7.2852 17.457 4.6328 4.6328 10.91 7.2539 17.461 7.2891h919.69c6.5508-0.035156 12.824-2.6523 17.457-7.2852 4.6328-4.6328 7.2461-10.91 7.2734-17.461v-319.98c-2.1602 1.0664-4.3672 2.1016-6.6016 3.1211h0.003907c-59.578 24.773-123.64 36.941-188.15 35.734-64.512 1.207-128.57-10.961-188.15-35.734-52.344-23.82-84.707-58.164-84.707-97.379zm33.602 0h-0.82812v78c0 25.273 25.043 49.297 65.531 67.727v0.003907c55.328 22.797 114.77 33.918 174.6 32.66 59.824 1.2539 119.26-9.8672 174.59-32.66 40.5-18.434 65.543-42.457 65.543-67.727v-78.758c-15.551 13.543-33.082 24.629-51.984 32.879-59.578 24.773-123.64 36.941-188.15 35.734-64.512 1.207-128.57-10.961-188.15-35.734-18.551-8.1133-35.793-18.945-51.156-32.137zm16.188-29.398h-0.003906c-10.16-9.25-16.27-22.125-17.016-35.844v-78.816c15.559 13.539 33.086 24.625 51.984 32.879 59.578 24.773 123.64 36.941 188.15 35.734 64.492 1.207 128.54-10.953 188.1-35.711 18.898-8.2539 36.426-19.34 51.984-32.879v78.816c0 25.262-25.043 49.297-65.543 67.727h-0.003906c-55.324 22.793-114.76 33.914-174.59 32.664-59.828 1.2461-119.27-9.8711-174.6-32.664-16.621-7.125-31.98-16.887-45.492-28.906-0.87891-1.1172-1.8945-2.1172-3.0234-2.9766zm-199.8-67.957h150v64.633h-501.55v-132.43c0.03125-6.5508 2.6484-12.824 7.2852-17.457 4.6328-4.6328 10.91-7.2461 17.461-7.2734h476.82v59.773h-150v-0.003907c-4.418-0.11719-8.6953 1.5547-11.859 4.6328-3.168 3.082-4.9531 7.3125-4.9531 11.73 0 4.418 1.7852 8.6484 4.9531 11.73 3.1641 3.082 7.4414 4.75 11.859 4.6328zm-270.95 0c-5.7422-0.15625-10.98-3.3086-13.805-8.3047-2.8281-5-2.8281-11.113 0-16.113 2.8242-5 8.0625-8.1523 13.805-8.3047 4.418-0.12109 8.6914 1.5508 11.859 4.6328 3.1641 3.0781 4.9531 7.3086 4.9531 11.727s-1.7891 8.6484-4.9531 11.73c-3.168 3.082-7.4414 4.7539-11.859 4.6328zm87.109 0c-5.7422-0.15625-10.98-3.3086-13.809-8.3047-2.8242-5-2.8242-11.113 0-16.113 2.8281-5 8.0664-8.1523 13.809-8.3047 4.4141-0.12109 8.6914 1.5508 11.859 4.6328 3.1641 3.0781 4.9492 7.3086 4.9492 11.727s-1.7852 8.6484-4.9492 11.73c-3.168 3.082-7.4453 4.7539-11.859 4.6328zm87.109 0h-0.003906c-4.4141 0.12109-8.6914-1.5508-11.859-4.6328-3.1641-3.082-4.9492-7.3125-4.9492-11.73s1.7852-8.6484 4.9492-11.727c3.168-3.082 7.4453-4.7539 11.859-4.6328 4.418-0.12109 8.6953 1.5508 11.859 4.6328 3.168 3.0781 4.9531 7.3086 4.9531 11.727s-1.7852 8.6484-4.9531 11.73c-3.1641 3.082-7.4414 4.7539-11.859 4.6328zm-149.85 551.9c-4.4141 0.12109-8.6914-1.5508-11.859-4.6289-3.1641-3.082-4.9492-7.3125-4.9492-11.73s1.7852-8.6484 4.9492-11.73c3.168-3.082 7.4453-4.7539 11.859-4.6328h759.23c5.7383 0.15625 10.977 3.3086 13.805 8.3047 2.8242 5 2.8242 11.113 0 16.113-2.8281 5-8.0664 8.1523-13.805 8.3047zm0 100.19v0.003906c-5.8477 0-11.25-3.1211-14.176-8.1875-2.9219-5.0625-2.9219-11.301 0-16.367 2.9258-5.0625 8.3281-8.1836 14.176-8.1836h759.23c5.8477 0 11.25 3.1211 14.172 8.1836 2.9258 5.0664 2.9258 11.305 0 16.367-2.9219 5.0664-8.3242 8.1875-14.172 8.1875z" fill-rule="evenodd"/>
</svg>
