<?xml version="1.0" encoding="UTF-8"?>
<svg width="1200pt" height="1200pt" version="1.1" viewBox="0 0 1200 1200" xmlns="http://www.w3.org/2000/svg">
 <g>
  <path d="m1106.3 37.5h-1012.5c-31.031 0-56.25 25.219-56.25 56.25v150c0 10.359 8.3906 18.75 18.75 18.75h1087.5c10.359 0 18.75-8.3906 18.75-18.75v-150c0-31.031-25.219-56.25-56.25-56.25zm18.75 187.5h-1050v-131.26c0-10.359 8.3906-18.75 18.75-18.75h1012.5c10.359 0 18.75 8.3906 18.75 18.75z"/>
  <path d="m1143.7 300c-10.359 0-18.75 8.3906-18.75 18.75v214.5l-283.22-130.13 146.48-67.312c9.4219-4.3125 13.547-15.469 9.1875-24.844-4.3125-9.4219-15.422-13.5-24.844-9.1875l-175.74 80.719-175.74-80.766c-9.4219-4.3125-20.531-0.1875-24.891 9.1875-4.3125 9.4219-0.1875 20.531 9.1875 24.844l146.48 67.312-247.22 113.67-35.953 16.5v-214.5c0-10.359-8.3906-18.75-18.75-18.75-10.359 0-18.75 8.3906-18.75 18.75v496.45l-156.1-252.71 144.47-233.9c5.4375-8.8125 2.7188-20.344-6.0938-25.781s-20.344-2.7188-25.781 6.0938l-134.63 217.92-134.63-217.92c-5.4375-8.8125-16.969-11.531-25.781-6.0938s-11.531 16.969-6.0938 25.781l144.47 233.9-156.1 252.71v-496.45c0-10.359-8.3906-18.75-18.75-18.75-10.359 0-18.75 8.3906-18.75 18.75v787.5c0 31.031 25.219 56.25 56.25 56.25h1012.5c31.031 0 56.25-25.219 56.25-56.25v-787.5c0-10.359-8.3906-18.75-18.75-18.75zm-890.63 298.18 163.26 264.32h-326.53zm543.74-174.42 261.14 120h-522.28zm-721.87 682.5v-206.26h356.26v225h-337.5c-10.359 0-18.75-8.3906-18.75-18.75zm1050 0c0 10.359-8.3906 18.75-18.75 18.75h-637.5v-543.74h656.26z"/>
  <path d="m187.5 131.26h-37.5c-10.359 0-18.75 8.3906-18.75 18.75 0 10.359 8.3906 18.75 18.75 18.75h37.5c10.359 0 18.75-8.3906 18.75-18.75 0-10.359-8.3906-18.75-18.75-18.75z"/>
  <path d="m337.5 131.26h-37.5c-10.359 0-18.75 8.3906-18.75 18.75 0 10.359 8.3906 18.75 18.75 18.75h37.5c10.359 0 18.75-8.3906 18.75-18.75 0-10.359-8.3906-18.75-18.75-18.75z"/>
  <path d="m487.5 131.26h-37.5c-10.359 0-18.75 8.3906-18.75 18.75 0 10.359 8.3906 18.75 18.75 18.75h37.5c10.359 0 18.75-8.3906 18.75-18.75 0-10.359-8.3906-18.75-18.75-18.75z"/>
  <path d="m525 1087.5h543.74c10.359 0 18.75-8.3906 18.75-18.75v-112.5c0-10.359-8.3906-18.75-18.75-18.75h-543.74c-10.359 0-18.75 8.3906-18.75 18.75v112.5c0 10.359 8.3906 18.75 18.75 18.75zm18.75-112.5h506.26v75h-506.26z"/>
  <path d="m562.5 731.26c31.031 0 56.25-25.219 56.25-56.25s-25.219-56.25-56.25-56.25-56.25 25.219-56.25 56.25 25.219 56.25 56.25 56.25zm0-75c10.359 0 18.75 8.3906 18.75 18.75 0 10.359-8.3906 18.75-18.75 18.75s-18.75-8.3906-18.75-18.75c0-10.359 8.3906-18.75 18.75-18.75z"/>
  <path d="m675 693.74h393.74c10.359 0 18.75-8.3906 18.75-18.75 0-10.359-8.3906-18.75-18.75-18.75h-393.74c-10.359 0-18.75 8.3906-18.75 18.75 0 10.359 8.3906 18.75 18.75 18.75z"/>
  <path d="m562.5 881.26c31.031 0 56.25-25.219 56.25-56.25s-25.219-56.25-56.25-56.25-56.25 25.219-56.25 56.25 25.219 56.25 56.25 56.25zm0-75c10.359 0 18.75 8.3906 18.75 18.75 0 10.359-8.3906 18.75-18.75 18.75s-18.75-8.3906-18.75-18.75c0-10.359 8.3906-18.75 18.75-18.75z"/>
  <path d="m675 843.74h393.74c10.359 0 18.75-8.3906 18.75-18.75 0-10.359-8.3906-18.75-18.75-18.75h-393.74c-10.359 0-18.75 8.3906-18.75 18.75 0 10.359 8.3906 18.75 18.75 18.75z"/>
  <path d="m168.74 956.26c-31.031 0-56.25 25.219-56.25 56.25s25.219 56.25 56.25 56.25 56.25-25.219 56.25-56.25-25.219-56.25-56.25-56.25zm0 75c-10.359 0-18.75-8.3906-18.75-18.75 0-10.359 8.3906-18.75 18.75-18.75 10.359 0 18.75 8.3906 18.75 18.75 0 10.359-8.3906 18.75-18.75 18.75z"/>
  <path d="m356.26 956.26h-56.25c-10.359 0-18.75 8.3906-18.75 18.75 0 10.359 8.3906 18.75 18.75 18.75h56.25c10.359 0 18.75-8.3906 18.75-18.75 0-10.359-8.3906-18.75-18.75-18.75z"/>
  <path d="m356.26 1031.3h-56.25c-10.359 0-18.75 8.3906-18.75 18.75 0 10.359 8.3906 18.75 18.75 18.75h56.25c10.359 0 18.75-8.3906 18.75-18.75 0-10.359-8.3906-18.75-18.75-18.75z"/>
 </g>
</svg>
