<?xml version="1.0" encoding="UTF-8"?>
<svg width="1200pt" height="1200pt" version="1.1" viewBox="0 0 1200 1200" xmlns="http://www.w3.org/2000/svg">
 <g>
  <path d="m656.25 656.25h187.5v37.5h-187.5z"/>
  <path d="m656.25 731.25h187.5v37.5h-187.5z"/>
  <path d="m281.25 918.75h637.5v-637.5h-637.5zm37.5-600h562.5v562.5h-562.5z"/>
  <path d="m18.75 506.25h37.5v37.5h-37.5z"/>
  <path d="m18.75 356.25h37.5v37.5h-37.5z"/>
  <path d="m18.75 656.25h37.5v37.5h-37.5z"/>
  <path d="m18.75 806.25h37.5v37.5h-37.5z"/>
  <path d="m506.25 1143.8h37.5v37.5h-37.5z"/>
  <path d="m356.25 1143.8h37.5v37.5h-37.5z"/>
  <path d="m656.25 1143.8h37.5v37.5h-37.5z"/>
  <path d="m806.25 1143.8h37.5v37.5h-37.5z"/>
  <path d="m993.75 281.25v-7.7617l-67.238-67.238h-7.7617v-187.5h-37.5v187.5h-37.5v-112.5h-37.5v112.5h-37.5v-187.5h-37.5v187.5h-37.5v-112.5h-37.5v112.5h-37.5v-187.5h-37.5v187.5h-37.5v-112.5h-37.5v112.5h-37.5v-187.5h-37.5v187.5h-37.5v-112.5h-37.5v112.5h-37.5v-187.5h-37.5v187.5h-7.7617l-67.238 67.238v7.7617h-187.5v37.5h187.5v37.5h-112.5v37.5h112.5v37.5h-187.5v37.5h187.5v37.5h-112.5v37.5h112.5v37.5h-187.5v37.5h187.5v37.5h-112.5v37.5h112.5v37.5h-187.5v37.5h187.5v37.5h-112.5v37.5h112.5v37.5h-187.5v37.5h187.5v7.7617l67.238 67.238h7.7617v187.5h37.5v-187.5h37.5v112.5h37.5v-112.5h37.5v187.5h37.5v-187.5h37.5v112.5h37.5v-112.5h37.5v187.5h37.5v-187.5h37.5v112.5h37.5v-112.5h37.5v187.5h37.5v-187.5h37.5v112.5h37.5v-112.5h37.5v187.5h37.5v-187.5h7.7617l67.238-67.238v-7.7617h187.5v-37.5h-187.5v-37.5h112.5v-37.5h-112.5v-37.5h187.5v-37.5h-187.5v-37.5h112.5v-37.5h-112.5v-37.5h187.5v-37.5h-187.5v-37.5h112.5v-37.5h-112.5v-37.5h187.5v-37.5h-187.5v-37.5h112.5v-37.5h-112.5v-37.5h187.5v-37.5zm-37.5 629.74-45.262 45.262h-621.98l-45.262-45.262v-621.98l45.262-45.262h621.98l45.262 45.262z"/>
  <path d="m1143.8 656.25h37.5v37.5h-37.5z"/>
  <path d="m1143.8 806.25h37.5v37.5h-37.5z"/>
  <path d="m1143.8 506.25h37.5v37.5h-37.5z"/>
  <path d="m1143.8 356.25h37.5v37.5h-37.5z"/>
  <path d="m656.25 18.75h37.5v37.5h-37.5z"/>
  <path d="m806.25 18.75h37.5v37.5h-37.5z"/>
  <path d="m506.25 18.75h37.5v37.5h-37.5z"/>
  <path d="m356.25 18.75h37.5v37.5h-37.5z"/>
  <path d="m806.25 806.25h37.5v37.5h-37.5z"/>
  <path d="m731.25 806.25h37.5v37.5h-37.5z"/>
  <path d="m656.25 806.25h37.5v37.5h-37.5z"/>
  <path d="m431.25 356.25c-41.363 0-75 33.637-75 75s33.637 75 75 75 75-33.637 75-75-33.637-75-75-75zm0 112.5c-20.68 0-37.5-16.82-37.5-37.5s16.82-37.5 37.5-37.5 37.5 16.82 37.5 37.5-16.82 37.5-37.5 37.5z"/>
 </g>
</svg>
