<?xml version="1.0" encoding="UTF-8"?>
<svg width="1200pt" height="1200pt" version="1.1" viewBox="0 0 1200 1200" xmlns="http://www.w3.org/2000/svg">
 <g>
  <path d="m181.8 889.34c130.97 22.883 267.72 3.5898 399.96 2.9531 75.551-0.35938 151.11-1.1875 226.67-1.0938 72.457 0.097656 154.18-9.5391 225.37 4.1523 5.6758 1.0938 8.0898-7.5859 2.3867-8.6875-52.285-10.055-107.16-3.1328-160.2-3.9492-75.277-1.1523-150.6-0.42188-225.89 0.12109-152.36 1.1055-315.38 24.133-465.91-2.1719-5.668-0.99609-8.1016 7.668-2.3906 8.6758z"/>
  <path d="m1035 895.5c59.039-0.19141 115.68-62.34 122.53-119.47 8.7227-72.781-68.004-152.57-142.03-146.4-0.69531 0.058594-9.625-64.691-13.031-72.301-19.031-42.457-48.816-75.684-83.449-106.27-65.398-57.793-141.9-86.496-228.94-71.195-37.105 6.5273-76.211 26.328-104.71 50.578-17.375 14.785-34.246 30.359-47.773 48.898-17.531 24.047-24.457 17.508-48.156 9.6836-83.41-27.539-165.29 9.3359-216.6 74.16-13.297 16.801-23.328 35.699-32.195 55.094-6.5039 14.258-34.883 8.1133-46.633 10.414-33.434 6.5508-57.109 20.82-77.508 48.133-23.145 30.977-29.684 75.926-19.902 112.3 13.754 51.086 67.895 48.551 88.512 89.16 2.6289 5.1719 10.391 0.61328 7.7656-4.5469-3.4062-6.707-5.1367-9.168-12.145-13.895-45.098-30.457-89.219-55.934-77.398-123.64 12.602-72.215 66.625-104.43 136.66-98.699 2.0898 0.16797 3.6953-1.5234 4.3438-3.3008 37.141-101.91 170.14-196.93 275.39-120.31 2.0508 1.5 4.9336 0.28906 6.1562-1.6094 65.449-101.41 186.05-160.86 303.32-109.71 77.902 33.984 197.57 133.09 168.46 229.25-0.89844 2.9883 1.5234 5.4609 4.3438 5.6992 69.121 5.7617 146.27 45.145 148.11 125.41 1.2852 56.375-58.98 123.41-115.11 123.59-5.8008 0-5.8125 9-0.003906 8.9883z"/>
  <path d="m269.82 566.82c-38.941 33.59-134.43-1.3203-165.85-28.559-71.27-61.789-1.4297-139.12 68.23-149.91 1.9805-0.3125 3.2656-2.5078 3.3008-4.3438 3.3945-171.74 335.36-320.54 360-93 0.38281 3.5625 3.4805 5.375 6.7695 3.8867 45.91-20.832 96.059-23.16 141.09 0.98438 18.59 9.9727 38.762 41.281 51.816 51.949-4.4531-3.6367-10.859 2.6875-6.3594 6.3594 1.1758 0.96094 2.3516 1.9219 3.5156 2.8789 2.7734 2.2695 7.9219 1.1172 7.6797-3.1797-2.3164-41.914-63.887-74.242-96.828-82.223-26.734-6.4688-65.34-2.7461-90.625 8.7227-9.4336 4.2734-24.73-53.172-31.801-64.609-55.969-90.395-191.75-42.91-258.71 4.0195-42.406 29.711-75.383 72.18-90.277 121.86-3.1094 10.367-4.1055 21.156-5.0742 31.871-0.85156 9.3477-34.777 14.496-41.207 17.832-21.961 11.398-44.473 27.742-52.754 52.453-18.91 56.508 14.555 100.56 62.977 127.08 30.383 16.645 112.22 26.652 140.46 2.293 4.4141-3.793-1.9844-10.141-6.3516-6.3594z"/>
 </g>
</svg>
