<?xml version="1.0" encoding="UTF-8"?>
<svg width="1200pt" height="1200pt" version="1.1" viewBox="0 0 1200 1200" xmlns="http://www.w3.org/2000/svg">
 <g>
  <path d="m860.4 387c-4.875-4.0234-11.922-4.0234-16.797 0-11.367-17.551-26.543-32.316-44.402-43.199-40.867-17.371-84.184-28.301-128.4-32.402-71.141-12.652-144.47-1.6953-208.8 31.203-35.523 14.289-67.477 36.207-93.602 64.199-26.125 27.992-45.789 61.375-57.598 97.801-23.02 90.031-13.234 185.32 27.598 268.8 56.363 59.844 129.62 101.09 210.02 118.24 80.398 17.152 164.11 9.3945 239.98-22.238 162-78 138-346.8 72-482.4zm-464.4 411.6c-27.949-29.031-48.531-64.344-60.016-102.97-11.484-38.629-13.535-79.449-5.9844-119.03-2.4766-39.773 5.8008-79.48 23.957-114.95 18.16-35.469 45.531-65.402 79.242-86.648 67.277-45.184 149.18-63.191 229.2-50.398 32.727 3.4883 64.938 10.734 96 21.598 48 19.199 55.199 39.602 84 78 2.2812 1.082 4.9219 1.082 7.2031 0 26.234 57.957 39 121.11 37.336 184.7s-17.711 125.99-46.938 182.5c-86.398 147.6-332.4 88.801-444 7.2031z"/>
  <path d="m589.2 408.6c-42.062-1.4375-82.406 16.742-109.2 49.199-30.562 40.746-48.5 89.559-51.602 140.4 0 13.199 25.199 10.801 25.199 0h0.003906c2.4805-38.684 15.332-75.988 37.199-108 7.2539-20.098 21.246-37.059 39.598-48 17.855-7.4453 37.059-11.125 56.402-10.801 13.199 0 19.199-22.797 2.3984-22.797z"/>
  <path d="m600 114.6c0 12 25.199 7.1992 25.199 0 1.2148-15.176 1.2148-30.426 0-45.602-4.2617-20.137-6.6719-40.621-7.1992-61.199 0-12-25.199-7.1992-25.199 0 0.35547 17.422 2.7695 34.742 7.1992 51.598 2.375 18.324 2.375 36.879 0 55.203z"/>
  <path d="m926.4 71.398c-18.879 14.094-36.18 30.188-51.598 48-15.602 20.398-27.602 43.199-43.199 63.602-15.602 20.398 14.398 8.3984 20.398 8.3984s24-38.398 37.199-56.398c15.461-19.262 33.191-36.586 52.801-51.602 18-12-7.1992-22.797-15.602-12z"/>
  <path d="m1004.4 382.2c9.6016-19.199 28.801-22.801 46.801-33.602v0.003906c15.934-10.98 30.801-23.438 44.402-37.203h-22.801c-17.953 17.523-39.148 31.383-62.402 40.801-13.586 6.0469-24.625 16.66-31.199 30 0 0 21.602 7.1992 25.199 0z"/>
  <path d="m1192.8 573c-18.781 1.1875-37.621 1.1875-56.402 0-14.703-2.3555-29.691-2.3555-44.398 0-12 0-21.602 16.801 0 13.199 16.262-3 32.938-3 49.199 0 15.176 1.2266 30.426 1.2266 45.602 0 4.8008 0 22.801-13.199 6-13.199z"/>
  <path d="m1114.8 862.2c-22.758-5.2734-44.066-15.52-62.402-30-15.465-11.137-32.434-20.027-50.398-26.398 0 0-28.801 0-20.398 10.801 21.809 10.004 43.043 21.223 63.598 33.598 16.016 11.875 34.457 20.066 54 24 7.1992 1.1992 28.801-9.5977 15.602-12z"/>
  <path d="m853.2 989.4c0-8.3984-28.801 0-22.801 10.801 15.871 34.641 35.168 67.605 57.602 98.402 7.1992 8.3984 31.199 0 22.801-10.801-22.434-30.797-41.73-63.762-57.602-98.402z"/>
  <path d="m600 1066.2c-2.4102 19.527-2.4102 39.273 0 58.801-1.1875 22.383-1.1875 44.816 0 67.199 0 12 25.199 7.1992 25.199 0-1.1875-22.383-1.1875-44.816 0-67.199-2.4102-19.527-2.4102-39.273 0-58.801 7.1992-13.199-18-9.5977-25.199 0z"/>
  <path d="m350.4 1005c0 15.602-14.398 26.398-22.801 38.398h0.003906c-7.2148 14.938-16.066 29.027-26.402 42-10.801 9.6016 13.199 10.801 20.398 0 7.1992-10.801 20.398-34.801 33.602-51.602v0.003906c12.492-9.9219 19.961-24.855 20.402-40.801 0-3.6016-25.203 1.1992-25.203 12z"/>
  <path d="m176.4 838.2c-14.961 4.8516-28.824 12.602-40.797 22.801-20.379 14.766-42.559 26.863-66 36-15.602 7.1992 0 16.801 10.801 12h-0.003906c18.703-7.7578 36.762-16.988 54-27.602 14.398-8.3984 28.801-25.199 46.801-28.801 18-3.5977 10.801-17.996-4.8008-14.398z"/>
  <path d="m97.199 601.8s27.602 0 24-8.3984c-3.5977-8.4023-22.801-7.2031-34.801-7.2031h-67.199s-27.602 10.801-15.602 10.801h57.602c12-1.1992 26.402-4.8008 36 4.8008z"/>
  <path d="m188.4 348.6c-23.984-13.793-46.855-29.441-68.398-46.801-8.3984-4.8008-31.199 9.5977-20.398 9.5977 10.801 0 44.398 33.602 69.602 45.602 25.195 12 31.195-2.3984 19.195-8.3984z"/>
  <path d="m369.6 157.8c0 7.1992 28.801 0 22.801-9.6016h-0.003906c-8.6875-12.57-15.559-26.305-20.398-40.801-7.8359-14.137-14.266-29.008-19.199-44.398 0-8.3984-27.602 0-25.199 7.1992 2.3984 7.1992 14.398 32.398 21.602 48h-0.003906c3.6016 14.617 10.59 28.184 20.402 39.602z"/>
 </g>
</svg>
