<?xml version="1.0" encoding="UTF-8"?>
<svg width="1200pt" height="1200pt" version="1.1" viewBox="0 0 1200 1200" xmlns="http://www.w3.org/2000/svg">
 <g>
  <path d="m164 643.5c-59.484 1.8828-77.531-69.504-86.746-115.93-7.7539-39 3.8984-70.754 30.828-98.676 29.219-30.289 67.332-28.883 105.12-36.551 5.6875-1.1523 3.2773-9.8281-2.3867-8.6875-43.703 8.8672-73.812 9.0469-109.09 38.867-24.504 20.699-40.547 56.438-36.047 88.668 7.668 54.961 27.938 143.53 98.34 141.3 5.7695-0.16797 5.7812-9.168-0.015625-8.9883z"/>
  <path d="m214.5 396c4.6094-71.062 53.785-110.96 116.98-131.7 47.004-15.422 117.06-27.91 153.34 14.879 3.7578 4.4414 10.094-1.9688 6.3594-6.3594-39.336-46.391-110.79-32.062-162.1-17.195-67.871 19.68-118.87 67.621-123.59 140.38-0.35547 5.7969 8.6445 5.7617 9.0156 0z"/>
  <path d="m493.19 271.19c78.203-88.379 166.26-168.83 293.5-140.91 56.688 12.434 113.15 57.035 154 96.203 7.4531 7.1406 79.535 135.45 50.125 147.19-5.3164 2.125-3 10.836 2.3867 8.6875 1.8477-0.74219 3.707-1.4883 5.5547-2.2188 2.0391-0.81641 3.0859-2.1367 3.3008-4.3438 11.09-110.9-83.316-202.59-178.15-241.5-140.62-57.695-247.45 29.258-337.08 130.55-3.8281 4.3086 2.5078 10.691 6.3711 6.3477z"/>
  <path d="m178.8 644.34c125.79 17.426 254.43 0.97266 380.84-1.2852 145.57-2.5938 289.45 7.4023 434.68 11.953 67.234 2.1016 117.56-47.879 126.05-112.73 11.773-89.953-49.285-127.84-122.09-164.17-5.1836-2.5781-9.7422 5.1836-4.5469 7.7656 30.227 15.086 59.543 29.914 85.598 51.793 47.438 39.828 39.551 107.72 13.609 156.86-45.625 86.438-199.81 44.219-276.55 41.258-101-3.8984-202.18-2.9414-303.2-0.83984-110.65 2.3047-221.73 15.984-331.98 0.70703-5.6797-0.78516-8.1289 7.8906-2.4023 8.6836z"/>
  <path d="m202.81 773.18c22.645 23.062 45 50.773 54.84 82.008 1.7383 5.5078 10.43 3.1562 8.6875-2.3867-10.32-32.746-33.406-61.789-57.168-85.992-4.0664-4.1406-10.43 2.2305-6.3594 6.3711z"/>
  <path d="m436.8 780.35c26.16 8.293 46.812 36.758 64.008 56.832 3.7812 4.4141 10.117-1.9805 6.3594-6.3594-18.406-21.504-39.898-50.258-67.992-59.16-5.5312-1.7539-7.8828 6.9375-2.375 8.6875z"/>
  <path d="m679.73 765.89c28.02 18.109 48.949 46.453 66.383 74.387 3.0586 4.9062 10.848 0.39453 7.7656-4.5469-18.289-29.281-40.273-58.645-69.613-77.617-4.8828-3.1523-9.3828 4.6328-4.5352 7.7773z"/>
  <path d="m910.81 781.19c11.977 12.469 20.965 27.805 31.836 41.23 7.1992 8.8906 17.652 21.926 30.539 19.934 5.7227-0.88672 3.2773-9.5508-2.3867-8.6875-10.754 1.668-24.863-21.324-30-28.188-7.7031-10.262-14.699-21.371-23.617-30.648-4.0312-4.1992-10.391 2.1719-6.3711 6.3594z"/>
  <path d="m199.73 947.89c24.277 16.969 39.672 43.246 61.094 63.289 4.2344 3.9609 10.609-2.3867 6.3594-6.3594-22.043-20.641-37.895-47.219-62.902-64.703-4.7773-3.3359-9.2656 4.4766-4.5508 7.7734z"/>
  <path d="m437.72 935.89c26.711 19.234 45.637 46.812 67.094 71.293 3.8281 4.3672 10.176-2.0156 6.3594-6.3594-22.031-25.152-41.484-52.945-68.914-72.707-4.7188-3.3984-9.1953 4.4141-4.5391 7.7734z"/>
  <path d="m672.82 937.19c25.859 20.605 43.727 49.691 70.906 68.699 4.7656 3.3359 9.2656-4.4766 4.5469-7.7656-26.484-18.527-43.848-47.195-69.086-67.297-4.4844-3.5703-10.902 2.7383-6.3672 6.3633z"/>
  <path d="m914.82 939.18c21.863 24.145 41.16 50.723 66 72 4.3789 3.7578 10.777-2.5781 6.3594-6.3594-24.84-21.277-44.137-47.855-66-72-3.8984-4.3203-10.246 2.0742-6.3594 6.3594z"/>
 </g>
</svg>
