<?xml version="1.0" encoding="UTF-8"?>
<svg width="1200pt" height="1200pt" version="1.1" viewBox="0 0 1200 1200" xmlns="http://www.w3.org/2000/svg">
 <g>
  <path d="m199.8 946.66c-72.793 10.344-101.51-97.355-94.309-148.68 8.9648-63.863 75.07-93.277 131.51-100.48 5.6758-0.73047 5.7461-9.7305 0-9-65.184 8.3164-138.98 45.383-142.07 120.56-2.375 58.129 33.84 156.71 107.26 146.28 5.7344-0.81641 3.2852-9.4922-2.3906-8.6875z"/>
  <path d="m246.89 701.27c22.402-51.301 48.648-107.86 109.46-119.68 12.047-2.3398 140.51-15.312 128.75 10.129-2.4102 5.2305 5.3398 9.8047 7.7773 4.5469 19.223-41.652-80.305-30.215-96.422-28.922-85.738 6.9258-123.47 51.805-157.36 129.37-2.2891 5.2812 5.4727 9.8516 7.7891 4.5508z"/>
  <path d="m501.89 599.27c67.703-95.93 198.37-168.04 313.32-111.31 52.766 26.051 196.59 127.2 146.89 199.77-3.2773 4.8008 4.5234 9.3008 7.7773 4.5469 55.223-80.664-94.043-181.61-150.13-212.07-116.93-63.504-257.28 17.664-325.66 114.53-3.332 4.7617 4.4766 9.25 7.8008 4.5469z"/>
  <path d="m210 952.5c127.81-8.2305 255.77-3.2266 383.71-1.7383 127.88 1.4883 255.84-7.5703 383.51 2.5195 76.223 6.0234 113.36-56.41 110.66-126.02-1.1172-28.5-13.309-61.906-31.223-83.977-26.293-32.398-56.449-32.891-91.379-51.168-5.1367-2.6875-9.6953 5.0742-4.5469 7.7656 27.359 14.305 57.504 15.781 80.785 38.941 33.359 33.191 42.238 86.207 34.848 130.7-17.879 107.87-203.71 69.156-281.48 70.297-194.65 2.8555-390.56-8.8555-584.88 3.6719-5.7656 0.37891-5.8008 9.3789-0.003906 9.0078z"/>
  <path d="m735.19 438.18c56.797-58.402 153.93-61.812 216.76-12.574 28.176 22.078 47.699 58.391 47.879 94.129 0.011719 2.8438-8.2305 82.43-22.559 76.379-5.2812-2.2305-9.875 5.5195-4.5469 7.7656 17.496 7.3906 23.578-16.621 27.637-29.219 13.812-42.91 10.332-82.367-12.086-120.98-52.355-90.238-190.7-92.555-259.46-21.863-4.043 4.1719 2.3281 10.531 6.3828 6.3672z"/>
  <path d="m620.81 348.18c16.008 12.457 33.84 21.66 51.91 30.707 5.1836 2.5938 9.7422-5.1719 4.5469-7.7656-17.316-8.6641-34.754-17.352-50.09-29.293-4.5078-3.5352-10.93 2.7891-6.3672 6.3516z"/>
  <path d="m799.5 225c0.085938 13.586 0.9375 27.168 2.0156 40.703 0.73047 9.3125 0.63672 20.676 4.1523 29.496 2.125 5.3281 10.824 3 8.6758-2.3867-3.6602-9.1914-3.3242-20.797-4.0938-30.516-0.98438-12.395-1.668-24.852-1.7539-37.285-0.03125-5.8086-9.0312-5.8203-8.9961-0.011719z"/>
  <path d="m987.19 339.18c14.676-11.773 29.062-23.953 44.09-35.293 4.5703-3.457 0.097656-11.27-4.5469-7.7656-15.637 11.809-30.625 24.445-45.91 36.707-4.5391 3.6289 1.8789 9.9414 6.3672 6.3516z"/>
  <path d="m1069.2 487.34c21.156-3.2266 41.844-8.7734 63-12 5.7227-0.875 3.2773-9.5391-2.3867-8.6875-21.156 3.2266-41.844 8.7734-63 12-5.7227 0.875-3.2891 9.5508 2.3867 8.6875z"/>
  <path d="m1034.8 648.18c14.41 14.398 29.004 28.246 45.91 39.707 4.8125 3.2656 9.3125-4.5352 4.5469-7.7656-16.273-11.027-30.238-24.445-44.09-38.293-4.1016-4.1133-10.461 2.2461-6.3672 6.3516z"/>
 </g>
</svg>
