<?xml version="1.0" encoding="UTF-8"?>
<svg width="1200pt" height="1200pt" version="1.1" viewBox="0 0 1200 1200" xmlns="http://www.w3.org/2000/svg">
 <path d="m1021.8 1033.9c-0.33594-4.1289-3-7.6797-8.0391-7.5-1.1055-0.15625-2.2578-0.035156-3.457 0.3125-103.04 12.758-211.31 0.14453-301.8-53.293-66.984-39.562-117.91-101.2-149.27-171.89-63.984-144.28-38.855-338.27 75.445-450.89 91.199-89.844 234.48-128.94 359.17-104.29 8.2812 1.6445 14.891-6.3359 10.812-14.062-15.254-28.969-42.277-50.785-68.305-70.008-30.07-22.211-64.043-38.723-99.215-51.047-72.266-25.309-150.88-28.492-226.16-17.977-151.55 21.203-297.12 106.98-369.38 244.37-71.281 135.49-83.641 299.32-32.93 443.73 51 145.21 166.68 257.05 313.21 303.56 88.262 28.008 183.32 33.059 274.85 22.078 48.254-5.7852 95.746-16.598 142.38-30.121 28.848-8.3633 52.957-17.508 78.48-32.605 4.25-2.5117 5.2227-6.6914 4.2148-10.375zm-129.82 35.906c-58.703 14.762-118.82 22.957-179.36 23.543-100.41 0.97266-202.77-21.66-289.34-73.488-134.46-80.473-213.74-228.61-225.19-382.69-11.559-155.61 44.902-322.23 168.81-421.16 122.88-98.137 301.08-135.82 452.07-90.539 34.246 10.273 66.637 25.812 96.434 45.492 21.648 14.293 44.762 31.969 61.164 53.258-164.47-22.969-345.64 54.145-422.1 205.23-68.543 135.45-64.547 303.72 15.383 433.4 84.805 137.58 241.33 193.97 396.5 186.77-8.5664 2.5781-17.746 4.4023-25.344 6.7305-16.219 4.9102-32.574 9.3125-49.027 13.453z"/>
</svg>
