<?xml version="1.0" encoding="UTF-8"?>
<svg width="1200pt" height="1200pt" version="1.1" viewBox="0 0 1200 1200" xmlns="http://www.w3.org/2000/svg">
 <g>
  <path d="m195 1083c-146.72 11.172-129.25-266.86 15.613-231.32 11.27 2.7617 16.055-14.594 4.7773-17.352-172.04-42.203-192.07 279.74-20.391 266.68 11.496-0.875 11.578-18.875 0-18z"/>
  <path d="m224.69 848.39c10.906-55.969 37.414-94.414 87-123.09 40.43-23.375 133.69-53.688 160.55 2.2305 5.0273 10.465 20.543 1.3203 15.539-9.0859-26.426-55.008-101.03-41.531-148.2-25.68-71.891 24.168-117.94 77.387-132.25 150.83-2.2031 11.359 15.137 16.184 17.367 4.793z"/>
  <path d="m487.77 727.54c51.805-98.941 142.61-146.05 252.95-140.63 65.746 3.2383 117.28 36.73 164.91 79.453 25.223 22.621 46.871 47.711 64.906 76.441 2.8555 4.5469 27.77 72.395 20.902 77.426-9.2539 6.7812-0.28906 22.414 9.0977 15.539 24.156-17.699-4.4297-81.562-14.461-102.05-32.328-66.059-108.73-123.23-175-151.08-129.52-54.434-277.62 18.863-338.86 135.82-5.375 10.277 10.164 19.375 15.543 9.0781z"/>
  <path d="m988.45 844.77c32.879 15.191 62.566 33.266 89.074 58.297 40.309 38.051 27.91 102.76 3.1094 145.82-20.398 35.426-64.586 41.137-100.68 47.305-59.449 10.176-119.95 13.766-180.14 15.742-199.8 6.5508-399.09-21.875-598.81-22.945-11.617-0.058593-11.605 17.941 0 18 269.11 1.4297 538.6 48.504 806.39 2.6758 64.285-11.004 102.82-52.871 111.24-117.61 11.09-85.379-48.695-129.38-121.08-162.83-10.461-4.8242-19.617 10.68-9.0938 15.543z"/>
  <path d="m231.61 774.32c-50.941 15.133-94.789-14.23-118.03-58.836-28.477-54.672-0.85156-109.41 53.809-130.81 10.691-4.1758 6.0352-21.59-4.7773-17.352-63.984 25.031-93.758 82.738-68.543 148.32 22.031 57.266 82.273 93.875 142.32 76.031 11.098-3.3008 6.3711-20.676-4.7773-17.352z"/>
  <path d="m180 576c-2.4258-87.863 62.594-166.97 147.14-184.97 105.24-22.391 138.07 47.34 200.5 110.33 8.1836 8.2578 20.902-4.4766 12.73-12.73-33.562-33.863-55.992-75.238-95.941-102.74-38.293-26.363-96.156-17.734-138.28-8.7617-85.062 18.105-146.45 115.67-144.15 198.88 0.3125 11.578 18.312 11.617 18 0z"/>
  <path d="m534 504c37.801 0.26562 80.41-23.258 116.77-6.9492 30.012 13.477 68.449 42.742 78.539 75.336 3.4336 11.051 20.797 6.3359 17.363-4.7773-10.559-34.105-41.844-57.758-70.414-76.789-47.398-31.57-90.949-4.4531-142.26-4.8125-11.617-0.09375-11.605 17.906 0 17.992z"/>
  <path d="m820.45 397.77c173.28 82.535 295.59-181.81 141.1-276.54-9.9258-6.0859-18.961 9.4922-9.0977 15.539 134.54 82.5 29.746 318.18-122.9 245.46-10.43-4.9688-19.574 10.559-9.0977 15.539z"/>
  <path d="m821.64 402.36c96.73 77.508 224.71 54.887 273.36-64.488 26.855-65.867 6.0586-136.63-35.16-190.45-18.086-23.605-94.992-64.273-118.21-36.793-7.4414 8.8086 5.2305 21.602 12.73 12.73 21.996-26.039 103.48 51.781 107.73 58.32 30.289 46.488 31.188 99.613 15.551 151.4-33.852 112.21-164.36 119.77-243.28 56.543-8.9727-7.168-21.789 5.4805-12.727 12.738z"/>
 </g>
</svg>
