<?xml version="1.0" encoding="UTF-8"?>
<svg width="1200pt" height="1200pt" version="1.1" viewBox="0 0 1200 1200" xmlns="http://www.w3.org/2000/svg">
 <g>
  <path d="m173.41 835.98c-69.324 13.656-94.414-95.953-84.648-142.25 7.2734-34.535 28.836-61.727 58.297-79.824 5.9766-3.6719 52.078-18.238 54.527-16.344 0.91016-7.0664 1.8242-14.137 2.7344-21.203-1.3789 0.99609-2.7617 1.9922-4.1406 3-13.969 10.094-0.50391 33.527 13.633 23.305 1.3789-0.99609 2.7617-1.9922 4.1406-2.9883 6.2383-4.5117 10.223-15.406 2.7344-21.203-17.641-13.656-56.23-2.5938-74.219 5.9531-49.176 23.34-75.551 63.301-86.652 115.93-14.113 66.938 40.922 177.41 120.77 161.68 17.078-3.3789 9.8281-29.406-7.1758-26.059z"/>
  <path d="m233.65 594.82c29.258-38.531 50.844-81.961 91.535-110.22 52.633-36.551 112.43-16.969 166.22 2.4258 16.414 5.9141 23.426-20.184 7.1758-26.039-60.191-21.695-107.63-32.555-169.18-9-56.809 21.742-84.719 83.977-119.06 129.2-10.547 13.867 12.926 27.309 23.305 13.629z"/>
  <path d="m503.65 483.82c64.766-92.688 170.21-163.68 287.1-131.75 93.098 25.441 199.5 143.36 177.23 244.36-3.7422 16.969 22.285 24.18 26.039 7.1758 25.668-116.4-80.484-228.46-179.5-271.44-128.99-56.004-262.66 35.676-334.19 138.04-9.9961 14.305 13.43 27.781 23.316 13.621z"/>
  <path d="m978.35 603.82c30.371 48.266 103.22 24.816 125.68 90.695 21.445 62.914-33.434 111.34-81.707 137.53-54.133 29.375-119.7 27.371-179.32 27.457-109.2 0.15625-217.77 5.4258-327 0-50.438-2.4961-100.89-4.4766-151.38-5.5938-59.867-1.3203-123.79 11.988-181.03-8.9297-16.391-5.9883-23.387 20.113-7.1758 26.039 54.434 19.883 109.77 9.3125 166.49 9.5898 73.246 0.35938 146.39 5.125 219.55 7.9453 130.03 5.0039 270.65 10.246 399.6-8.8555 84.996-12.59 164.39-68.242 172.22-157.7 2.5547-29.148-10.691-70.344-36.492-86.676-21.996-13.906-83.496-25.066-96.133-45.133-9.2422-14.688-32.617-1.1523-23.305 13.633z"/>
  <path d="m908.41 277.02c131.55 31.453 212.51-113.82 121.13-211.56-11.914-12.742-30.973 6.3828-19.094 19.094 72.781 77.855 10.285 191.58-94.871 166.44-16.906-4.0586-24.094 21.98-7.1641 26.023z"/>
  <path d="m1028.2 83.652c31.98 17.293 62.34 36.648 83.664 66.781 31.621 44.699-6.7305 96.66-42.938 123.96-51.984 39.215-124.2 17.449-177.1-7.0547-15.684-7.2734-29.41 15.996-13.633 23.305 80.52 37.309 169.8 49.883 235.57-20.93 79.199-85.262 10.031-165.05-71.941-209.39-15.305-8.2734-28.938 15.043-13.625 23.324z"/>
  <path d="m301.5 951v39c0 17.41 27 17.41 27 0v-39c0-17.41-27-17.41-27 0z"/>
  <path d="m430.5 963c0.49219 9.0586 3.8516 16.789 7.8477 24.816 3.2773 6.5742 12.445 8.375 18.469 4.8359 6.6602-3.8984 8.125-11.879 4.8359-18.469-1.7266-3.4805-3.9492-7.2344-4.1523-11.184-0.39453-7.3438-5.8438-13.5-13.5-13.5-7.0547 0-13.895 6.1445-13.5 13.5z"/>
  <path d="m556.5 963c-0.3125 10.262-5.1016 22.152-8.5195 32.41-5.5078 16.559 20.566 23.605 26.039 7.1758 4.2344-12.73 9.0586-26.039 9.4805-39.59 0.53906-17.422-26.461-17.359-27 0.003906z"/>
  <path d="m664.5 945v39c0 17.41 27 17.41 27 0v-39c0-17.41-27-17.41-27 0z"/>
  <path d="m793.98 957.59c2.6406 8.5938 2.5078 17.508 2.5195 26.41 0 17.41 27 17.41 27 0 0-11.219-0.16797-22.777-3.4805-33.59-5.0859-16.594-31.164-9.5156-26.039 7.1797z"/>
  <path d="m373.5 1074c0.21484 15.48 3.4336 30.492 6.4805 45.59 3.457 17.062 29.484 9.8164 26.039-7.1758-2.5938-12.793-5.3281-25.309-5.5195-38.41-0.25391-17.402-27.254-17.43-27-0.003906z"/>
  <path d="m484.5 1080c0 10.32 0.44531 20.652 3.4805 30.59 5.0898 16.598 31.152 9.5156 26.039-7.1758-2.375-7.7383-2.5078-15.371-2.5195-23.41-0.011719-17.414-27.012-17.414-27-0.003906z"/>
  <path d="m622.98 1080.6c2.375 7.7383 2.5078 15.371 2.5195 23.41 0.011719 17.41 27.012 17.41 27 0 0-10.32-0.44531-20.652-3.4805-30.59-5.0859-16.594-31.152-9.5156-26.039 7.1797z"/>
  <path d="m754.5 1062v45c0 17.41 27 17.41 27 0v-45c0-17.41-27-17.41-27 0z"/>
  <path d="m850.98 1089.6c2.7109 8.6641 2.5195 17.316 2.5195 26.41 0 17.41 27 17.41 27 0 0-11.27-0.085938-22.727-3.4805-33.59-5.1836-16.559-31.246-9.4883-26.039 7.1797z"/>
 </g>
</svg>
