<?xml version="1.0" encoding="UTF-8"?>
<svg width="1200pt" height="1200pt" version="1.1" viewBox="0 0 1200 1200" xmlns="http://www.w3.org/2000/svg">
 <g fill="none" stroke="#000" stroke-linecap="round" stroke-linejoin="round" stroke-miterlimit="10" stroke-width=".5">
  <path transform="scale(12)" d="m69.844 60.823c1.1471 0.56901 2.195 2.4909 2.027 4.1221 0.48698-0.10807 1.1029-0.01888 1.6009-0.12109 1.1201 4.972 4.124 14.455 1.0469 18.65-4.0719 5.5511-14.998 6.499-21.164 6.153-7.7051-0.43294-18.595 1.2109-25.597-2.891-5.2712-3.0869-4.1689-8.7419-3.9049-13.949 0.16016-3.2129 1.4049-4.9639 2.1602-8.097 0.486-0.065104 0.72103 0.044922 1.181-0.022135-0.33203-1.667 1.1481-3.6299 2.556-4.1602"/>
  <path transform="scale(12)" d="m23.576 81.182c-9.2171 16.081 35.274 13.167 41.659 11.421 2.8799-0.78809 7.1559-2.388 9.777-4.0618 2.8519-1.821 1.8962-6.415 0.41992-6.833"/>
  <path transform="scale(12)" d="m27.193 64.667c2.373 3.5212 14.547 3.8929 18.643 3.7591 7.8822-0.25814 19.395 0.36491 26.172-3.4831"/>
  <path transform="scale(12)" d="m40.744 32.921c1.3161-0.33301 2.7061-0.4541 3.9769-0.43099-1.748 4.334-5.2148 8.776-8.4811 12.005 1.6901-0.15397 3.3779-0.42188 5.0869-0.43815-1.4928 3.6882-4.9421 7.0101-7.9271 9.609 10.212 0.20606 22.999-1.6742 32.938 0.29297 0.051106 0.058919 0.051106 0.059896 0 0.00293-2.9928-2.6471-5.2331-7.4401-6.1631-11.224 1.234 0.083008 2.556-0.17285 3.804-0.019857-3.7939-3.3271-6.2572-7.1559-8.7992-11.113 0.97005 0.34603 3.2259 0.26009 4.179 0.55892-3.514-3.7119-9.8219-9.4769-10.213-13.509-9.76e-4 0.003256-3.2708 8.9245-8.4017 14.266z"/>
  <path transform="scale(12)" d="m47.642 53.39c-0.21191 2.484-0.4541 5.724 0.16309 8.2581 1.5651 0 3.0951 0 4.7829-0.3099-0.31999-2.4701-0.4401-6.5329-0.28516-8.251"/>
  <path transform="scale(12)" d="m35.012 62.553c1.8021-2.514 5.111-5.098 12.4-4.7321"/>
  <path transform="scale(12)" d="m52.303 57.821c7.502-0.36589 11.904 1.8089 12.605 5.1911"/>
  <path transform="scale(12)" d="m40.711 84.189c-0.036133-1.625 0.19596-4.1999 0.40104-6.2139"/>
  <path transform="scale(12)" d="m37.704 81.182c2.0339 0.24805 5.2852 0.25716 7.0169 0"/>
  <path transform="scale(12)" d="m38.707 78.576c1.181 2.0781 3.126 3.9229 4.61 5.8132"/>
  <path transform="scale(12)" d="m38.105 83.989c1.8258-1.1462 3.7539-3.43 5.8132-4.611"/>
  <path transform="scale(12)" d="m55.696 71.984c0.18815 2.8099 0.58105 4.7129 0.60091 7.418"/>
  <path transform="scale(12)" d="m52.588 75.493h7.2171"/>
  <path transform="scale(12)" d="m52.789 72.886c1.9541 1.9111 3.9821 3.861 6.4141 5.012"/>
  <path transform="scale(12)" d="m53.189 78.7c1.055-1.946 3.8581-4.6729 5.613-6.014"/>
  <path transform="scale(12)" d="m69.844 76.495c0.27506 1.7051 0.44596 4.4271 0.40006 5.8141"/>
  <path transform="scale(12)" d="m67.037 79.702c1.848-0.24707 4.8271-0.67188 5.4131-1.002"/>
  <path transform="scale(12)" d="m67.236 77.096c1.638 1.3659 3.5879 2.5589 5.2139 3.8089"/>
  <path transform="scale(12)" d="m67.438 82.509c1.1211-1.7051 4.002-5.2451 4.8118-5.613"/>
  <path transform="scale(12)" d="m28.948 76.528c-0.013998-0.92415 0.1429-5.3441 0.19987-5.5801"/>
  <path transform="scale(12)" d="m26.743 73.488c1.6999 0.22103 3.4971 0.42806 5.2119 0.60189"/>
  <path transform="scale(12)" d="m26.743 76.094c1.3831-1.3701 2.583-3.3799 4.21-4.611"/>
  <path transform="scale(12)" d="m26.942 71.082c1.585 1.7288 3.2601 3.6449 4.612 5.2119"/>
  <path transform="scale(12)" d="m37.769 20.362c0.027995 0.22103 0.18099 0.27311 0.40006 0.20085"/>
  <path transform="scale(12)" d="m30.952 28.381c0.15007 0.015951 0.21712-0.051106 0.19987-0.20085"/>
  <path transform="scale(12)" d="m29.147 37.001c-0.097981 0.3099-0.24805 0.61686-0.40006 0.80208"/>
  <path transform="scale(12)" d="m37.968 27.579c0.036133 0.019856 0.53613 0.25586 0.20085 0.20085"/>
  <path transform="scale(12)" d="m35.362 37.803c-0.026041 0.10905 0.051107 0.17188 0.19987 0.20085"/>
  <path transform="scale(12)" d="m31.353 31.99c0.055989-0.023112 0.55013-0.25814 0.19987 0"/>
  <path transform="scale(12)" d="m62.427 19.36v0.60091"/>
  <path transform="scale(12)" d="m55.21 21.564c0.066081 0.067057 0.13216 0.13411 0.19889 0.20085"/>
  <path transform="scale(12)" d="m66.836 31.388v0.19987"/>
  <path transform="scale(12)" d="m63.028 25.574c0.28906-0.24902 1.1969-1.0309 0 0"/>
  <path transform="scale(12)" d="m69.443 40.208c0.18099 0.040039 0.096028-0.19206 0-0.40006"/>
  <path transform="scale(12)" d="m75.057 32.39c0.18001 0.060872 0.38509 0.13509 0 0.20085"/>
  <path transform="scale(12)" d="m70.847 26.176c-0.17513 0.12305-0.17513 0.18913 0 0.19987"/>
  <path transform="scale(12)" d="m74.054 44.82c0.083985 0.11296 0.17904 0.25391 0 0.19987"/>
  <path transform="scale(12)" d="m66.637 48.027c0.10905 0.2041 0.2679 0.017904 0.40006-0.19987"/>
  <path transform="scale(12)" d="m72.65 49.832c-0.19987 0.34505-0.021159 0.20898 0.19987 0"/>
  <path transform="scale(12)" d="m69.042 57.25c0.027995 0.15006 0.091146 0.22689 0.19987 0.19987"/>
  <path transform="scale(12)" d="m31.754 47.426v0.20085"/>
  <path transform="scale(12)" d="m26.141 43.817c0.16504-9.76e-4 0.29785 0.065104 0.40006 0.20085"/>
  <path transform="scale(12)" d="m30.952 42.013c0.13607-0.007162 0.05892 0.19694 0 0.40104"/>
  <path transform="scale(12)" d="m29.749 56.848h0.20085"/>
  <path transform="scale(12)" d="m35.162 56.648v0.19987"/>
  <path transform="scale(12)" d="m26.942 49.832c-0.4349 0.55111-0.01888 0.1901 0.19987 0"/>
  <path transform="scale(12)" d="m24.938 34.796c0.22396-0.13802 0.36686-0.34993 0.40006-0.60189"/>
  <path transform="scale(12)" d="m26.942 26.376c0.14909 0.01595 0.21712-0.051107 0.19987-0.19987"/>
  <path transform="scale(12)" d="m30.952 18.758v0.19987"/>
  <path transform="scale(12)" d="m41.176 13.947c-0.05306 0.25716-0.035156 0.41504 0.20085 0.20085"/>
  <path transform="scale(12)" d="m41.576 21.766c0.012045 0.17415 0.079102 0.17415 0.20085 0"/>
  <path transform="scale(12)" d="m47.992 13.546v0.19987"/>
  <path transform="scale(12)" d="m55.21 15.55c-0.016927 0.15006 0.05013 0.21712 0.19889 0.20085"/>
  <path transform="scale(12)" d="m62.626 56.247c0.13607-0.10286 0.20215-0.236 0.20085-0.40104"/>
  <path transform="scale(12)" d="m67.639 19.36v0.40006"/>
  <path transform="scale(12)" d="m68.763 61.684c7.4391-5.6621 12.241-14.612 12.241-24.683 0-17.123-13.881-31.003-31.004-31.003s-31.004 13.88-31.004 31.003c0 9.2721 4.07 17.594 10.521 23.275l0.63314 0.63086c5.2861 3.2331 12.164 2.4961 18.422 2.861 6.5492 0.38086 13.663 0.625 19.36-1.752z"/>
 </g>
</svg>
