<?xml version="1.0" encoding="iso-8859-1"?>
<!-- Uploaded to: SVG Repo, www.svgrepo.com, Generator: SVG Repo Mixer Tools -->
<svg version="1.1" id="Layer_1" xmlns="http://www.w3.org/2000/svg" xmlns:xlink="http://www.w3.org/1999/xlink" 
	 viewBox="0 0 496.2 496.2" xml:space="preserve">
<path style="fill:#A3D5E0;" d="M0,248.1c0,137,111.1,248.1,248.1,248.1s248.1-111.1,248.1-248.1S385.1,0,248.1,0S0,111.1,0,248.1z"
	/>
<g>
	<rect x="244.9" y="87.5" style="fill:#72AF1B;" width="8.5" height="240.5"/>
	<path style="fill:#72AF1B;" d="M253.3,87.5c0,7.2-5.6,17.6-22.3,17.6c-16.6,0-45.2-14.4-38-14.4c12.1,0,21.4-20.9,38-20.9
		C247.7,69.8,253.3,80.3,253.3,87.5z"/>
	<path style="fill:#72AF1B;" d="M250.3,158.9c0,7.2-5.6,17.6-22.3,17.6s-45.2-14.4-38-14.4c12.1,0,21.4-20.9,38-20.9
		S250.3,151.8,250.3,158.9z"/>
	<path style="fill:#72AF1B;" d="M246.4,127.2c0,7.2,5.6,17.6,22.3,17.6s45.2-14.4,38-14.4c-12.1,0-21.4-20.9-38-20.9
		S246.4,120.1,246.4,127.2z"/>
	<path style="fill:#72AF1B;" d="M250.3,229.4c0,7.2-5.6,17.6-22.3,17.6s-45.2-14.4-38-14.4c12.1,0,21.4-20.9,38-20.9
		S250.3,222.2,250.3,229.4z"/>
	<path style="fill:#72AF1B;" d="M246.4,197.7c0,7.2,5.6,17.6,22.3,17.6s45.2-14.4,38-14.4c-12.1,0-21.4-20.9-38-20.9
		S246.4,190.5,246.4,197.7z"/>
	<path style="fill:#72AF1B;" d="M246.4,265.7c0,7.2,5.6,17.6,22.3,17.6s45.2-14.4,38-14.4c-12.1,0-21.4-20.9-38-20.9
		S246.4,258.5,246.4,265.7z"/>
</g>
<path style="fill:#F47C2C;" d="M304.4,336.7c-0.6-0.7-1.4-1.1-2.3-1.1h-108c-0.9,0-1.7,0.4-2.3,1.1s-0.8,1.6-0.7,2.5l15,84.8
	c0.3,1.4,1.5,2.5,3,2.5h78c1.5,0,2.7-1,3-2.5l15-84.8C305.2,338.3,305,337.4,304.4,336.7z"/>
<path style="fill:#D86627;" d="M313.1,309h-130c-1.7,0-3,1.3-3,3v31c0,1.7,1.3,3,3,3h130c1.7,0,3-1.3,3-3v-31
	C316.1,310.3,314.8,309,313.1,309z"/>
</svg>