<?xml version="1.0" encoding="UTF-8"?>
<svg width="1200pt" height="1200pt" version="1.1" viewBox="0 0 1200 1200" xmlns="http://www.w3.org/2000/svg">
 <g>
  <path d="m594.18 358.99c-0.035157-21.207-14.773-65.168-19.992-96.621-3.9883-24.027 2.9297-39.129 16.664-46.648 44.797 21.977 11.902 104.72 3.3281 143.27z"/>
  <path d="m910.71 372.31c-42.062 10.102-62.863 41.539-103.29 53.312 28.141-28.613 52.762-88.402 99.965-76.629 1.0469 7.8203 5.2617 12.516 3.3203 23.316z"/>
  <path d="m400.93 462.25c-23.25-13.176-65-31.039-83.293-49.965-12.938-13.371-15.457-42.586 13.328-39.977 28.598 2.5781 49.711 74.227 69.965 89.941z"/>
  <path d="m607.5 418.97c41.52-2.8867 83.926 4.7539 109.96 19.984 56.215 32.879 100.25 129.86 66.656 206.56-23.91 54.621-93.312 118.5-159.96 123.29-81.309 5.8203-202.52-53.664-206.55-146.61-4.6289-106.18 85.488-195.98 189.9-203.23zm0 13.336c-27.695-3.0312-87.754 21.992-106.61 36.648-39.215 30.457-52.188 91.125-59.977 139.94 26.25 73.75 96.934 149.68 196.57 129.93 55.996-11.105 84.73-71.883 119.96-99.949 34.48-109.5-58.18-196.55-149.94-206.57z"/>
  <path d="m554.2 472.28c-18.945-1.1641-27.551 8-36.648 16.664-4.1289 10.762 10.762 2.543 6.6562 13.328-16.918 0.86328-23.148 12.383-36.648 16.648 14.18-19.43 36.367-65.426 66.641-46.641z"/>
  <path d="m700.81 578.89c7.1797 24.027-20.094 29.289-29.992 16.664-7.1797-24.039 20.109-29.309 29.992-16.664z"/>
  <path d="m534.2 582.22c7.1875 24.012-20.094 29.301-29.984 16.664-7.1523-24.031 20.102-29.301 29.984-16.664z"/>
  <path d="m980.68 605.54c-15.98 53.352-64.383-5.5312-116.63 6.6719 20.918-22.547 90.566-27.879 116.63-6.6719z"/>
  <path d="m337.62 658.85c-53.836-1.9258-87.172 15.996-126.61-6.6562-1.3438-16.898 7.2617-23.824 16.664-29.984 38.422 2.5117 84.09 17.34 109.95 36.641z"/>
  <path d="m764.1 795.46c36.098 34.992 121.36 20.785 133.29 79.977-5.8789 3.0156-10.32 7.4648-13.344 13.336-59.367-11.691-92.316-49.824-119.94-93.312z"/>
  <path d="m380.94 818.77c7.1289 28.488-28.277 71.461-43.312 99.957-5.3867-0.92969-5.7266 3.1484-9.9922 3.3281-56.52-40.945 36.48-72.652 53.305-103.29z"/>
  <path d="m600.84 838.77c24.688 25.297 22.441 77.516 29.984 119.95-7.2891 9.3594-13.918 19.375-33.32 16.672-18.496-40.098 9.5195-87.082 3.3359-136.62z"/>
 </g>
</svg>
